<?xml version="1.0" encoding="UTF-8"?>
<svg id="b" data-name="Layer 2" xmlns="http://www.w3.org/2000/svg" xmlns:xlink="http://www.w3.org/1999/xlink" viewBox="0 0 320 122.78">
  <defs>
    <linearGradient id="d" x1="166.22" y1="541.28" x2="81.51" y2="413.29" gradientTransform="translate(-53.49 481.86) scale(.96 -.96)" gradientUnits="userSpaceOnUse">
      <stop offset="0" stop-color="#6b707c"/>
      <stop offset=".12" stop-color="#6b707c"/>
      <stop offset=".23" stop-color="#666b77"/>
      <stop offset=".58" stop-color="#545761"/>
      <stop offset=".82" stop-color="#484e55"/>
      <stop offset="1" stop-color="#40464d"/>
    </linearGradient>
  </defs>
  <g id="c" data-name="Layer 1">
    <g>
      <path id="e" data-name="&amp;lt;Path&amp;gt;" d="M0,0l81.19,122.78L162.45,0H0ZM19.93,10.72h122.57l-26.68,40.31-7.94-11.77-7.8,12.37,4.93,6.68h5.99l-29.81,45.05-29.79-45.05h4.5l15.35-23.31h-13.95l-10.77,15.97L19.93,10.72ZM84.32,26.23l-21.41,32.07h15l21.2-32.07h-14.8Z" fill="url(#d)"/>
      <g>
        <path id="f" data-name="rect1372" d="M176.73,23.34v37.38h24.13v-5.39h-18.41v-10.71h16.33v-5.54h-16.33v-10.32h18.41v-5.42h-24.13Z" fill="#3e434a" fill-rule="evenodd" isolation="isolate" opacity="1"/>
        <path id="g" data-name="path2567" d="M144.23,60.62h16.68c3.77,0,10.16-2.24,10.16-10.69,0-4.65-2.79-7.34-5.05-8.5,2.23-1.52,4.02-4.11,4.02-7.84,0-5.41-2.98-8.23-5.94-9.45l-3.2,4.84c1.7.87,3.38,2,3.38,5.1s-2.51,4.97-4.96,4.97h-5.08l-3.42,5.16h8.94c3.17,0,5.67,2.27,5.63,5.73-.04,3.46-2.77,5.48-5.63,5.48h-9.74v-10.01l-5.79,8.76v6.47Z" fill="#3e434a"/>
        <path id="h" data-name="rect1331" d="M207.55,23.34v37.38h5.72v-27.01l16.16,27.01h6.06V23.34h-5.72v26.93l-16.16-26.93h-6.05Z" fill="#3e434a" fill-rule="evenodd"/>
        <path id="i" data-name="rect859" d="M243.93,23.34v37.38h13.84c8.8,0,14.25-5.9,14.25-12.33v-12.32c0-8.18-6.85-12.72-13.99-12.72h-14.1ZM249.67,28.81h7.66c2.19,0,8.94.59,8.94,8.17v10.35c0,6.45-5.55,7.95-8.49,7.95h-8.11s0-26.47,0-26.47Z" fill="#3e434a" fill-rule="evenodd"/>
      </g>
      <g>
        <path id="j" data-name="path865" d="M157.72,71.64c4.72.2,7.51,2.5,7.67,6.23v.77h4.5v-.77c0-6.26-4.8-9.31-9.73-9.82l-2.44,3.59Z" fill="#3e434a"/>
        <path id="k" data-name="path867" d="M151.38,80.97c.67.95,3.42,2.05,5.78,2.65,8.52,2.19,13.52,3.98,13.49,11.3-.03,5.74-5.3,9.98-13.11,9.98s-12.99-4.32-12.99-10.22v-1.33h4.52v1.33c0,3.85,3.47,6.42,8.46,6.42,5.28,0,8.61-2.34,8.61-6.19,0-4.6-4.94-5.71-8.99-6.87-2.83-.81-6.16-1.59-8.37-3.27l2.59-3.81Z" fill="#3e434a"/>
        <path id="l" data-name="path1259" d="M243.86,68.5v35.79h13.16c8.49,0,13.46-5.49,13.46-11.54v-12.24c0-3.89-1.59-6.86-4.03-8.89-2.44-2.04-5.76-3.13-9.19-3.13h-13.41ZM248.32,72.45h8.54c1.17,0,3.45.21,5.51,1.44,2.06,1.24,3.85,3.59,3.85,7.53v10.28c0,3.39-1.55,5.63-3.46,6.93-1.92,1.3-4.16,1.72-5.74,1.72h-8.7v-27.91Z" fill="#3e434a" fill-rule="evenodd"/>
        <rect id="m" data-name="rect1268" x="279.57" y="68.5" width="4.46" height="8.23" fill="#3e434a"/>
        <rect id="n" data-name="rect1272" x="279.57" y="79.27" width="4.46" height="25.02" fill="#3e434a"/>
        <path id="o" data-name="path1280" d="M306.15,67.79c-3.48,0-7.27,1.11-9.75,3.18-2.48,2.07-4.16,5.08-4.16,9.04v13.23c0,4.06,2.79,11.51,13.6,11.65l2.89-4.23c-.91.22-1.88.33-2.58.33-1.61,0-4.14-.29-6.09-1.62-1.95-1.32-3.49-3.54-3.49-7.27v-11.18c0-4.01,1.79-6.39,3.88-7.65,2.1-1.26,4.51-1.47,5.7-1.47s3.5.21,5.6,1.47c2.1,1.26,4.01,3.65,4.01,7.65v9.58l4.23-6.4v-4.1c0-3.96-1.61-6.97-4.09-9.04-2.48-2.07-6.27-3.18-9.75-3.18h0Z" fill="#3e434a" fill-rule="evenodd"/>
        <path id="p" data-name="path876" d="M208.03,68.5v24.06c0,7.46,4.93,12.38,13.42,12.38s13.23-4.92,13.21-12.38v-24.06h-4.28v24.06c0,4.5-2.27,8.44-8.93,8.44s-9.14-3.95-9.14-8.44v-24.06h-4.28Z" fill="#3e434a"/>
        <path id="q" data-name="rect881" d="M175.99,68.5v3.98h10.87v31.81h4.21v-31.81h11.04v-3.98h-26.12Z" fill="#3e434a" fill-rule="evenodd"/>
      </g>
    </g>
  </g>
</svg>