<?xml version="1.0" encoding="UTF-8"?>
<svg id="b" data-name="Layer 2" xmlns="http://www.w3.org/2000/svg" viewBox="0 0 320 93.71">
  <g id="c" data-name="Layer 1">
    <g>
      <path d="M204.16.6c9.72-1.57,19.94-.09,28.71,4.42,7.48,3.79,13.9,9.64,18.39,16.72,3.98,6.24,6.4,13.45,7.09,20.82.17,2.69.17,5.39.04,8.08-.67,8.29-3.58,16.4-8.39,23.19-5.05,7.17-12.13,12.9-20.24,16.27-13.46,5.71-29.59,4.57-42.08-3.06-13.16-7.81-22.08-22.44-22.61-37.77-.69-10.95,2.76-22.07,9.42-30.78,7.12-9.45,17.96-16.04,29.66-17.89M237.82,17.86c-1.71.78-2.81,2.86-2.14,4.68.5,1.73,2.34,2.93,4.13,2.68,2.01-.22,3.65-2.24,3.31-4.26-.18-2.48-3.07-3.98-5.3-3.09M193.82,20c-6.24.88-12.11,4.1-16.25,8.84-3.89,4.39-6.31,10.07-6.71,15.93-.73,7.78,2.21,15.79,7.69,21.35,4.83,4.96,11.65,7.98,18.6,8.04,7.14.2,14.28-2.72,19.3-7.77,4.03-3.96,6.76-9.21,7.69-14.78,1.79-9.62-2.19-20.06-9.92-26.07-5.65-4.55-13.23-6.62-20.41-5.53M231.17,30.82c0,1.72,0,3.44,0,5.16,1.58,0,3.17,0,4.75,0,0,9.88,0,19.76,0,29.64,2.07,0,4.15,0,6.22,0V30.81c-3.66,0-7.32-.02-10.98,0Z" fill="#009ddc"/>
      <path d="M37.73,16.09c2.07,0,4.13,0,6.19,0,0,12.58,0,25.16,0,37.74.03,1.11,0,2.28.54,3.28.85,2.03,3.1,3.21,5.25,3.11,0,1.84,0,3.68,0,5.52-2.95-.04-6.11-.38-8.53-2.23-2.44-1.8-3.45-4.96-3.43-7.89-.02-13.17,0-26.35,0-39.52ZM0,17.69c2.53-.38,5.1-.33,7.66-.42,2.85-.04,5.72-.22,8.56.09,2.86.37,5.74,1.34,7.91,3.29,2.78,2.48,3.75,6.54,3.08,10.11-.94,3.67-4.11,6.56-7.7,7.61,2.98.57,5.92,1.89,7.99,4.16,2.16,2.46,2.84,5.85,2.79,9.04.01,3.02-.99,6.08-3.03,8.34-3.11,3.47-7.84,5.04-12.4,5.18-4.05.01-8.1-.02-12.15.01-.91,0-1.83,0-2.7-.29V17.69M6.7,22.75c0,4.55-.02,9.09,0,13.64,3.21.38,6.54.51,9.67-.43,1.97-.62,3.66-2.17,4.2-4.2.57-2.2.59-4.81-.87-6.67-1.04-1.34-2.7-2.02-4.33-2.31-2.88-.37-5.79-.12-8.67-.03M6.71,41.47c-.03,6.06-.01,12.13,0,18.19,4.25.09,8.82.81,12.75-1.24,2.25-1.08,3.57-3.48,3.89-5.9.29-2.7.22-5.69-1.49-7.95-1.58-2.07-4.28-2.85-6.77-3.07-2.77-.54-5.59-.1-8.38-.03ZM301.84,23.7c2.02-.87,4.1-1.62,6.16-2.39.02,3.19,0,6.37.01,9.56,3.18,0,6.36-.02,9.53.01,0,1.64,0,3.28,0,4.92-3.18.01-6.36,0-9.53,0,0,5.71,0,11.41,0,17.12.02,1.98.15,4.07,1.13,5.84,1.01,1.71,3.11,2.42,5.01,2.32,1.73.12,3.37-.53,4.96-1.13.32,1.81.65,3.63.88,5.45-2.52.52-5.08.81-7.64.94-2.07.04-4.25-.37-5.95-1.61-2.3-1.56-3.9-4.09-4.34-6.83-.29-1.65-.2-3.33-.21-5,0-5.7,0-11.41,0-17.11-1.34,0-2.67,0-4,0,0-1.64,0-3.29,0-4.93,1.33,0,2.66,0,4,0,0-2.39.01-4.78,0-7.17h0ZM91.5,42.21c1.62-6.51,7.46-12.09,14.31-12.44,4.43-.3,9.23.68,12.54,3.82,4.05,3.65,5.19,9.66,3.96,14.8-8.37.03-16.74,0-25.11.02.05,1.61.32,3.22.73,4.78.94,3.28,3.59,6.08,6.93,6.93,4.08,1.11,8.83.23,12.02-2.62,1.08,1.36,1.79,2.96,2.71,4.42-.63.55-1.27,1.09-2.03,1.45-4.18,2.16-9.04,2.73-13.67,2.13-5.87-1.02-10.82-5.74-12.35-11.46-1.03-3.84-.98-7.97-.05-11.82M103.23,35.71c-3.22,1.41-5.59,4.65-5.77,8.2,6.37,0,12.74,0,19.11,0,.26-3.4-1.83-6.79-4.94-8.16-2.65-1.14-5.75-1.15-8.4-.03h0ZM135.45,33.1c2.47-2.46,6-3.67,9.45-3.36,3.8.11,7.68,1.51,10.27,4.38,2.75,3.01,3.94,7.15,4.17,11.15-.09,2.43.26,4.91-.33,7.3-.6,3.35-2.11,6.59-4.5,9.04-2.49,2.57-6.07,3.92-9.61,4.05-3.27.23-6.77-.3-9.47-2.27-.02,5.11,0,10.21,0,15.32-2.08,0-4.16,0-6.25,0,0-16.11,0-32.21,0-48.32,2.08-.05,4.16-.05,6.24,0,0,.9,0,1.81.02,2.71M135.44,37.76c-.01,6.83-.02,13.65,0,20.48,3.3,2.96,8.38,2.89,12.19.99,2.45-1.22,4.03-3.69,4.71-6.28.68-2.87.97-5.88.39-8.79-.29-2.57-1.23-5.24-3.27-6.95-2.4-1.94-5.67-2.47-8.67-2.27-1.97.5-3.82,1.48-5.35,2.82h0ZM56.51,30.38c2.03-.02,4.06-.02,6.1,0,.02,7.22,0,14.44,0,21.66.05,1.99.19,4.12,1.29,5.86.7,1.16,1.89,1.98,3.19,2.32,3.35,1.08,7.13-.21,9.56-2.64.99-.99,1.95-2.26,1.87-3.74-.02-7.81,0-15.61-.02-23.42,2.03-.08,4.07-.03,6.1-.04,0,11.58,0,23.15,0,34.73-2.03,0-4.06,0-6.09,0,0-1.58-.03-3.16.04-4.75-2.61,3.75-7.41,5.81-11.93,5.31-3.44-.13-6.86-2.01-8.5-5.09-1.21-2.19-1.64-4.72-1.62-7.2-.02-7.66,0-15.33,0-22.99h0ZM269.55,35.33c1.95-3.26,5.73-5.16,9.5-5,3.14-.2,6.55.63,8.71,3.07,2.43,2.73,3.09,6.55,3.13,10.09.02,7.37,0,14.75,0,22.12-2.05.02-4.1.02-6.14,0,0-6.63,0-13.25,0-19.88-.05-2.26-.07-4.59-.95-6.72-.62-1.65-2.12-2.95-3.87-3.24-3.85-1.11-8.02.93-10.34,4.02.02,8.61,0,17.22,0,25.83-2.07,0-4.14,0-6.2,0,0-11.58,0-23.17,0-34.75,1.4,0,2.81,0,4.23,0,.62,1.49,1.27,2.98,1.93,4.46h0Z" fill="#4c4d4f"/>
    </g>
  </g>
</svg>