<?xml version="1.0" encoding="UTF-8"?>
<svg id="b" data-name="Layer 2" xmlns="http://www.w3.org/2000/svg" viewBox="0 0 195.39 320">
  <g id="c" data-name="Layer 1">
    <path id="d" data-name="path1379" d="M97.06,152.2l96.01-83.44v109.13l-96.01,83.44L1.05,177.87V0l96.01,83.46L193.07,0v40.43l-96.01,83.44-64.57-56.13v97.06l64.57,56.13,64.57-56.11v-28.32l-64.57,56.11-42.48-36.93v-40.4l42.48,36.93ZM20.48,298.79l-5.56.78c-.19-3.11-1.32-4.31-4.55-4.31s-4.66,2.02-4.66,5.4v8.97c0,3.38,1.36,5.52,4.66,5.52,3.92,0,5.05-1.48,5.05-5.52v-1.09h-5.13v-4.7h10.37v5.87c0,7.69-4.27,10.3-10.3,10.3s-10.37-3.15-10.37-9.95v-9.87c0-6.84,4.31-9.87,10.37-9.87,6.49,0,9.56,2.14,10.1,8.47h0ZM31.3,290.55v19.04c0,3.61,1.01,5.4,4.51,5.4s4.55-1.79,4.55-5.4h0v-19.04h5.67v19.51c0,6.8-3.73,9.95-10.22,9.95s-10.18-3.15-10.18-9.95v-19.51h5.67ZM68.65,290.55l-.89,5.09h-10.88v6.37h7.93v5.17h-7.93v7.58h10.88l.89,4.93h-17.48v-29.14h17.48ZM127.66,290.55v29.14h-5.67v-29.14h5.67ZM138.98,290.55v24.21h10.88l.89,4.93h-17.48v-29.14h5.71ZM159.29,290.55v24.21h10.88l.89,4.93h-17.48v-29.14h5.71ZM82.67,290.55c6.88,0,9.75,2.45,9.75,8v2.29c0,3.26-1.09,5.83-4.82,7.15l5.91,11.7h-6.02l-5.48-10.84h-3.34v10.84h-5.71v-29.14h9.71ZM78.66,304.07h4.2c2.99,0,4.08-.82,4.08-3.58v-1.44c0-2.72-1.09-3.54-4.08-3.54h-4.2v8.55ZM107.21,290.55c6.88,0,9.75,2.45,9.75,8v2.29c0,3.26-1.09,5.83-4.82,7.15l5.91,11.7h-6.02l-5.48-10.84h-3.34v10.84h-5.71v-29.14h9.71ZM103.21,304.07h4.2c2.99,0,4.08-.82,4.08-3.58v-1.44c0-2.72-1.09-3.54-4.08-3.54h-4.2v8.55ZM187.27,290.55l8.12,29.14h-5.71l-1.67-6.18h-8l-1.59,6.18h-5.6l8.12-29.14h6.33ZM181.05,308.97h5.91l-2.91-11.07h-.08l-2.91,11.07Z"/>
  </g>
</svg>