<?xml version="1.0" encoding="UTF-8"?>
<svg id="b" data-name="Layer 2" xmlns="http://www.w3.org/2000/svg" viewBox="0 0 320 58.99">
  <g id="c" data-name="Layer 1">
    <g>
      <path id="d" data-name="&amp;lt;Path&amp;gt;" d="M278.67,55.68c0,.7-.35,1.05-1.05,1.05h-13.69c-.7,0-1.05-.35-1.05-1.05v-27.13c0-15.76,12.8-28.56,28.56-28.56s28.56,12.8,28.56,28.56v27.13c0,.7-.35,1.05-1.05,1.05h-13.69c-.7,0-1.05-.35-1.05-1.05v-27.13c0-7.05-5.72-12.77-12.77-12.77s-12.77,5.72-12.77,12.77v27.13Z" fill="#964bc5"/>
      <path id="e" data-name="&amp;lt;Path&amp;gt;" d="M0,55.68c0,.7.35,1.05,1.05,1.05h12.72c.7,0,1.05-.35,1.05-1.05v-7.26c0-7.46,6.06-13.52,13.52-13.52s13.52,6.06,13.52,13.52v7.26c0,.7.35,1.05,1.05,1.05h12.72c.7,0,1.05-.35,1.05-1.05V2.85c0-.7-.35-1.05-1.05-1.05h-12.72c-.7,0-1.05.35-1.05,1.05v7.26c0,7.46-6.06,13.52-13.52,13.52s-13.52-6.06-13.52-13.51V2.85c0-.7-.35-1.05-1.05-1.05H1.05c-.7,0-1.05.35-1.05,1.05v52.83Z" fill="#964bc5"/>
      <path id="f" data-name="&amp;lt;Path&amp;gt;" d="M188.57,2.85c0-.7-.35-1.05-1.05-1.05h-13.5c-.7,0-1.05.35-1.05,1.05v24.88c0,7.12-5.78,12.9-12.9,12.9s-12.9-5.78-12.9-12.9V2.85c0-.7-.35-1.05-1.05-1.05h-13.51c-.7,0-1.05.35-1.05,1.05v26.1c0,7.34,3.47,13.65,11.8,20.34,4.91,3.94,10.72,7.39,16.71,9.7,5.99-2.3,11.8-5.75,16.71-9.7,8.33-6.69,11.8-13,11.8-20.34V2.85Z" fill="#964bc5"/>
      <path id="g" data-name="&amp;lt;Path&amp;gt;" d="M215.08,1.81c-11.43,0-17.43,6-17.43,17.43v20.07c0,11.11,6.31,17.43,17.43,17.43h36.38c.7,0,1.05-.35,1.05-1.05v-11.46c0-.7-.35-1.05-1.05-1.05h-35.41c-3.07,0-4.58-1.51-4.58-4.58v-2.71h27.91c10.14,0,15.42-5.03,15.42-14.7v-3.53c0-10.19-5.66-15.86-15.86-15.86h-23.87ZM215.59,15.36h22.98c2.07,0,3.37,1.14,3.37,2.95v.54c0,2.31-1.38,3.48-4.12,3.48h-26.35v-2.85c0-2.76,1.36-4.12,4.12-4.12Z" fill="#964bc5"/>
      <path id="h" data-name="&amp;lt;Path&amp;gt;" d="M68.68,1.81c-.7,0-1.05.35-1.05,1.05v11.46c0,.7.35,1.05,1.05,1.05h35.29c3.08,0,4.6,1.52,4.6,4.6v2.59h-28.23c-9.37,0-15.03,5.22-15.03,13.85v3.88c0,10.68,5.77,16.45,16.45,16.45h23.33c11.17,0,17.21-6.05,17.21-17.21v-20.27c0-11.59-5.93-17.44-17.67-17.44h-35.95ZM81.84,36.11h26.74v2.47c0,3.08-1.52,4.6-4.6,4.6h-21.39c-2.87,0-4.42-1.13-4.42-3.22v-.6c0-2.02,1.39-3.26,3.67-3.26Z" fill="#964bc5"/>
    </g>
  </g>
</svg>