<?xml version="1.0" encoding="UTF-8"?>
<svg id="b" data-name="Layer 2" xmlns="http://www.w3.org/2000/svg" viewBox="0 0 320 212.25">
  <g id="c" data-name="Layer 1">
    <g>
      <path d="M221.08,54.82c-3.88-1.1-10.67-1.18-10.67-1.18,0,0-1.58-3.25-3.16-6.12-1.44-2.62-3.74-5.41-3.74-5.41,0,0,5.32-5.66,8.07-9.71,6.06-8.91,3.72-12.9-3.13-17.07-6.33-3.85-10.66-5.86-14.75-7.09-8-2.42-13.75.39-18.63,5.85-3.64,4.07-5.1,7.65-5.1,7.65,0,0-2.65-.29-4.71-.53-2.27-.27-4.4-.34-4.4-.34,0,0-.29-5.95-1.33-10.12-1.4-5.61-2.61-14-13.55-9.46-8.63,3.58-14.42,6.81-17.22,9.63-3.55,3.58-3.99,7.47-4.15,11.91-.2,5.41.81,9.03.81,9.03,0,0-2.02,1.77-3.93,3.44-1.66,1.45-3.24,3.28-3.24,3.28,0,0-5.92-3.29-8.45-4.11-2.31-.74-7.45-2.54-10.11,2.19-2.66,4.73-5.47,14.76-5.88,20.22-.65,8.53,4,14.05,12.43,17.01,2.11.74,10.29.93,17.1.96h9.64c1.02-14.05,12.73-25.14,27.05-25.14s27.12,12.14,27.12,27.12-12.14,27.13-27.12,27.13c-14.09,0-25.67-10.75-27-24.5-.34,0-.85,0-1.49-.01h-11.42c-2.35.02-4.65.05-6.57.1-6.38.18-12.56,3.06-16.03,5.16-6.77,4.08-6.68,7.34-5.51,11.29,1.77,5.94,7.4,14.24,9.31,16.65,2.44,3.09,4.73,5.02,10.43,4.8,3.84-.14,7.45-1.15,7.45-1.15,0,0,1.22,1.47,3.68,3.49,2.27,1.86,5.27,4.15,5.27,4.15,0,0-1.53,5.53-2.1,9.1-.58,3.62-.38,8.04,2.61,10.33,2.42,1.85,12.78,4.21,18.81,4.74,7.26.64,10.27-1.31,13.05-4.74,2.76-3.41,4.52-10.57,4.52-10.57,0,0,1.32-.14,4.83-.81,3.01-.58,5.26-1.21,5.26-1.21,0,0,3.25,6.12,8.02,11.72,3.63,4.25,7.61,4.97,12.58,2.22,3.66-2.03,10.87-9.15,14.1-12.89,5.32-6.15,3.87-13.01,2.07-17.29-1.73-4.12-4.61-8.32-4.61-8.32,0,0,1.16-1.62,2.72-4.94,1.71-3.63,2.1-5.2,2.1-5.2,0,0,6.92.71,13.94.55,8.01-.19,9.63-4.19,9.77-10.32.09-3.98-.69-13.37-1.77-17.73-2.33-9.35-5.93-11.78-12.96-13.77Z" fill="#1d1d1b"/>
      <polygon points="15.05 187.76 5.68 187.76 5.68 173.55 0 173.55 0 207.13 5.68 207.13 5.68 192.87 15.05 192.87 15.05 207.13 20.73 207.13 20.73 173.55 15.05 173.55 15.05 187.76" fill="#1d1d1b"/>
      <path d="M40.4,173.02c-6.51,0-10.83,4.01-10.83,9.73v15.1c0,5.85,4.44,9.73,10.83,9.73s10.65-4.01,10.65-9.73v-15.1c0-5.72-4.27-9.73-10.65-9.73ZM45.37,197.45c0,3.08-2.02,5.02-4.97,5.02-3.3,0-5.19-2.11-5.19-5.02v-14.3c0-2.91,1.89-5.02,5.19-5.02,2.95,0,4.97,1.93,4.97,5.02v14.3Z" fill="#1d1d1b"/>
      <path d="M249.87,173.02c-6.51,0-10.83,4.01-10.83,9.73v15.1c0,5.85,4.45,9.73,10.83,9.73.71,0,1.39-.06,2.04-.15l2.71,4.84,4.85-2.72-2.39-4.26c2.17-1.73,3.43-4.32,3.43-7.42v-15.1c0-5.72-4.27-9.73-10.65-9.73ZM254.84,197.45c0,3.08-2.02,5.02-4.97,5.02-3.3,0-5.19-2.11-5.19-5.02v-14.3c0-2.91,1.89-5.02,5.19-5.02,2.95,0,4.97,1.93,4.97,5.02v14.3Z" fill="#1d1d1b"/>
      <path d="M75.3,197.45c0,3.08-2.02,5.02-4.97,5.02-3.3,0-5.19-2.11-5.19-5.02v-23.9h-5.63v24.29c0,5.85,4.45,9.73,10.83,9.73s10.65-4.01,10.65-9.73v-24.29h-5.68v23.9Z" fill="#1d1d1b"/>
      <path d="M103.87,188.29l-5.06-1.72c-1.94-.7-3.43-1.8-3.43-4.23s1.85-4.27,4.62-4.27,4.8,2.02,4.8,4.71v.62h5.68v-.62c0-5.72-4.09-9.77-10.47-9.77s-10.39,4-10.39,9.73c0,3.74,1.63,7.35,7.22,9.24l4.67,1.54c2.07.71,3.52,1.94,3.52,4.4s-1.94,4.53-4.71,4.53-4.93-1.94-4.93-4.75v-.57h-5.68v.44c0,5.85,4.27,9.99,10.61,9.99s10.43-4.01,10.43-10.08c0-3.87-1.54-7.44-6.87-9.2Z" fill="#1d1d1b"/>
      <polygon points="119.71 207.13 140.44 207.13 140.44 202.02 125.39 202.02 125.39 192.83 137.36 192.83 137.36 187.68 125.39 187.68 125.39 178.65 140.44 178.65 140.44 173.55 119.71 173.55 119.71 207.13" fill="#1d1d1b"/>
      <polygon points="160.24 185.39 159.76 185.39 155.4 173.55 149.64 173.55 149.64 207.13 154.79 207.13 154.79 184.2 155.23 184.2 158.79 193.53 161.21 193.53 164.78 184.2 165.22 184.2 165.22 207.13 170.37 207.13 170.37 173.55 164.6 173.55 160.24 185.39" fill="#1d1d1b"/>
      <path d="M186.3,173.55l-6.73,19.14v14.44h5.68v-9.33h9.37v9.33h5.68v-14.52l-6.65-19.06h-7.35ZM185.2,192.69l4.49-13.07h.57l4.36,13.07h-9.42Z" fill="#1d1d1b"/>
      <path d="M230.66,184.07c0-6.29-4.27-10.52-10.69-10.52h-10.92v33.58h5.68v-12.54h3.7l6.78,12.54h5.19v-2.55l-5.94-10.83c3.83-1.5,6.21-5.02,6.21-9.68ZM219.08,189.48h-4.36v-10.83h4.36c3.48,0,5.72,2.03,5.72,5.41s-2.11,5.41-5.72,5.41Z" fill="#1d1d1b"/>
      <path d="M284.79,197.45c0,3.08-2.02,5.02-4.97,5.02-3.3,0-5.19-2.11-5.19-5.02v-23.9h-5.63v24.29c0,5.85,4.45,9.73,10.83,9.73s10.65-4.01,10.65-9.73v-24.29h-5.68v23.9Z" fill="#1d1d1b"/>
      <polygon points="320 178.65 320 173.55 299.27 173.55 299.27 207.13 320 207.13 320 202.02 304.95 202.02 304.95 192.83 316.92 192.83 316.92 187.68 304.95 187.68 304.95 178.65 320 178.65" fill="#1d1d1b"/>
    </g>
  </g>
</svg>