<?xml version="1.0" encoding="UTF-8"?>
<svg id="b" data-name="Layer 2" xmlns="http://www.w3.org/2000/svg" viewBox="0 0 320 61.07">
  <g id="c" data-name="Layer 1">
    <g>
      <g>
        <path d="M0,4.45h8.92v35.63H0V4.45Z"/>
        <path d="M29.8,21.97v18.14h-8.92V9.13l-2.47-4.09v-.59h10.48l13.22,20.14V4.45h8.92v35.63h-8.92l-12.31-18.11Z"/>
        <path d="M81.95,14.63c-1.8-1.15-5.09-2.41-7.66-2.41s-3.45,1.06-3.45,2.27c0,.82.82,1.74,2.3,2.56l4.03,2.3c4.71,2.74,6.66,6.04,6.66,10.16,0,5.86-3.77,11.16-12.43,11.16-3.42,0-6.77-.74-9.13-1.68v-9.69c1.94,1.53,5.59,3.03,8.75,3.03,2.09,0,3.3-.79,3.3-2.3,0-.82-.68-1.62-2.36-2.56l-4.24-2.41c-4.98-2.83-6.45-6.04-6.45-10.28,0-5.18,3.21-10.9,13.05-10.9,2.47,0,5.3.53,7.6,1.47v9.28h.03Z"/>
        <path d="M160.28,40.11l-6.71-19.76v19.76h-8.92V4.48h11.01l8.48,24.26,8.48-24.26h10.95v35.63h-8.92v-19.82l-6.71,19.82h-7.66Z"/>
        <path d="M204.21,21.97v18.14h-8.92V9.13l-2.47-4.09v-.59h10.48l13.22,20.11V4.45h8.92v35.63h-8.92l-12.31-18.11Z"/>
        <path d="M237.11,4.45h8.92v35.63h-8.92V4.45Z"/>
        <path d="M277.36,33.66h-11.9l-2.15,6.45h-9.95l13.1-35.63h9.95l13.1,35.63h-9.95l-2.21-6.45ZM268.41,25.06h6.07l-3.03-8.95-3.03,8.95Z"/>
        <path d="M319.38,39.19c-2.27.94-4.83,1.47-7.51,1.47-10.42,0-18.34-7.98-18.34-18.4s7.92-18.4,18.34-18.4c2.68,0,5.24.53,7.51,1.47v10.22c-1.74-1.62-4.36-2.77-7.51-2.77-5.24,0-9.16,4.3-9.16,9.48s3.92,9.48,9.16,9.48c3.15,0,5.86-1.15,7.51-2.68v10.13Z"/>
      </g>
      <g>
        <path d="M267.32,52.5c-.8-.41-1.94-.71-3.21-.71-1.74,0-3.06,1.3-3.06,3.15,0,1.74,1.24,3.15,2.94,3.15,1.59,0,2.47-1.06,2.47-1.94v-.12h-2.5v-2.68h5.57c.12.47.18,1.18.18,1.83,0,3.09-1.91,5.89-5.8,5.89-3.45,0-5.92-2.65-5.92-6.12s2.56-6.13,6.12-6.13c1.18,0,2.41.18,3.21.47v3.21h0Z"/>
        <path d="M278.98,58.75h-3.98l-.71,2.15h-3.33l4.36-11.87h3.33l4.36,11.87h-3.33l-.71-2.15ZM275.98,55.86h2.03l-1-2.97-1.03,2.97Z"/>
        <path d="M290.7,60.9l-2.24-6.6v6.6h-2.97v-11.87h3.68l2.83,8.1,2.83-8.1h3.65v11.87h-2.97v-6.6l-2.24,6.6h-2.56Z"/>
        <path d="M302.36,60.9v-11.87h6.95v2.86h-3.98v1.59h3.62v2.86h-3.62v1.71h3.98v2.86h-6.95Z"/>
        <path d="M319.38,52.39c-.59-.38-1.71-.79-2.56-.79s-1.15.35-1.15.77c0,.26.26.59.77.85l1.35.77c1.56.91,2.21,2,2.21,3.39,0,1.94-1.27,3.71-4.15,3.71-1.15,0-2.27-.24-3.03-.56v-3.24c.65.5,1.86,1,2.92,1,.71,0,1.09-.26,1.09-.77,0-.26-.24-.53-.8-.85l-1.41-.8c-1.65-.94-2.15-2-2.15-3.42,0-1.74,1.06-3.62,4.36-3.62.82,0,1.77.18,2.53.5v3.06h.03Z"/>
      </g>
      <g>
        <path d="M109.01,9.42c-1.59-.44-3.27-.62-5.04-.44-6.42.65-11.51,5.92-11.96,12.34-.53,7.8,5.62,14.31,13.34,14.31,1.27,0,2.5-.18,3.65-.5.26-.09.29-.44.03-.56-4.77-2.03-8.13-6.77-8.13-12.31s3.36-10.28,8.13-12.31c.26-.09.24-.47-.03-.53Z" fill="#78b1bb"/>
        <path d="M127.62,22.26c0,10.28-6.95,18.93-16.43,21.5-.29.09-.26.53.03.59,1.35.18,2.74.24,4.15.18,11.37-.56,20.55-9.78,21.11-21.14.65-12.81-9.54-23.38-22.23-23.38-1.03,0-2.03.06-3,.21-.32.03-.35.5-.03.59,9.45,2.56,16.4,11.19,16.4,21.47Z" fill="#78b1bb"/>
      </g>
    </g>
  </g>
</svg>