<?xml version="1.0" encoding="UTF-8"?>
<svg id="b" data-name="Layer 2" xmlns="http://www.w3.org/2000/svg" viewBox="0 0 293.83 320">
  <g id="c" data-name="Layer 1">
    <g>
      <path id="d" data-name="&amp;lt;Path&amp;gt;" d="M144.51,296.52h5.76l-13.51-10.44,12.82-9.08h-5.27l-11.18,7.98h-1.12v-7.98h-4.09v19.52h4.09v-8.85h1.08l11.4,8.85ZM158.83,296.52h4.24c3.53,0,6.2-.81,8.02-2.49,1.8-1.68,2.73-4.08,2.73-7.26s-.93-5.58-2.73-7.26c-1.83-1.68-4.49-2.52-8.02-2.52h-4.24c-3.53,0-6.2.84-7.99,2.52-1.83,1.68-2.73,4.08-2.73,7.26s.9,5.58,2.73,7.26c1.8,1.68,4.46,2.49,7.99,2.49h0ZM162.39,293.66h-3.1c-1.3,0-2.42-.17-3.31-.52s-1.61-.81-2.14-1.45c-.56-.61-.93-1.33-1.18-2.17-.25-.84-.34-1.76-.34-2.75s.09-1.88.34-2.75c.25-.84.62-1.56,1.18-2.17.53-.61,1.24-1.1,2.14-1.45s2.01-.52,3.31-.52h3.1c1.36,0,2.51.17,3.44.52.93.35,1.67.84,2.23,1.45.56.61.93,1.33,1.18,2.17.25.87.37,1.76.37,2.75s-.12,1.91-.37,2.75c-.25.84-.62,1.56-1.18,2.17-.56.64-1.3,1.1-2.23,1.45-.93.35-2.08.52-3.44.52h0ZM174.41,296.52h9.6c2.48,0,4.37-.49,5.73-1.47s2.04-2.46,2.04-4.37v-13.68h-4.15v13.21c0,.93-.34,1.71-1.02,2.28-.68.58-1.67.87-2.91.87h-9.29v3.15ZM194.2,296.52h4.15v-19.52h-4.15v19.52ZM226.6,296.52h4.06v-13.65c0-1.91-.68-3.35-2.01-4.37-1.36-.98-3.25-1.5-5.7-1.5h-21.96v19.52h4.09v-16.51h8.7v16.51h4.06v-16.51h4.83c1.18,0,2.11.29,2.85.87.71.58,1.08,1.33,1.08,2.26v13.39ZM240.76,296.52h14.03v-11.02c0-2.89-.77-5.03-2.32-6.42-1.55-1.39-3.75-2.08-6.63-2.08h-12.61v3.01h12.05c1.89,0,3.22.43,4.03,1.24s1.24,1.99,1.3,3.56h-9.85c-1.49,0-2.73.14-3.75.38-1.02.26-1.86.64-2.48,1.13-.65.49-1.12,1.1-1.39,1.85-.31.75-.43,1.62-.43,2.6s.12,1.85.43,2.57c.28.72.74,1.33,1.39,1.79.62.46,1.46.81,2.48,1.04,1.02.23,2.26.35,3.75.35h0ZM250.61,287.68v5.84h-9.85c-1.42,0-2.42-.2-3-.64-.62-.4-.9-1.19-.9-2.34,0-.58.06-1.04.22-1.42.12-.38.37-.66.68-.9.31-.2.71-.35,1.21-.43.5-.06,1.08-.12,1.8-.12h9.85Z" fill-rule="evenodd"/>
      <path id="e" data-name="&amp;lt;Path&amp;gt;" d="M92.25,314.67h7.68c1.2,0,2.19-.09,3.02-.31.82-.21,1.5-.54,2.02-.96.52-.42.9-.99,1.15-1.64.22-.66.35-1.46.35-2.35s-.12-1.67-.35-2.32c-.25-.66-.62-1.22-1.15-1.64-.52-.42-1.2-.75-2.02-.96s-1.82-.33-3.02-.33h-11.02v15.85h3.34v-5.33ZM92.25,306.59h7.68c1.15,0,1.95.21,2.42.63s.72,1.15.72,2.18-.25,1.81-.72,2.21c-.47.42-1.27.61-2.42.61h-7.68v-5.63ZM123.15,320h4.02l-4.94-5.66c1.35-.26,2.34-.77,3.04-1.57.67-.8,1.02-1.93,1.02-3.38,0-1.78-.5-3.1-1.45-3.94-.97-.85-2.59-1.29-4.89-1.29h-11.9v15.85h3.29v-5.35h7.33l4.46,5.35ZM111.36,306.59h8.48c1.12,0,1.92.21,2.39.63.45.42.7,1.15.7,2.18s-.27,1.83-.77,2.21c-.52.4-1.3.59-2.32.59h-8.48v-5.61ZM136.37,320h3.42c2.84,0,4.99-.66,6.46-2.02,1.45-1.36,2.19-3.31,2.19-5.89s-.75-4.53-2.19-5.89c-1.47-1.36-3.62-2.04-6.46-2.04h-3.42c-2.84,0-4.99.68-6.43,2.04-1.47,1.36-2.19,3.31-2.19,5.89s.72,4.53,2.19,5.89c1.45,1.36,3.59,2.02,6.43,2.02ZM139.24,317.68h-2.49c-1.05,0-1.95-.14-2.67-.42-.72-.28-1.3-.66-1.72-1.17-.45-.49-.75-1.08-.95-1.76-.2-.68-.27-1.43-.27-2.23s.07-1.53.27-2.23c.2-.68.5-1.27.95-1.76.42-.49,1-.89,1.72-1.17.72-.28,1.62-.42,2.67-.42h2.49c1.1,0,2.02.14,2.77.42.75.28,1.35.68,1.8,1.17.45.49.75,1.08.95,1.76.2.7.3,1.43.3,2.23s-.1,1.55-.3,2.23c-.2.68-.5,1.27-.95,1.76-.45.52-1.05.89-1.8,1.17-.75.28-1.67.42-2.77.42ZM150.24,320h12c2.29,0,4.07-.63,5.31-1.93,1.25-1.29,1.87-3.29,1.87-5.99s-.62-4.67-1.87-5.99c-1.25-1.29-3.02-1.95-5.31-1.95h-12v15.85ZM161.76,317.56h-8.18v-10.96h8.18c.8,0,1.47.12,2.02.35s.97.59,1.32,1.06c.32.47.55,1.03.7,1.71s.22,1.48.22,2.37-.07,1.69-.22,2.37c-.15.7-.37,1.27-.7,1.71-.35.47-.77.8-1.32,1.03s-1.22.35-2.02.35h0ZM177.23,320h11.5v-15.85h-3.37v13.41h-7.81c-1.07,0-1.87-.23-2.39-.7-.52-.47-.77-1.1-.77-1.88v-10.82h-3.37v11.11c0,1.55.52,2.75,1.62,3.55,1.07.8,2.59,1.2,4.59,1.2h0ZM197.6,320h9.68v-2.44h-9.18c-1.6,0-2.72-.45-3.34-1.39-.62-.92-.92-2.28-.92-4.09,0-.89.05-1.69.2-2.37.15-.68.37-1.24.72-1.71.35-.47.77-.82,1.32-1.06.55-.23,1.22-.35,2.02-.35h9.18v-2.44h-9.68c-2.29,0-4.07.66-5.29,1.95-1.25,1.31-1.85,3.31-1.85,5.99s.6,4.7,1.85,5.99c1.22,1.29,2.99,1.93,5.29,1.93h0ZM216.13,320h3.37v-13.41h7.66v-2.44h-18.68v2.44h7.66v13.41ZM228.65,320h3.34v-15.85h-3.34v15.85ZM242.4,320h3.42c2.84,0,4.99-.66,6.46-2.02,1.45-1.36,2.19-3.31,2.19-5.89s-.75-4.53-2.19-5.89c-1.47-1.36-3.62-2.04-6.46-2.04h-3.42c-2.84,0-4.99.68-6.43,2.04-1.47,1.36-2.19,3.31-2.19,5.89s.72,4.53,2.19,5.89c1.45,1.36,3.59,2.02,6.43,2.02ZM245.27,317.68h-2.49c-1.05,0-1.95-.14-2.67-.42-.72-.28-1.3-.66-1.72-1.17-.45-.49-.75-1.08-.95-1.76-.2-.68-.27-1.43-.27-2.23s.07-1.53.27-2.23c.2-.68.5-1.27.95-1.76.42-.49,1-.89,1.72-1.17s1.62-.42,2.67-.42h2.49c1.1,0,2.02.14,2.77.42.75.28,1.35.68,1.8,1.17s.75,1.08.95,1.76c.2.7.3,1.43.3,2.23s-.1,1.55-.3,2.23c-.2.68-.5,1.27-.95,1.76-.45.52-1.05.89-1.8,1.17-.75.28-1.67.42-2.77.42ZM270.93,320h3.32v-11.08c0-1.55-.55-2.72-1.62-3.55-1.1-.8-2.62-1.22-4.61-1.22h-11.75v15.85h3.34v-13.41h8.16c.97,0,1.75.23,2.32.7.55.47.85,1.08.85,1.83v10.87ZM276.09,320h11.5c1.12,0,2.07-.07,2.87-.26.8-.19,1.45-.47,1.95-.85.5-.38.85-.85,1.07-1.41.22-.56.35-1.22.35-2,0-1.53-.47-2.68-1.37-3.47s-2.37-1.2-4.39-1.2h-6.38c-.92,0-1.6-.14-2-.47-.42-.33-.62-.87-.62-1.64s.2-1.29.6-1.62c.4-.33,1.05-.49,1.92-.49h11.62v-2.44h-11.62c-2.1,0-3.59.38-4.51,1.13-.92.75-1.37,1.88-1.37,3.38s.45,2.68,1.35,3.45c.9.77,2.34,1.15,4.34,1.15h6.38c.95,0,1.65.16,2.05.49.4.33.62.85.62,1.6s-.2,1.31-.6,1.67c-.4.38-1.05.54-1.92.54h-11.82v2.44Z" fill-rule="evenodd"/>
      <g id="f" data-name="&amp;lt;Group&amp;gt;">
        <path id="g" data-name="path40" d="M170.92,238.45c-.8.02-1.6.06-2.39.11-2.25.14-4.5.36-6.73.65-3.09.4-6.16.95-9.19,1.66-3.41.8-6.79,1.82-10.04,3.14-5.11,2.07-10.17,4.51-14.88,7.39-1.26.77-2.51,1.58-3.71,2.44-.42.3-.86.62-1.26.95h0s0,0,0,0c-.52.39-1.03.81-1.53,1.22-1.28,1.06-2.54,2.16-3.75,3.3-3.56,3.32-6.98,7.03-9.75,11.05-1.44,2.08-2.73,4.31-3.7,6.65-1.92,4.63-3.66,9.37-5.11,14.17-.4,1.31-.77,2.63-1.11,3.96-.12.47-.24.95-.35,1.43l-.04.2-75.72,1.79,1.71-6,10.38-7.28-4.16-10.96,16.81-51.97c.28-.87.54-1.76.79-2.64.54-1.91,1.03-3.85,1.43-5.8.2-.98.37-1.96.5-2.95.11-.88.2-1.77.2-2.66,0-2.78-.99-5.63-2.24-8.07-1.52-2.96-3.6-5.72-5.92-8.1-2.24-2.3-4.81-4.36-7.44-6.2-.89-.62-1.79-1.22-2.71-1.79-.36-.22-.72-.45-1.08-.65h0c-.3-.19-.62-.37-.94-.54-.87-.47-1.76-.89-2.67-1.29-3.18-1.41-6.56-2.48-9.95-3.24-3.16-.71-6.48-1.23-9.72-1.31-.83-.02-1.68-.02-2.51.04-.28.02-.58.04-.86.09l-.18.03-3.08-5.6,15.65-7.13,20.03-32.61h0c1.67-2.48,3.36-4.95,5.06-7.41,3.69-5.35,7.42-10.68,11.21-15.96,2.52-3.5,5.07-6.99,7.69-10.42,1.14-1.5,2.3-2.99,3.49-4.46.98-1.22,1.98-2.42,3.02-3.59,4.26-4.8,8.63-9.51,13.06-14.16,1.45-1.53,2.92-3.06,4.39-4.57.57-.59,1.14-1.17,1.71-1.76,1.06-1.09,2.18-2.15,3.3-3.18,2.83-2.61,5.8-5.09,8.85-7.43,4.2-3.22,8.6-6.21,13.18-8.85,5.17-2.98,10.62-5.56,16.29-7.44,9.49-3.15,19.58-4.66,29.58-4.34,2.98.1,5.99.36,8.94.83.82.13,1.64.28,2.45.45.3.06.6.13.9.21.58.13,1.18.3,1.75.47,1.61.48,3.21,1.03,4.78,1.63,5.84,2.22,11.51,5.1,16.87,8.3h0s0,.01,0,.01c2.02,1.46,4.03,2.95,6.02,4.45.95.71,1.89,1.43,2.82,2.17.72.57,1.45,1.15,2.14,1.76.94.83,1.84,1.73,2.73,2.62,1.37,1.39,2.72,2.81,4.04,4.25l4.41-3.26c-.28-.36-.58-.71-.87-1.06-.94-1.11-1.93-2.18-2.93-3.23-3.48-3.61-7.3-6.94-11.33-9.92-12.54-9.29-27.06-15.23-42.68-16.51-4.86-.4-9.75-.32-14.6.11-7.91.7-15.77,2.32-23.39,4.5-6.85,1.96-13.59,4.38-20.16,7.14-4.81,2.02-9.55,4.23-14.18,6.64-1.34.7-2.67,1.41-3.99,2.14-.49.27-.98.55-1.46.83l-10.26,6.33-18.27-32.86,7.2-3.93,4.71,4.05c.62-.39,1.25-.77,1.88-1.15,1.83-1.09,3.68-2.14,5.55-3.16,6.39-3.48,12.99-6.63,19.71-9.41,9.05-3.75,18.42-6.89,27.96-9.13C127.79,1.12,138.71-.28,149.58.05c18.79.57,37.18,5.65,53.9,14.16,5.28,2.69,10.43,5.73,15.29,9.12,1.39.97,2.76,1.97,4.09,3.01.49.38.99.78,1.46,1.18.29.2.57.42.85.63.77.59,1.52,1.19,2.25,1.81,2.61,2.18,5.11,4.54,7.47,6.99,7.45,7.72,13.81,16.68,18.26,26.45,2.26,4.97,4.37,10.02,6.25,15.14,1.34,3.66,2.57,7.38,3.63,11.13.64,2.27,1.22,4.58,1.68,6.9.16.8.32,1.63.42,2.44l.02.19-22.75,9.7c.07.68.1,1.4.12,2.08.06,2.09-.03,4.21-.2,6.29-.27,3.31-.77,6.62-1.43,9.88-.9,4.41-2.1,8.76-3.55,13.03-1.31,3.86-2.68,7.7-4.18,11.49-.87,2.19-1.8,4.4-2.85,6.52-.49.99-1.03,2.02-1.65,2.94-.12.18-.3.43-.47.62l17.28,49v.07c-.07.31-.16.63-.24.93-.22.81-.48,1.62-.77,2.4-.98,2.65-2.3,5.21-3.89,7.55-.8,1.18-1.66,2.33-2.6,3.4-.6.69-1.25,1.36-1.95,1.96-.39.33-.81.65-1.25.9-.14.08-.32.18-.48.23-.38.14-.86.23-1.25.27-.89.1-1.82,0-2.64-.38-.45-.21-.9-.47-1.34-.71-.82-.45-1.63-.91-2.45-1.38-2.26-1.28-4.52-2.58-6.77-3.88-3.46-2-6.93-4.01-10.38-6.02l-1.53,2.14.17.12c6.61,4.45,10.56,11.86,10.56,19.83,0,13.2-10.7,23.9-23.9,23.9s-23.41-10.17-23.88-23.01h0s0-.61,0-.61Z"/>
        <path id="h" data-name="path2" d="M129.34,173.39c2.05,2.23,3.3,5.2,3.3,8.46,0,2.87-.97,5.52-2.61,7.64l2.46,3.26c.82-.47,1.75-.77,2.74-.86l.08-1.06-.85-.47v-1.51s2.32-1.6,2.7-3.67c.38-2.07.38-3.86.38-3.86l-.91-1.47v-3.48l.72-.56,6.68,10.6,15.18,2.51,24.46-15.21.77-11.65-.77-.11v-1.51h1.61l1.27.86-.72,10.72,1.82,3.23s5.83,1.6,7.81,5.93c1.98,4.33,1.63,8.31,1.63,8.31h1.13l3.48-1.72s.56-4.33-2.76-8.94c0,0-1.54-2.1-3.79-3.67s-3.1-1.91-3.1-1.91l1-1.57s4.61,2.01,7.93,6.87c3.32,4.86,2.67,9.69,2.67,9.69l-.31,2.92-6.18,2.7s.38,1.22-.28,2.6c-.66,1.38-1.25,1.76-1.25,1.76v.97l32.67,21.95s1.91,1.72,4.48,1.38c2.57-.34,3.98-2.82,3.98-2.82l1,.85s-.78,2.29-2.29,2.95-3.39,1.29-3.39,1.29c0,0-1.03.47-2.92-.47-1.88-.94-33.83-22.95-33.83-22.95l-1.88.34s-.78.19-.94-.82c-.16-1-.16-1.57-.16-1.57l-.5-.69v-1.6s.06-1.07.69-1.51c.63-.44,3.01-3.07,3.32-6.37.31-3.29-1.29-6.27-1.29-6.27,0,0-2.41-4.67-8.31-4.67h-6.15l-14.55,9.09-2.88,12.07s-5.02-1.83-9.56-.74c-4.55,1.1-6.3,2.3-6.3,2.3l-1.77-1.38v-1.79l.83-1.29-2.05-4.48h-3.48l-.59,1.03c1.83,1.24,3.04,3.34,3.04,5.72,0,3.56-2.7,6.49-6.17,6.86v1.97h-2.32v-2.12c-3.04-.72-5.31-3.45-5.31-6.71,0-1.03.23-2.01.63-2.89l-3.62-2.96c-1.78.96-3.82,1.5-5.99,1.5-6.97,0-12.62-5.62-12.62-12.54,0-3.24,1.23-6.19,3.26-8.41l.37.36c-1.24,1.87-1.97,4.14-1.97,6.6,0,6.37,4.91,11.54,10.96,11.54s10.96-5.17,10.96-11.54c0-2.46-.73-4.74-1.98-6.61l.33-.39ZM135.89,193.7c2.79,0,5.05,2.26,5.05,5.05s-2.26,5.05-5.05,5.05-5.05-2.26-5.05-5.05,2.26-5.05,5.05-5.05Z" fill="#fff" fill-rule="evenodd"/>
        <path id="i" data-name="path3" d="M170.92,238.45c-.8.02-1.6.06-2.39.11-2.25.14-4.5.36-6.73.65-3.09.4-6.16.95-9.19,1.66-3.41.8-6.79,1.82-10.04,3.14-5.11,2.07-10.17,4.51-14.88,7.39-1.26.77-2.51,1.58-3.71,2.44-.42.3-.86.62-1.26.95h0s0,0,0,0c-.52.39-1.03.81-1.53,1.22-1.28,1.06-2.54,2.16-3.75,3.3-3.56,3.32-6.98,7.03-9.75,11.05-1.44,2.08-2.73,4.31-3.7,6.65-1.92,4.63-3.66,9.37-5.11,14.17-.4,1.31-.77,2.63-1.11,3.96-.12.47-.24.95-.35,1.43l-.04.2-75.72,1.79,1.71-6,10.38-7.28-4.16-10.96,16.81-51.97c.28-.87.54-1.76.79-2.64.54-1.91,1.03-3.85,1.43-5.8.2-.98.37-1.96.5-2.95.11-.88.2-1.77.2-2.66,0-2.78-.99-5.63-2.24-8.07-1.52-2.96-3.6-5.72-5.92-8.1-2.24-2.3-4.81-4.36-7.44-6.2-.89-.62-1.79-1.22-2.71-1.79-.36-.22-.72-.45-1.08-.65h0c-.3-.19-.62-.37-.94-.54-.87-.47-1.76-.89-2.67-1.29-3.18-1.41-6.56-2.48-9.95-3.24-3.16-.71-6.48-1.23-9.72-1.31-.83-.02-1.68-.02-2.51.04-.28.02-.58.04-.86.09l-.18.03-3.08-5.6,15.65-7.13,20.03-32.61h0c1.67-2.48,3.36-4.95,5.06-7.41,3.69-5.35,7.42-10.68,11.21-15.96,2.52-3.5,5.07-6.99,7.69-10.42,1.14-1.5,2.3-2.99,3.49-4.46.98-1.22,1.98-2.42,3.02-3.59,4.26-4.8,8.63-9.51,13.06-14.16,1.45-1.53,2.92-3.06,4.39-4.57.57-.59,1.14-1.17,1.71-1.76,1.06-1.09,2.18-2.15,3.3-3.18,2.83-2.61,5.8-5.09,8.85-7.43,4.2-3.22,8.6-6.21,13.18-8.85,5.17-2.98,10.62-5.56,16.29-7.44,9.49-3.15,19.58-4.66,29.58-4.34,2.98.1,5.99.36,8.94.83.82.13,1.64.28,2.45.45.3.06.6.13.9.21.58.13,1.18.3,1.75.47,1.61.48,3.21,1.03,4.78,1.63,5.84,2.22,11.51,5.1,16.87,8.3h0s0,.01,0,.01c2.02,1.46,4.03,2.95,6.02,4.45.95.71,1.89,1.43,2.82,2.17.72.57,1.45,1.15,2.14,1.76.94.83,1.84,1.73,2.73,2.62,1.37,1.39,2.72,2.81,4.04,4.25l4.41-3.26c-.28-.36-.58-.71-.87-1.06-.94-1.11-1.93-2.18-2.93-3.23-3.48-3.61-7.3-6.94-11.33-9.92-12.54-9.29-27.06-15.23-42.68-16.51-4.86-.4-9.75-.32-14.6.11-7.91.7-15.77,2.32-23.39,4.5-6.85,1.96-13.59,4.38-20.16,7.14-4.81,2.02-9.55,4.23-14.18,6.64-1.34.7-2.67,1.41-3.99,2.14-.49.27-.98.55-1.46.83l-10.26,6.33-18.27-32.86,7.2-3.93,4.71,4.05c.62-.39,1.25-.77,1.88-1.15,1.83-1.09,3.68-2.14,5.55-3.16,6.39-3.48,12.99-6.63,19.71-9.41,9.05-3.75,18.42-6.89,27.96-9.13C127.79,1.12,138.71-.28,149.58.05c18.79.57,37.18,5.65,53.9,14.16,5.28,2.69,10.43,5.73,15.29,9.12,1.39.97,2.76,1.97,4.09,3.01.49.38.99.78,1.46,1.18.29.2.57.42.85.63.77.59,1.52,1.19,2.25,1.81,2.61,2.18,5.11,4.54,7.47,6.99,7.45,7.72,13.81,16.68,18.26,26.45,2.26,4.97,4.37,10.02,6.25,15.14,1.34,3.66,2.57,7.38,3.63,11.13.64,2.27,1.22,4.58,1.68,6.9.16.8.32,1.63.42,2.44l.02.19-22.75,9.7c.07.68.1,1.4.12,2.08.06,2.09-.03,4.21-.2,6.29-.27,3.31-.77,6.62-1.43,9.88-.9,4.41-2.1,8.76-3.55,13.03-1.31,3.86-2.68,7.7-4.18,11.49-.87,2.19-1.8,4.4-2.85,6.52-.49.99-1.03,2.02-1.65,2.94-.12.18-.3.43-.47.62l17.28,49v.07c-.07.31-.16.63-.24.93-.22.81-.48,1.62-.77,2.4-.98,2.65-2.3,5.21-3.89,7.55-.8,1.18-1.66,2.33-2.6,3.4-.6.69-1.25,1.36-1.95,1.96-.39.33-.81.65-1.25.9-.14.08-.32.18-.48.23-.38.14-.86.23-1.25.27-.89.1-1.82,0-2.64-.38-.45-.21-.9-.47-1.34-.71-.82-.45-1.63-.91-2.45-1.38-2.26-1.28-4.52-2.58-6.77-3.88-3.46-2-6.93-4.01-10.38-6.02l-1.53,2.14.17.12c6.61,4.45,10.56,11.86,10.56,19.83,0,13.2-10.7,23.9-23.9,23.9s-23.41-10.17-23.88-23.01h0s0-.61,0-.61ZM161.68,233.14l1.64,5.37c-.52.06-1.05.13-1.57.19-3.1.41-6.2.95-9.24,1.67-3.44.81-6.84,1.83-10.12,3.16-5.13,2.08-10.22,4.53-14.95,7.43-1.27.78-2.53,1.59-3.74,2.46-.43.31-.87.63-1.28.96-.52.4-1.04.82-1.54,1.23-1.29,1.07-2.55,2.18-3.78,3.32-3.59,3.35-7.04,7.08-9.82,11.13-1.46,2.11-2.77,4.37-3.75,6.75-1.93,4.64-3.67,9.4-5.13,14.21-.4,1.32-.78,2.65-1.12,3.98-.11.41-.21.83-.31,1.25l-74.63,1.76,1.47-5.16,10.56-7.4,30.82-21.63v-7.2l10.65-7.63,6.38,2.99,21.5-15.05c3,3.4,7.14,5.77,11.83,6.5,5.92.78,11.48-2.44,11.48-2.44l-.03-.44s-1.14.74-5.21,1.11c-4.06.38-7.99-1.07-7.99-1.07h0c-3.06-.99-5.73-2.89-7.71-5.4l1.08-2.12h5.48l.25-1.33.08-1.12,15.86-11.2s1.39-.67,1.26-1.67c-.13-1-1.71-.57-2.26.29s-1.17,2.04-1.17,2.04l-16.72,11.69-3.36-1.78-.52.92h-2.45c-.79-1.99-1.23-4.17-1.23-6.46,0-9.33,7.27-16.9,16.24-16.9,6.96,0,12.9,4.56,15.21,10.97l3.57-1.35c-2.72-7.74-10.1-13.29-18.77-13.29-6.78,0-12.77,3.39-16.36,8.58l-25.15-4.6-.69,5.17,23.37,4.32c-.69,2.01-1.06,4.17-1.06,6.42,0,4.42,1.44,8.5,3.88,11.8l-20.38,14.16-6.67-3.09-12.06,8.7v7.38l-29.88,20.78-3.5-9.2,16.76-51.8c.28-.88.55-1.77.8-2.66.55-1.93,1.04-3.88,1.44-5.84.2-.99.38-1.99.51-2.99.12-.9.2-1.82.2-2.72,0-2.86-1.01-5.78-2.3-8.31-1.54-3.01-3.66-5.8-6.01-8.22-2.26-2.32-4.86-4.41-7.51-6.27-.89-.63-1.81-1.23-2.73-1.81-.36-.23-.73-.45-1.1-.66-.31-.19-.64-.37-.96-.55-.88-.47-1.79-.91-2.7-1.31-3.21-1.42-6.62-2.5-10.04-3.28-3.2-.72-6.54-1.24-9.82-1.33-.85-.02-1.71-.02-2.56.04-.24.02-.49.03-.73.07l-2.65-4.81,15.29-6.96,21.9-9.9.16-8.09,7.16-3.08v-2.11l-9.92,4.38v7.93l-17.52,7.98,18.33-29.84c1.67-2.48,3.36-4.94,5.05-7.4,3.68-5.35,7.41-10.68,11.21-15.95,2.52-3.5,5.06-6.98,7.68-10.41,1.14-1.5,2.3-2.98,3.48-4.45.97-1.21,1.97-2.41,3-3.57,4.26-4.8,8.63-9.51,13.05-14.16,1.45-1.53,2.91-3.05,4.38-4.57.57-.59,1.14-1.17,1.71-1.75,1.05-1.09,2.17-2.14,3.28-3.16,2.82-2.6,5.78-5.07,8.82-7.4,4.18-3.21,8.56-6.18,13.12-8.81,5.14-2.96,10.56-5.53,16.19-7.4,9.43-3.13,19.46-4.63,29.4-4.31,2.96.1,5.95.35,8.87.82.81.13,1.62.28,2.43.45.29.06.59.13.88.2h0c.57.13,1.16.3,1.72.46,1.6.47,3.18,1.02,4.74,1.62,5.81,2.21,11.45,5.08,16.78,8.25,2.01,1.46,4.01,2.94,6,4.44.94.71,1.88,1.43,2.81,2.16.71.56,1.44,1.14,2.12,1.74.93.83,1.83,1.71,2.7,2.6,1.42,1.44,2.82,2.91,4.18,4.4l.16.17,5.2-3.85-.16-.21c-.33-.44-.69-.86-1.05-1.28-.95-1.12-1.94-2.2-2.96-3.26-3.5-3.63-7.35-6.98-11.39-9.98-12.61-9.35-27.23-15.32-42.94-16.61-4.88-.4-9.81-.32-14.69.11-7.94.7-15.83,2.33-23.49,4.52-6.87,1.96-13.63,4.39-20.22,7.16-4.82,2.03-9.57,4.25-14.21,6.65-1.34.7-2.68,1.41-4,2.15-.49.28-.99.55-1.47.84l-9.81,6.05-17.76-31.94,6.43-3.51,4.73,4.06.16-.1c.67-.43,1.35-.84,2.03-1.25,1.82-1.09,3.67-2.14,5.54-3.15,5.41-2.95,10.97-5.66,16.63-8.11l10.29,22.44,1.98-1-10.37-22.25c.38-.16.76-.32,1.14-.48,9.03-3.74,18.36-6.87,27.88-9.1,10.52-2.47,21.4-3.86,32.22-3.54,18.71.57,37.03,5.63,53.68,14.11,5.26,2.68,10.39,5.71,15.23,9.09,1.38.96,2.74,1.96,4.06,2.99.49.38.98.77,1.45,1.18h0s0,.01,0,.01c.29.2.57.42.85.63.76.58,1.5,1.18,2.24,1.8,2.6,2.17,5.08,4.51,7.43,6.95,7,7.25,13.03,15.61,17.41,24.71l-19,8.64.91,2.01,19.05-8.59c2.18,4.81,4.21,9.69,6.02,14.65.89,2.43,1.73,4.88,2.5,7.35l-21.1,8.47.66,1.94,21.16-8.04c.13.46.26.91.39,1.37.64,2.26,1.21,4.55,1.67,6.86.14.72.29,1.47.39,2.21l-22.74,9.7.02.19c.09.72.12,1.5.14,2.22.06,2.07-.03,4.17-.2,6.24-.27,3.29-.76,6.58-1.42,9.82-.89,4.39-2.09,8.72-3.53,12.96-1.3,3.85-2.67,7.69-4.17,11.46-.87,2.18-1.79,4.37-2.83,6.48-.48.96-1,1.98-1.61,2.87-.12.18-.34.5-.51.64l-.13.11,17.34,49.18c-.06.28-.13.56-.2.83-.22.8-.47,1.59-.76,2.36-.96,2.61-2.27,5.14-3.84,7.44-.79,1.16-1.64,2.3-2.56,3.35-.59.67-1.22,1.33-1.9,1.9-.36.31-.76.61-1.17.85-.11.06-.26.15-.39.19h0c-.34.13-.79.21-1.14.24-.8.08-1.63,0-2.36-.34-.44-.2-.88-.46-1.3-.69-.82-.45-1.63-.91-2.44-1.37-2.26-1.28-4.51-2.58-6.76-3.88-3.53-2.04-7.06-4.09-10.58-6.14l-.2-.12-2.1,2.94.39.28h0s.2.14.2.14l.07.05h0c6.43,4.36,10.27,11.58,10.27,19.36,0,12.92-10.47,23.39-23.39,23.39s-22.91-9.95-23.37-22.51l.02-1.12h-.26c-.89.01-1.79.06-2.68.12-.99.06-1.97.14-2.96.23l-1.75-6.08c5-2.68,8.41-7.97,8.41-14.07,0-2.17-.43-4.23-1.21-6.12v-2.84l8.86-8.72s1.71,1.1,3.78,1.14c2.07.05,4.44-.6,4.44-.6v-.38s-2.32.42-4.09.16c-1.77-.27-3.23-1.24-3.23-1.24l1.14-1.19s.5.52,4.37.44c3.87-.08,6.58-3.95,6.58-3.95l-.19-.2s-1.79,1.47-4.08,2.01-4.86-.22-4.86-.22c0,0-6.43-2.1-6.43-8.18s3.86-8.14,3.86-8.14l-.14-.44-.94.61s-4.72,2.68-4.72,8.67,5.05,8.69,5.05,8.69l-9.85,9.31h-2.91c-.8-.81-1.68-1.54-2.63-2.16l-1.36,2.03c3.68,2.41,6.12,6.58,6.12,11.32,0,7.45-6.01,13.49-13.43,13.49s-13.43-6.04-13.43-13.49c0-5.77,3.61-10.69,8.68-12.62l-.89-2.28c-5.97,2.29-10.22,8.09-10.22,14.9,0,.12,0,.25,0,.37h-1.63c.36,1.52.55,3.09.55,4.72,0,1.22-.11,2.42-.31,3.59v.67l1.02.88,3.51-.73c2.89,3.9,7.52,6.43,12.74,6.43,1.87,0,3.67-.33,5.34-.93h0ZM138.27,229.91c-.4,1.16-.9,2.26-1.49,3.31v.86h.93l2.09-2.28v-.49l-1.52-1.4h0ZM162.71,203.54c-1.08-.48-2.23-.84-3.42-1.06l-.55,2.38c1.05.19,2.06.5,3.01.92l.97-2.24ZM97.65,97.55l-14.16,11.28s-1.44.98-2.19,3.28-1.71,6.56-2.38,11.66c-.42,3.21-1.38,8.12-2.03,11.31l-12.38,5.73-6.93-4.52-8.07,3.56v2.16l7.16-3.08,7.06,4.61,12.6-5.73c-.06.29-.1.45-.1.45l-1.13,2.57.13,1.57.98,1.19.21,5.69s-3.65,5.22-4.25,6.51c-.6,1.29-1.35,3.29-1.35,3.29,0,0,1.66,3.04,1.98,4.89s.38,2.23.38,2.23c0,0,.08.96,1.69.83,1.61-.13,1.18-1.54.72-2.26-.45-.72-2.93-4.45-2.93-4.45,0,0-1.11-1.47.2-1.77,0,0,.53-.05.94-.05s.85-.02.85-.02c0,0,2.27,3.64,4.42,6.57,2.15,2.93,4.17,4.59,4.17,4.59l.03,1.18s-1.05,1.79-2.19,2.93c-1.14,1.14-1.36,1.36-1.36,1.36v1.1l-.53.97s-.19.16-.47.16-.34-.11-.25-.41c.09-.3.58-.8.58-.8v-.71s-.03-.44-.27-.44h-.71v-2.15s.05-.63.36-1.13c.31-.5,1-1.25,1-2.23s-1.1-1.38-2.23-1.38-3.54,1.1-3.65,2.84c-.11,1.74.13,2.18-.91,4.15-1.03,1.98-1.07,1.99-1.07,1.99,0,0-.52.94-.05,2.62.47,1.68.69,2.1,1.32,2.1s.83-.71.83-.71c0,0,.11-.36.67-.13.56.24,1.49,1.3,1.69,3.01s.88,2.56,1.55,2.52c.67-.03.47-1.02,1.03-2.79.56-1.77,1.66-2.93,2.57-2.93s1.98.85,2.18,1.69.64,1.46,1.43,1.49c.78.03,2.04-1.98,2.04-1.98,0,0,1.03-1.44,1.65-1.33.61.11,1.16.66,1.16.66,0,0,.21.15.43-.02.22-.17.22-.66.53-.6s.24.41.15.66c-.09.25-.6,1.18.6,1.18s1.18,0,1.18,0c0,0,.48.03.69-.49.21-.52.42-1.13.42-1.13,0,0,0-.26.23-.26s.36.17.89.17.82.08,1.11-.49,1.33-2.01,1.33-2.01c0,0,.34-.5.52-.42.17.08-.03.88-.22,1.21-.19.33-.86,1.99.42,2.65,1.29.66,3.12-1.54,3.12-1.54,0,0,.38-.28.38-1.19v-1.74s-.09-.44.3-.82c.39-.38.47-.63.42-.82-.05-.19,0-.38.08-.53s.09-1.36-1.3-1.36-1.98.14-1.98.14c0,0-.64.09-.78.77-.14.67-.42.91-.66.91s-.44.03-.36-.27c.08-.29.77-1.82.77-1.82,0,0,.02-.34.39-.44.38-.09,3.2-.74,4.75-1.22,1.55-.49,2.16-1.35,1.82-2.27-.34-.93-3.46-4.45-3.46-4.45,0,0-.45-.53-1.14-.14-.69.39-1.6.75-1.82.38-.22-.38-2.37-2.6-3.54-2.15-1.18.45-1.99,1.49-2.02,1.94-.03.45-.09.97-.56,1.85-.47.88-.91,1.24-.91,1.24,0,0-.78-1.46-1.02-1.77-.24-.31-.42-.52-.42-.52,0,0,.61-1.33,1.41-3.25.8-1.91,2.48-4.14,3.07-4.73.6-.6,1.3-1.69,1.24-2.59s-.88-.99-.88-.99c0,0-.34-.25-1.14.93-.8,1.18-1.88,2.07-1.88,2.07,0,0-.19-2.48-.31-3.5-.13-1.02-.6-1.25-.09-1.87.5-.61,1.72-.93,1.83-2.07s.03-2.02.03-2.02c0,0,.74.17.88-.49.14-.66-.17-1.14.8-2.43.97-1.29,1.54-1.55,2.1-1.54.56.02.39-.88.11-1.14-.28-.27-1.35-.77-2.52.17-1.18.94-3.37,3.28-3.37,3.28,0,0-.56.69-.52,1.16s.38.83.38.83c0,0-.54.3-.71.65-.17.35-.19.67-.5.67s-1.14-.28-1.41.23c-.27.51-.56.57-.74.41-.17-.16-.55-.74-.55-.74,0,0-.54-.91-1.15.24s-.7,2.7-.56,3.19c.14.49.22,1-.45,1.96-.67.96-1.22,1.16-1.22,1.16l-.82-2.34s-.02-.75-1.14-1.77c-1.13-1.02-3.92-3.25-3.92-3.25,0,0-.19-2.79-.06-3.62.13-.83.33-1.91.33-1.91,0,0,.05-.24-.24-.47-.28-.24-.89-.67-.89-.67,0,0-.27-.22-.25-.55.02-.33.45-.28.71.14.25.42,3.7,2.71,3.7,2.71,0,0,.6.33.94-.22s1.74-1.91,2.05-2.46c.31-.55.82-1.05.63-1.44-.19-.39-1-1.74-.88-2.24s.67-.72.67-.72c0,0,.31-.14.25-.41-.06-.27-.42-.67-.42-.94s.02-.31.49-.31,10.46.17,10.46.17l6.22,5.71,4-3.84s.49-3.29-1.07-4.58c-1.55-1.29-2.9-2.24-2.9-4.11s1.99-3.68,1.99-3.68c0,0,.61-.71.88-1.91.27-1.21.61-2.99,2.62-4.52,2.01-1.52,2.56-2.4,2.56-2.4,0,0,.71.53.05,1.72s-3.14,3.37-3.59,6.27-.09,5.35-.09,5.35l6.21,4.61s.36-.19.44-.56c.08-.38,2.13-14.24,2.13-14.24,0,0,.19-.47.02-.63-.17-.16-.45-.38-.45-.38l.75-.93s.25-.47.05-.77c-.2-.3-.47-.77-.96-.86-.49-.09-1.11.09-1.77-.39-.66-.49-1.16-.85-1.16-.85l.67-1s.16-.55-.14-.75c-.3-.2-14.17-14.98-14.17-14.98h0ZM100.68,109.8c1.48,0,2.67,1.2,2.67,2.67s-1.2,2.67-2.67,2.67-2.67-1.2-2.67-2.67,1.2-2.67,2.67-2.67ZM75.03,261.26l2.01-1.51,4.23,6.05-1.94,1.38-4.3-5.93Z" fill="#fff" fill-rule="evenodd"/>
        <path id="j" data-name="path4" d="M82.31,139.45l.49-.58-.44-3.54,4.33-7.43-1.69-1.03-4.08,7.15,1.4,5.44Z" fill="#fff" fill-rule="evenodd"/>
        <path id="k" data-name="path5" d="M103.7,142.88l3.54,3.56.13,10.41-2.05,2.9s.85,1.03.85,1.41-.34.49-.47.45c-.13-.03-.55-.11-.71.11-.16.22-1.05,1.16-1.05,1.16,0,0-.25.34.16.69s3.95,3.54,3.95,3.54c0,0,.69.63,1.25-.03.56-.66,3.1-4.08,3.45-4.3.34-.22,3.8-2.22,4.24-2.4v-.37c-.57-.59-.92-1.4-.92-2.29,0-1.83,1.48-3.31,3.31-3.31s3.31,1.48,3.31,3.31c0,.37-.06.72-.17,1.06v.64l.9.15s.16.02.49-.28c.33-.3,1-1.82,2.26-1.66,1.25.16,2.29.83,3.17-.24.88-1.07.78-2.99.78-2.99,0,0-.08-.75.64-1.22.72-.47.71-.25.77-.86.06-.61-.24-.88-.72-1.05-.49-.17-1.94-.88-1.94-.88,0,0-.67-.24-.99-.24s-1-.02-1.08-.94c-.08-.92-.5-3.15-.86-4.09-.36-.94-1.11-1.98-2.62-2.29-1.51-.31-3.01-.47-3.01-.47,0,0-1.1-.31-2.48.88-1.38,1.19-2.71,2.27-2.71,2.27l-6.87-4.66v-1.14s.09-.34-.09-.53c-.18-.19-.43-.33-.43-.33,0,0-.27-.14-.81.45-.53.6-3.2,3.57-3.2,3.57h0Z" fill="#fff" fill-rule="evenodd"/>
        <path id="l" data-name="path6" d="M114.99,111.84l-1.88-1.41v-3.61l-13.04-14.83s-.19-.71.55-1.49c.74-.78,10.63-7.16,13.7-8.73,3.07-1.57,4.2-2.13,4.2-2.13l2.29,1.07s2.85-3.61,3.57-4.01c.72-.41,11.73-6.08,21.64-8.87,9.91-2.79,14.67-2.16,14.67-2.16,0,0,4.48.19,9.75,2.6,5.27,2.41,5.96,3.67,5.96,3.67,0,0,1.02,1,.75,1.51s-.69.71-1.35.33c-.66-.38-4.72-2.52-4.72-2.52h-3.31l-.49.61s-1.82-.08-3.67-.78-3.18-2.07-6.15-1.49c-2.96.58-7.12,1.93-7.12,1.93,0,0,1.05,1.33,2.82,1.25,1.77-.08,4.06-.34,6.11-.34s3.94.5,3.94.5c0,0,.99-1.22,1.44-1.18s.56.88,2.35,1.83c1.79.96,6.82,2.98,8.37,4.09,1.55,1.11,2.62,2.13,2.62,2.13,0,0,.31.2.14.74-.17.53-.09,1-.83,1.24-.74.24-60,27.33-60,27.33l-2.34,2.74ZM122.82,83.51s1.32,2.48,2.41,3.83c1.1,1.35,3.04,3.14,3.04,3.14h.71s-1.91-3.92.44-7.75,14.96-8.67,14.96-8.67l-.05-.33s-12.51,2.81-21.51,9.78h0ZM130.94,95.16s1.18,2.01,1.51,2.48c.33.47.82,1.32,1.52.93.71-.39,1.18-.77,1.18-.77,0,0,.55-.47.14-1.13s-2.12-3.01-2.12-3.01c0,0-.55-1.05-1.11-.63-.56.42-1.19,1.08-1.19,1.08,0,0-.28.34.08,1.05h0Z" fill="#fff" fill-rule="evenodd"/>
        <path id="m" data-name="path7" d="M53.72,256.07l.17.28,3.72-1.77,34.15-23.5v-2.63l-35.65,24.93-2.38,2.7Z" fill="#fff" fill-rule="evenodd"/>
        <path id="n" data-name="path8" d="M89.34,223.93l-7.78,5.71s-4.99-5.3-5.58-7.96c-.6-2.67,2.81-5.72,2.81-5.72h3.7l5.75,2.12s-2.02,4.3,1.1,5.86Z" fill="#fff" fill-rule="evenodd"/>
        <path id="o" data-name="path9" d="M73.27,182.98s-1.32-.05-1.65,5.27c-.33,5.31,1.76,6.11,1.76,6.11,0,0,.66.33,1.36-.22s1.14-.45,1.55-.44c.41.02,1.47.02,1.41-1.71-.06-1.72-.31-3.12-1.51-3.5-1.19-.38-1.96-1.79-2.12-2.34-.16-.55-.22-2.32-.22-2.32,0,0,.08-.82-.6-.86Z" fill="#fff" fill-rule="evenodd"/>
        <path id="p" data-name="path10" d="M82.59,183.92v2.13s.2,1.51.75,2.9.88,2.34.67,3.25c-.2.91-1.11,1.72-2.01,1.82-.89.09-1.21-.22-1.65-.19-.44.03-.77.34-1.32.24-.55-.11-1.11-.82-1.1-2.7.02-1.88,1.58-4.5,1.93-5.14s.94-3.04,2.49-3.12c0,0,.44.03.22.82h0Z" fill="#fff" fill-rule="evenodd"/>
        <path id="q" data-name="path11-2" d="M77.37,194.63l-2.81.49s-1.47.36-1.25,2.41c.22,2.05,2.05,2.99,2.45,3.57s.58,1.18,1.32,1.18,1.05-.38.97-1.18c-.08-.8-.22-3.79-.22-4.52s.33-2.18-.45-1.96Z" fill="#fff" fill-rule="evenodd"/>
        <path id="r" data-name="path12-6" d="M80.75,194.87s-.28-.42-.53-.28c-.25.14-1.27,1.52-.66,3.21.61,1.69,2.96,3.59,2.96,3.59,0,0,.91,1.03,1.72.93.82-.11,1-.77,1-1.05s.22-.58.55-.78c.33-.2.63-.34.53-.86-.09-.52-.45-1.3-.45-1.3,0,0,2.05,3.07,4.15,3.17,2.1.09,1.68-2.9,1.43-3.2-.25-.3-.82-.85-.86-1.05-.05-.2-.16-.99.39-.72.55.27,2.4,1.68,2.4,1.68,0,0,.88.74,1.1,1.83.22,1.1.93,1.87,1.76,1.82.83-.05,1.82-1.72,2.02-3.54.2-1.82-.2-2.88-.2-2.88,0,0-.72-2.05-3.51-1.66-2.79.39-4.81,1.05-5.93,1.05s-1.46-.96-1.46-.96c0,0-.39-.91.18-1,.57-.09,1.9-.09,1.9-.09,0,0,.9.27,1.06-.87.16-1.14-.41-1.98-.24-2.46.17-.49.61-1.05.89-1.05s.31.08.31.27-.2.56.24.78c.44.22.63.25.66.74.03.49,0,2.18,0,2.18,0,0,0,1.11,1.13,1.1,1.13-.02,2.76-1.61,2.76-1.61,0,0,.78-.82.56-1.27-.22-.45-.63-.31-.63-.75s-.05-.82.22-.63c.27.19,1.88,1.02,1.74,2.32-.14,1.3-.3,3.51.78,4.39,1.08.88,1.77.55,1.82.96.05.41.55,2.73,1.54,2.73s1.05-2.19,1.03-2.99c-.02-.8,0-1.57,0-1.57,0,0,.05-.94-1.25-.89s-2.26.34-2.54-.55c-.28-.89.41-1.24.94-1.21s.78.13,1.18-.25,1.03-1.68.64-3.12-.8-2.3-.86-3.14c-.06-.83-.31-2.01-1.44-2.01s-2.07,3.57-2.07,3.57c0,0-1.35-2.12-1.91-2.78s-1.33-1.05-1.58-.99c-.25.06-.38.75-.94,1.83-.56,1.08-1.22,1.51-1.58,1.52-.36.02-.58-.11-.56-.39.02-.28-.56-2.62-.86-3.56-.3-.94-.77-1.76-1.19-1.76s-1.51,2.4-1.8,4.06-.63,3.31-1.36,4.09-1.57,1.6-1.51,2.15c.06.55.77.71.77,1.02s-.5.55-.31,1.16c.19.61.42,1.32-.22,1.69s-2.56,1.1-3.9-.62h0Z" fill="#fff" fill-rule="evenodd"/>
        <path id="s" data-name="path13" d="M85.6,203.14v3.45s.35,2.26,1.43,2.34,1.51-1.15,1.46-2.2-.02-2.18-.02-2.18c0,0-.14-2.34-1.43-2.48-1.29-.14-1.44,1.07-1.44,1.07h0Z" fill="#fff" fill-rule="evenodd"/>
        <path id="t" data-name="path14" d="M91.13,208.75s.5.56,1.23.56,1.4-.83,1.3-1.52c-.1-.69-.09-1.66-1.55-2.07-1.47-.41-2.05-.32-1.97.38.08.7.72,1.03.79,1.23.07.2.08.53-.13.52-.2-.02-.33-.5-.69-.51-.36,0-.42.61-.43.92,0,.31.53,1.11,1.44.49h0Z" fill="#fff" fill-rule="evenodd"/>
        <path id="u" data-name="path15" d="M78.09,204.74v1.47s.11.52,2.35,1.03c2.24.52,3.01.52,3.01.52,0,0,.55-.75.39-1.21-.16-.45-.49-.56-.6-1.02s.28-.91-.52-1.58c-.8-.67-.89-.96-1.32-.63-.42.33-.52.41-.66.3s-.86-1.41-1.18-1.05c-.31.36-1.49,1.74-1.49,2.16Z" fill="#fff" fill-rule="evenodd"/>
        <path id="v" data-name="path16" d="M119.26,131.29h-.85l.36-2.4h.99l-.51,2.4ZM119.13,126.57l1.98-13.03,76.57-35.39v.85c-.39.35-2.03,1.75-5.11,3.46-3.57,1.98-20.41,10.54-20.41,10.54,0,0,1.35,1.35,1.38,1.8.03.45.02,1.08.02,1.08,0,0,1.29.2,1.96.44s1.22.63,1.22.63l1.18-1.47,2.7,2.51-1.13.82s2.05,2.84,1.3,5.66c-.75,2.82-2.98,4.45-2.98,4.45l-.16,1.57,3.1-.96s.61-.25.66.05c.05.3-2.81,3.57-7.2,3.57s-9.22-2.7-9.88-8.56c0,0-.19-1.69.09-3.28.28-1.58,1.1-2.68,1.1-2.68,0,0-3.25-1.25-3.67-1.24-.42.02-39.24,18.16-39.24,18.16l-2.35,11.02h-1.14ZM200.37,76.91l4.33-2,7.12,4.42-.16.31s-6.33-2.07-10.22-1.44c-.4.06-.75.12-1.07.18v-1.47ZM168.89,104.25s.44,4.86,4.67,4.86,5.42-3.76,5.42-5.42-.82-5.17-5.24-5.17-4.12,3.62-4.12,3.62c0,0,.16,2.48,1.72,3.39,1.57.91,2.87.64,2.87.64v.41s-3.62.88-5.33-2.32Z" fill="#fff" fill-rule="evenodd"/>
        <path id="w" data-name="path17" d="M221.26,61.27s3.92,5.33,5.11,7.34c1.19,2.01,3.14,5.52,3.14,5.52,0,0,.5.82,1.29.56.78-.25.85-.88.6-1.76-.25-.88-6.52-10.19-6.96-10.85s-1.07-1.38-1.07-1.38c0,0-.38-.25-1.03-.25s-1.44.38-1.07.82h0Z" fill="#fff" fill-rule="evenodd"/>
        <path id="x" data-name="path18-1" d="M224.14,80.59s2.41,4.52,3.01,6.49c.6,1.98.88,4.3.88,4.3,0,0,.67,1.82.78,2.26s.22,1.18.22,1.18h.55s-.33-5.68-1.65-9.6c-1.32-3.92-3.23-6.15-3.23-6.15l-.56,1.52Z" fill="#fff" fill-rule="evenodd"/>
        <path id="y" data-name="path19" d="M228.6,95.78l1.88,1.76v7.68l-3.54,1.63-.75-.56s2.32-4.39,2.41-10.5Z" fill="#fff" fill-rule="evenodd"/>
        <path id="z" data-name="path20" d="M209.41,116.57l-.19.91,1,.85,14.74-7.15s1.98-1.1,1.79-1.79-1.91-.53-3.04.19-14.3,6.99-14.3,6.99h0Z" fill="#fff" fill-rule="evenodd"/>
        <path id="aa" data-name="path21" d="M222.81,75.7c.43,0,.78.35.78.78s-.35.78-.78.78-.78-.35-.78-.78.35-.78.78-.78h0Z" fill="#fff" fill-rule="evenodd"/>
        <path id="ab" data-name="path22" d="M203.9,127.75c1.66,0,3.01-1.35,3.01-3.01,0-1.24-.75-2.3-1.82-2.76v-1.72l-.03-.61h1.52l-.14-2.09s.6-.08,1.11.17c.52.25.77,1.52.77,1.52l1.72-.27s.05,1.66-.39,2.76c-.44,1.1-1.47,2.85-1.47,2.85,0,0,.39.96.16,2.81-.24,1.85-1.88,6.51-1.88,6.51l-.31-.11s.03-1.25-.25-2.32c-.21-.8-.87-1.62-1.18-1.98-.26.04-.53.07-.81.07-2.67,0-4.83-2.16-4.83-4.83,0-1.5.68-2.83,1.75-3.72l2.12.57v.29c-1.19.4-2.05,1.53-2.05,2.86,0,1.66,1.35,3.01,3.01,3.01h0Z" fill="#fff" fill-rule="evenodd"/>
        <path id="ac" data-name="path23" d="M134.62,140.35c1.61,0,2.92,1.31,2.92,2.92s-1.27,2.88-2.85,2.92v.61c.22.03.43.05.66.05.94,0,1.81-.28,2.53-.75h6.25l28,5.28v-1.72l-28.06-5.36-3.45.06s-.56-.56-.67-1.5h0c.03-.21.04-.43.04-.65,0-2.56-2.08-4.64-4.64-4.64s-4.64,2.08-4.64,4.64c0,1.06.36,2.04.95,2.82l.38-.4c-.21-.4-.33-.86-.33-1.35,0-1.61,1.31-2.92,2.92-2.92h0Z" fill="#fff" fill-rule="evenodd"/>
        <path id="ad" data-name="path24" d="M182.34,148.72c1.56,0,2.82,1.26,2.82,2.82,0,.83-.35,1.57-.92,2.08l1.14.93s.34.08,1.16-.09c.82-.17,1.8-.41,1.8-.41l9.31,2.16,1.22-1.55-9.64-2.09h-.88s.19-1.54-.49-2.3c-.37-.43-.95-.64-1.38-.74-.75-1.54-2.32-2.6-4.15-2.6-2.55,0-4.61,2.06-4.61,4.61,0,.15,0,.29.02.43l1.58.7.35-.19c-.1-.29-.16-.61-.16-.93,0-1.56,1.26-2.82,2.82-2.82h0Z" fill="#fff" fill-rule="evenodd"/>
        <path id="ae" data-name="path25" d="M99.22,156.2v.44l1.76,1.9h1.07l1.93-1.79v-.53l-4.75-.02Z" fill="#fff" fill-rule="evenodd"/>
        <path id="af" data-name="path26" d="M149.31,154.37l.11-.44-13.22-2.68-6.55,13.42v1.65h1.52l6.27-12.93,9.42,1.8c-.06.47-.09.94-.09,1.43,0,6.22,5.04,11.26,11.26,11.26,5.17,0,9.52-3.48,10.85-8.23l2.25.38v-1.91l-4.08-.82-.12.67c-.65,4.33-4.39,7.65-8.9,7.65-4.97,0-9-4.03-9-9,0-.78.1-1.53.28-2.25h0ZM132.75,168.09l1.49,2.29.52,2.63-.88,1.03s-1.05-2.38-1.63-3.17c-.58-.78-1-1.05-1-1.05l1.51-1.74Z" fill="#fff" fill-rule="evenodd"/>
        <path id="ag" data-name="path27" d="M189.81,156.99v1.14l.74.44,3.23-1.16v-.42l-2.6-.75-1.36.75Z" fill="#fff" fill-rule="evenodd"/>
        <path id="ah" data-name="path28" d="M123.54,164.32h-4.77s-.82.16-.82-.56,1.54-2.29,2.73-2.51c1.19-.22,5.49-1.19,5.49-1.19,0,0,.94-.34,1.1,0,.16.34-.82,2.1-1.03,2.48-.22.38-.91,1.87-.91,1.87,0,0-.08.42-.28.45-.2.03-.8.13-1.02-.08-.22-.2-.49-.45-.49-.45Z" fill="#fff" fill-rule="evenodd"/>
        <path id="ai" data-name="path29" d="M147.98,209.79l1.66,1.54c.39.36.42.98.05,1.37-.36.39-.98.42-1.37.05l-1.66-1.54c-.39-.36-.42-.98-.05-1.37.36-.39.98-.42,1.37-.05h0ZM113.82,174.66l2.1,1.88c.4.36.43.97.08,1.37-.36.4-.97.43-1.37.08l-2.1-1.88c-.4-.36-.43-.97-.08-1.37.36-.4.97-.43,1.37-.08ZM147.54,171l-3.45,3.23c-.39.36-1,.34-1.37-.04-.36-.39-.34-1,.04-1.37l3.45-3.23c.39-.36,1-.34,1.37.04.36.39.34,1-.04,1.37h0ZM164.08,172.49l2.26,4.45c.24.48.05,1.06-.43,1.3-.48.24-1.06.05-1.3-.43l-2.26-4.45c-.24-.48-.05-1.06.43-1.3.48-.24,1.06-.05,1.3.43ZM183.7,192.41l-1.51,1.44c-.38.37-1,.36-1.37-.03-.37-.38-.36-1,.03-1.37l1.51-1.44c.38-.37,1-.36,1.37.03.37.38.36,1-.03,1.37ZM205.62,245.61l1.32,1.16c.4.35.44.97.09,1.36-.35.4-.97.44-1.36.09l-1.32-1.16c-.4-.35-.44-.97-.09-1.36.35-.4.97-.44,1.36-.09Z" fill="#fff" fill-rule="evenodd"/>
        <path id="aj" data-name="path30" d="M116.93,197.17c.9,0,1.63.73,1.63,1.63h0c0,.9-.73,1.63-1.63,1.63s-1.63-.73-1.63-1.63.73-1.63,1.63-1.63Z" fill="#fff" fill-rule="evenodd"/>
        <path id="ak" data-name="path31" d="M123.14,215.51c.74,0,1.35.6,1.35,1.35s-.6,1.35-1.35,1.35c-.74,0-1.35-.6-1.35-1.35,0-.74.6-1.35,1.35-1.35h0Z" fill="#fff" fill-rule="evenodd"/>
        <path id="al" data-name="path32" d="M172.59,194.42l.25,1.35-3.21.89-.24-1.4,3.2-.85Z" fill="#fff" fill-rule="evenodd"/>
        <path id="am" data-name="path33" d="M137.83,198.11s.16,2.27-1.35,2.51c-1.51.24-1.85-.16-1.79-.38s.34-.39.63-.39,1.02.03,1.38-.78c.36-.82.42-1.4.71-1.4s.36.17.42.44Z" fill="#fff" fill-rule="evenodd"/>
        <path id="an" data-name="path34" d="M222.02,203.05s.63.64.58.08c-.05-.56-.56-1.87-.56-3.21s.34-2.41,2.23-2.41,3.89,3.29,3.89,3.29c0,0,1.57,2.32,1.38,4.39-.19,2.07-.6,2.67-.6,2.67,0,0-.27.58.28.58s2.81-1.61,2.81-4.06-2.29-10.07-8.34-10.63c0,0-3.23.16-3.23,4.92,0,0,0,3.07,1.57,4.39h0Z" fill="#fff" fill-rule="evenodd"/>
        <path id="ao" data-name="path35" d="M227.75,209.93s1.25.34,2.43-.83c1.18-1.18,1.21-2.04,1.21-2.04,0,0,.14-.38.49-.36.34.02.28,3.12-.71,4.11-.99.99-2.49.56-3.12.17-.63-.39-1.46-1.33-.3-1.05h0Z" fill="#fff" fill-rule="evenodd"/>
        <path id="ap" data-name="path36" d="M170.65,232.12c3.38-3.8,5.47-8.78,5.54-14.26h0s.46-.87.49-2.36c.03-1.49-.3-3.48-.25-3.67.05-.19.2-.08.5.66.29.71.67,4.11.69,4.35,0,.23.01.47.01.7,0,5.99-2.25,11.44-5.95,15.58l-1.04-1Z" fill="#fff" fill-rule="evenodd"/>
        <path id="aq" data-name="path37" d="M183.41,223.96c-4.35,3.32-7.15,8.55-7.15,14.44,0,6.65,3.58,12.47,8.92,15.63l.35-.52c-4.52-3.29-7.51-8.93-7.51-15.33,0-5.55,2.24-10.53,5.79-13.9l-.39-.33Z" fill="#fff" fill-rule="evenodd"/>
        <path id="ar" data-name="path38" d="M102.49,22.67l8.96-3.58.45,1.12-8.96,3.58-.45-1.12ZM113.03,18.47l2.74-1.09.45,1.12-2.74,1.09-.45-1.12ZM117.02,16.88l5.19-2.07.45,1.12-5.19,2.07-.45-1.12ZM101.7,20.69l4.62-1.84.45,1.12-4.62,1.84-.45-1.12ZM108.13,18.13l6.58-2.63.45,1.12-6.58,2.63-.45-1.12ZM100.16,16.83l15.22-6.07.99,2.48-15.22,6.07-.99-2.48Z" fill="#fff" fill-rule="evenodd"/>
        <path id="as" data-name="path39" d="M110.81,225.08l4.27-2.96.37.53-4.27,2.96-.37-.53ZM115.83,221.6l1.3-.91.37.53-1.3.91-.37-.53ZM117.73,220.28l2.47-1.72.37.53-2.47,1.72-.37-.53ZM110.15,224.14l2.2-1.53.37.53-2.2,1.53-.37-.53ZM113.22,222.01l3.13-2.18.37.53-3.13,2.18-.37-.53ZM108.88,222.3l7.25-5.03.82,1.18-7.25,5.03-.82-1.18Z" fill="#fff" fill-rule="evenodd"/>
      </g>
    </g>
  </g>
</svg>