<?xml version="1.0" encoding="UTF-8"?>
<svg id="b" data-name="Layer 2" xmlns="http://www.w3.org/2000/svg" viewBox="0 0 320 47.34">
  <g id="c" data-name="Layer 1">
    <g>
      <path d="M199.96.09c1.43-.41,3.31.65,3.67,2.13-.18,1.16-2.05,2.03-2.79.85-.59-.85-1.26-1.92-.89-2.98ZM217.08,1.35c1.37-.15,3.31,1.51,2.44,2.9-1.72,1.37-3.08-1.49-2.44-2.9ZM204.47,4.17c2.08-.87,4.58-.18,6.17,1.36,2.44,2.3,3.3,5.8,3.26,9.06-.11,1.74-.7,3.72-2.26,4.7-1.61.8-3.46.1-4.85-.83-3.02-2.1-5.46-5.45-5.5-9.24-.06-2.12,1.18-4.25,3.18-5.05ZM219.3,6.2c1.59-.69,3.44-.15,4.78.85,1.96,1.47,3.27,3.61,4.44,5.71,1.03,1.94,1.82,4.26,1.16,6.45-.44,1.48-2.24,1.79-3.56,1.59-2.85-.34-6.26-1.07-7.59-3.94-.79-2.26-.97-4.7-.94-7.08.03-1.34.39-2.95,1.72-3.58h0ZM187.65,13.44c1.4-.31,3.36.28,4.09,1.59-.37,3.16-4.77.61-4.09-1.59ZM194.33,14.83c4.68-1.55,9.73,1.98,11.42,6.3.86,2.02.75,5.1-1.55,6.09-2.4.8-4.99.18-7.35-.51-2.49-.76-4.96-2.56-5.52-5.23-.45-2.51.38-5.7,3-6.65ZM211.98,21.85c4.41-.71,8.69,1.36,12.42,3.51,3.43,2.14,7.28,5.05,7.61,9.43.33,4.19-4.02,7.7-8.05,6.79-1.41-.15-3.06-.84-4.33.08-1.47,1.43-1.77,3.89-3.75,4.83-3.16,1.85-7.67.56-9.34-2.7-1.3-2.6-1.01-5.62-.67-8.41.5-3.03.87-6.12,1.83-9.05.67-2.02,2.06-4.07,4.28-4.49h0ZM192.24,28.23c3.36-.82,7.05,0,10.02,1.68,2.83,1.51,2.61,6.1-.19,7.52-2.85,1.38-6.32,1.88-9.37.88-2.7-.85-4.34-3.93-3.75-6.66.35-1.64,1.71-2.94,3.3-3.42ZM184.04,32.26c1.23-.76,4-1.08,3.91,1.03-.5,1.9-3.71.45-3.91-1.03Z" fill="#ed392c"/>
      <path d="M0,5.44c67.06-.02,134.12.04,201.17-.03-.59.66-.86,1.49-1.14,2.32-65.92.03-131.84,0-197.76.02.02,10.52-.05,21.05.04,31.57,63.05-.02,126.09,0,189.13,0,1.23.36,2.45.85,3.77.84,3.07.28,5.92-1.24,8.99-.86.06.77.17,1.53.26,2.29-68.15.04-136.3.02-204.45.01V5.44ZM212.51,5.64c1.47-.41,3.03-.1,4.54-.19l.64.21c-2.26,2.83-1.43,6.75-.91,10.04.43,3.11,3.25,5.28,6.18,5.89,2.18.46,4.73,1.16,6.73-.22,2.22-1.76,1.73-5.05.84-7.39-1.39-3.2-3.27-6.39-6.24-8.35,1.32-.26,2.66-.17,3.99-.18,30.57,0,61.14.01,91.71,0v36.18c-29.16,0-58.31,0-87.48,0l-1.2.09c-.14-.2-.42-.61-.56-.81,1.26-1.1,2.12-2.63,2.43-4.29,6.34.13,12.74.6,19.03-.46,3.57-.59,6.05-4.15,5.91-7.67.07-3.58.16-7.17-.09-10.74-.21-3.16-2.69-6.06-5.84-6.58-6.4-1.03-12.92-.67-19.37-.36-.01,7.09-.02,14.18.01,21.27-1.44-3.09-4.02-5.45-6.86-7.25-4.05-2.54-8.68-4.77-13.58-4.46,1.91-1.24,2.73-3.63,2.84-5.81.02-3.14-.71-6.44-2.75-8.91M268.54,10.74c-3.32.67-7,2.78-7.54,6.43-.46,3.38-.21,6.8-.24,10.2-.02,2.49.49,5.32,2.68,6.84,3.87,3.24,9.23,2.75,13.93,2.54,3.75-.38,8.15-2.52,8.82-6.61.45-3.21.23-6.47.26-9.7.01-2.55-.28-5.51-2.47-7.18-4.25-3.62-10.28-3.01-15.43-2.52M291.1,13.43c-1.87,1.81-2.12,4.55-2.1,7.02.06,3.04-.14,6.1.15,9.13.33,3.71,3.66,6.73,7.31,7.08,3.55.32,7.15.31,10.7.02,3-.28,5.74-2.29,6.93-5.05,1.05-3.24.49-6.73.63-10.07-4.5,0-8.99,0-13.48,0-.01,1.78-.02,3.55,0,5.32,1.88.02,3.77-.02,5.65.02.13,1.99-1.31,3.94-3.38,4.04-1.93-.03-4.24.43-5.73-1.13-1.4-1.74-.84-4.12-.95-6.17.12-2.04-.44-4.41.97-6.13,1.33-1.43,3.41-1.14,5.18-1.15,1.71-.07,3.37,1.04,3.78,2.74,2.63,0,5.27,0,7.91,0,.23-4.02-2.93-7.75-6.87-8.35-3.2-.47-6.45-.3-9.67-.24-2.59.05-5.34.86-7.02,2.95h0Z"/>
      <path d="M6.11,10.45c4.13,0,8.27-.02,12.41,0,2.37,5.45,4.6,10.95,7.03,16.37-.02-5.46-.03-10.92,0-16.38,2.68,0,5.35,0,8.03,0,.04,8.72.01,17.45.01,26.17-4.13,0-8.26,0-12.38,0-2.32-5.36-4.59-10.75-6.89-16.12l-.18.09c.05,5.34.02,10.69.02,16.03-2.68.01-5.36,0-8.04,0-.05-8.72-.02-17.45-.02-26.17ZM42.84,10.46c4.04-.03,8.08-.01,12.12,0,2.59,8.71,5.14,17.43,7.7,26.15-2.69,0-5.39.02-8.07,0-.46-1.4-.75-2.86-1.3-4.22-2.93.02-5.87-.01-8.81.01-.43,1.4-.81,2.82-1.25,4.22-2.69.02-5.38.01-8.06,0,2.55-8.72,5.11-17.43,7.68-26.15M48.85,17.29c-.77,3-1.73,5.96-2.58,8.95,1.75,0,3.5.02,5.25-.01-.9-2.98-1.7-5.99-2.68-8.94ZM62.95,10.44c2.68.01,5.36,0,8.04,0,.06,5.97-.07,11.94.07,17.91,0,1.4,1.05,2.65,2.47,2.74,1.48.02,3.1.31,4.48-.38,1.21-.61,1.32-2.1,1.34-3.3.06-5.65-.06-11.32.06-16.97,2.67,0,5.34-.01,8.02,0-.03,6.35.11,12.71-.1,19.06-.03,2.81-1.65,5.51-4.14,6.82-3,1.35-6.38.85-9.58.95-2.94.03-6.39-.07-8.45-2.52-1.69-1.62-2.19-4.03-2.19-6.29-.08-6.01-.04-12.02-.03-18.03h0ZM90.27,15.75c1.17-2.95,4.1-5.07,7.27-5.31,3.73-.25,7.51-.37,11.22.14,4.06.63,7.21,4.54,6.93,8.66-2.75.02-5.49,0-8.24.01-.34-1.61-1.83-2.78-3.48-2.74-1.7.04-3.67-.31-5.05.94-1.56,1.66-.97,4.13-1.09,6.19.11,1.97-.4,4.2.84,5.91,1.43,1.66,3.88,1.24,5.84,1.19,1.84-.17,3.09-1.89,3.08-3.67-1.88-.05-3.75-.02-5.63-.02-.06-1.89-.02-3.78-.02-5.67,4.6-.01,9.19-.01,13.79,0-.04,2.73.12,5.48-.14,8.21-.3,3.72-3.61,6.77-7.24,7.2-3.59.38-7.23.32-10.83.06-3.17-.24-6.07-2.36-7.25-5.3-.81-2.55-.53-5.27-.6-7.91.07-2.63-.21-5.34.6-7.89h0ZM134.07,10.69c2.64,0,5.28-.02,7.92,0,0,8.55.01,17.1,0,25.65-2.64.01-5.29.02-7.93,0-.02-2.98,0-5.97,0-8.95-2.73-.01-5.46,0-8.19,0-.02,2.99.01,5.97-.01,8.96-2.63,0-5.26.01-7.89,0-.02-8.55,0-17.1,0-25.66,2.63-.02,5.26,0,7.89,0,.03,3.56-.03,7.11.03,10.67,2.73-.06,5.47.08,8.19-.07-.03-3.53-.02-7.07,0-10.6h0ZM144.19,16.69c.05-2.01-.05-4.02.05-6.02,7.21.02,14.42,0,21.63.01.01,2.01,0,4.02,0,6.03-2.29.02-4.57,0-6.86.01-.01,6.55,0,13.1-.01,19.66-2.64.01-5.28.01-7.92,0-.02-6.55,0-13.1-.01-19.66-2.29-.03-4.59.04-6.87-.03ZM167.69,10.68c2.63,0,5.27,0,7.91,0,1.48,2.91,2.98,5.8,4.39,8.74,1.75-2.76,2.97-5.88,4.6-8.74,2.63,0,5.26,0,7.9,0-.36.73-.74,1.45-1.1,2.17-1.24-.53-2.64-1.21-4.01-.74-.96.33-1.33,1.5-1.08,2.41.33,1.41,1.48,2.41,2.67,3.13-1.65,3.25-3.29,6.49-4.93,9.74-.05,1.09.01,2.18-.02,3.27-1.44.61-1.75,2.56-.43,3.5.81.45.31,1.49.43,2.22-2.63,0-5.26.01-7.89,0-.02-3,.01-5.99-.02-8.99-2.79-5.58-5.64-11.13-8.43-16.71h0ZM240.46,16.31c2.64.11,5.39-.24,7.96.52,2.6,1.13,2.1,4.47,2.22,6.78-.11,2.33.38,5.72-2.23,6.85-2.55.75-5.27.42-7.9.51-.15-4.86-.06-9.79-.05-14.67h0ZM270.95,16.73c2.23-.23,5.25-.86,6.86,1.14,1.19,2.45.5,5.3.68,7.92.17,1.97-.39,4.62-2.75,4.91-2.02.1-4.45.55-6.11-.91-1.51-2.09-.75-4.84-.94-7.23-.04-2.07-.22-5.09,2.26-5.83h0Z"/>
    </g>
  </g>
</svg>