<?xml version="1.0" encoding="UTF-8"?>
<svg id="b" data-name="Layer 2" xmlns="http://www.w3.org/2000/svg" viewBox="0 0 232.53 320">
  <g id="c" data-name="Layer 1">
    <g>
      <g>
        <polygon points="88.2 244.51 88.2 229.22 72.91 244.51 88.2 244.51" fill="#898fb9"/>
        <polygon points="59.78 244.51 88.2 216.09 88.2 200.8 44.49 244.51 59.78 244.51" fill="#898fb9"/>
        <polygon points="22.93 244.51 30.77 244.51 88.2 187.08 97.54 187.34 97.54 188.63 96.89 188.63 96.89 244.51 107.62 244.51 107.62 187.07 103.49 187.07 88.2 171.78 22.93 237.01 22.93 244.51" fill="#898fb9"/>
        <polygon points="22.93 110.01 38.96 93.98 22.93 77.94 22.93 110.01" fill="#898fb9"/>
        <polygon points="22.93 123.12 22.93 138.75 67.5 94.18 22.93 49.62 22.93 64.89 52.06 94.01 22.93 123.12" fill="#898fb9"/>
        <path d="M117.26,186.24c-.64.02-1.29.04-1.93.05l-27.14-27.14L22.83,224.51v-15.56l65.36-65.36,41.51,41.51c-.65.1-1.19.16-1.85.25v59.16h-10.66l.06-58.27h0Z" fill="#898fb9"/>
        <path d="M141.15,182.65c-1.18.32-2.62.66-3.82.95v60.91h11.21v-64.25c1.47-.53,2.57-.95,4-1.54l-64.35-64.34L22.84,179.74v15.36l65.36-65.36,52.96,52.91h0Z" fill="#898fb9"/>
        <path d="M161.42,174.57c-1.09.58-2.62,1.33-3.74,1.86v68.08h10.86v-74.17c.83-.53,1.53-.98,2.34-1.53l-74.9-74.9L170.87,18.97c-3.11-2.12-6.36-4.07-9.74-5.84l-73.08,73.12L22.93,21.13v15.41l57.5,57.5-57.4,57.4v15.06l65.16-65.16,73.23,73.23h0Z" fill="#898fb9"/>
        <path d="M114.85,2.06c4.81.04,9.53.42,14.15,1.1l-40.85,40.85L44.14,0h15.4l28.75,28.75L114.85,2.06h0Z" fill="#898fb9"/>
        <path d="M140.29,5.49c3.89,1.04,7.67,2.3,11.35,3.77l-63.53,63.53L22.93,7.62V.05h7.86l57.45,57.45L140.29,5.49h0Z" fill="#898fb9"/>
        <path d="M88.2,15.25L72.9.01h14.05s10.51.19,15.45.89l-14.2,14.35h0Z" fill="#898fb9"/>
        <path d="M124.08,94.01l61.93,61.93c.91-.95,1.81-1.92,2.68-2.91v91.47h-10.7v-82.06l-68.53-68.53L179.1,24.35c2.77,2.3,5.19,4.6,7.67,7.18l-62.69,62.48h0Z" fill="#898fb9"/>
        <path d="M206.16,69.11l-24.8,24.8,24.03,24.03c1.05-3.69,1.53-7.88,2.1-11.74l-12.48-12.53,13.34-13.34v163.91h-10.51v-104.2c-1.91,3.12-3.32,5.19-5.59,8.06l-54.38-54.43,54.73-54.73c2.23,2.86,4.48,6.21,6.35,9.3l-45.79,45.78,44.24,44.24c1.65-2.87,3.14-5.79,4.47-8.84l-35.33-35.33,36.41-36.16c1.23,3.41,2.37,7.63,3.2,11.16h0Z" fill="#898fb9"/>
      </g>
      <g>
        <path d="M36.36,269.5c-8.61,0-15.58,6.58-15.58,14.7s6.98,14.7,15.58,14.7,15.58-6.58,15.58-14.7-6.98-14.7-15.58-14.7ZM36.36,296.15c-4.82,0-8.73-5.35-8.73-11.96s3.91-11.96,8.73-11.96,8.72,5.35,8.72,11.96-3.91,11.96-8.72,11.96Z"/>
        <polygon points="61.85 294.93 70.81 294.93 70.81 298.06 55.37 298.06 55.37 269.99 61.88 269.99 61.85 294.93"/>
        <path d="M10.34,269.99H0v28.08h6.47v-11.9h3.91c4.72-.02,8.54-3.63,8.54-8.09s-3.86-8.07-8.58-8.09ZM7.74,283.51h-1.27v-10.69h1.32c2.71,0,4.85,2.39,4.85,5.34,0,2.95-2.2,5.35-4.91,5.35Z"/>
        <polygon points="85 285.53 84.96 298.06 78.55 298.06 78.55 285.43 70.14 269.99 76.64 269.99 83.19 282.17 89.81 269.99 93.46 269.99 85 285.53"/>
        <path d="M107.36,269.99h-10.34v28.08h6.47v-11.9h3.91c4.72-.02,8.54-3.63,8.54-8.09s-3.86-8.07-8.58-8.09ZM104.76,283.51h-1.27v-10.69h1.32c2.71,0,4.85,2.39,4.85,5.34,0,2.95-2.19,5.35-4.9,5.35Z"/>
        <path d="M162.89,269.5c-8.61,0-15.58,6.58-15.58,14.7s6.97,14.7,15.58,14.7,15.59-6.58,15.59-14.7c0-8.12-6.98-14.7-15.59-14.7ZM162.89,296.15c-4.82,0-8.72-5.35-8.72-11.96s3.91-11.96,8.72-11.96,8.73,5.35,8.73,11.96c0,6.61-3.91,11.96-8.73,11.96Z"/>
        <polygon points="224.06 285.53 224.02 298.06 217.61 298.06 217.61 285.43 209.2 269.99 215.71 269.99 222.26 282.17 228.87 269.99 232.53 269.99 224.06 285.53"/>
        <polygon points="125.73 284.26 125.72 298.06 119.24 298.06 119.24 269.99 125.75 269.99 125.74 281.03 137.47 281.04 137.47 269.99 143.97 269.99 143.94 298.06 137.47 298.06 137.47 284.26 125.73 284.26"/>
        <polygon points="185.42 279.7 185.42 298.06 182.18 298.06 182.18 269.99 185.79 269.99 203.42 288.36 203.42 269.99 206.66 269.99 206.66 298.06 203.05 298.06 185.42 279.7"/>
      </g>
      <g>
        <polygon points="40.45 305.15 44.56 305.15 44.56 319.8 40.45 319.8 40.45 305.15"/>
        <polygon points="113.82 305.15 117.94 305.15 117.94 319.8 113.82 319.8 113.82 305.15"/>
        <path d="M5.88,305.15H0v14.65h5.76c4.26-.02,7.78-3.25,7.78-7.28s-3.37-7.35-7.67-7.37ZM4.86,317.57h-1.12l-.05-10.2h1.25c2.76.01,4.92,2.33,4.92,5.13s-2.26,5.05-5,5.06Z"/>
        <polygon points="223.62 317.72 228.97 317.72 228.97 320 219.76 320 219.76 305.15 223.63 305.15 223.62 317.72"/>
        <path d="M85.45,306.16c-1.36-.64-2.88-1-4.5-1-4.86,0-8.8,3.28-8.8,7.32s3.94,7.32,8.8,7.32c1.62,0,3.19-.36,4.5-1v-5.8h-2.93v5.15c-.37.09-.65.15-1.04.15-2.8,0-5.08-2.5-5.08-5.57s2.27-5.57,5.08-5.57c1.55,0,2.99.76,3.97,1.97v-2.97h0Z"/>
        <polygon points="152.91 307.69 152.91 319.8 148.79 319.8 148.79 307.69 145.44 307.69 145.44 305.15 156.26 305.15 156.26 307.69 152.91 307.69"/>
        <path d="M187.95,305.15h-1.72l-5.86,14.65h2.43l1.52-4.03h3.84l1.41,4.03h4.25l-5.86-14.65ZM184.87,313.99l1.38-3.89,1.31,3.92-2.68-.03Z"/>
      </g>
    </g>
  </g>
</svg>