<?xml version="1.0" encoding="UTF-8"?>
<svg id="b" data-name="Layer 2" xmlns="http://www.w3.org/2000/svg" viewBox="0 0 282.32 320">
  <g id="c" data-name="Layer 1">
    <g>
      <g>
        <path d="M143.72,95.49h31.83c26.1,0,47.27-21.16,47.27-47.27h0V0h-31.83" fill="#cec4a5"/>
        <path d="M79.1,0h-31.83C21.16,0,0,21.16,0,47.27h0v48.22h31.83" fill="#41201f"/>
        <path d="M111.88,95.49h31.83c26.1,0,47.27-21.16,47.27-47.27h0V0h-31.83" fill="#ee2937"/>
        <path d="M110.93,0h-31.83C52.99,0,31.83,21.16,31.83,47.27h0v48.22h31.83" fill="#802729"/>
        <path d="M63.66,47.27v48.22h48.22c26.1,0,47.27-21.16,47.27-47.27h0V0h-48.22c-26.1,0-47.27,21.15-47.27,47.26,0,0,0,0,0,0Z" fill="#b22029"/>
      </g>
      <g>
        <path d="M19.92,167c-4.98,0-8.09-2.96-8.25-7.47H0c.31,10.58,9.18,18.68,19.61,18.37h.16c10.74,0,19.3-8.56,19.45-19.3,0-8.72-4.82-14.32-15.72-18.05-8.25-2.8-10.12-4.36-10.12-8.25v-.93c.31-3.11,3.11-5.45,6.23-5.14h.31c3.42,0,6.23,2.65,6.23,6.07h11.52c-.16-9.49-8.09-17.12-17.74-16.96-9.49-.16-17.43,7.47-17.74,16.96,0,4.51,1.87,8.87,5.14,12.14,2.49,2.49,3.89,3.11,12.61,6.38,5.91,2.18,8.09,4.36,8.09,8.87s-3.11,7.31-8.09,7.31Z" fill="#232221"/>
        <path d="M65.37,178.21c4.36,0,8.72-1.4,12.14-4.05.93-.62,1.87-1.25,2.8-1.87v4.67h10.89v-45.13l-9.96-.16h-.93v4.67c-3.74-3.89-8.87-6.07-14.32-6.23-12.76,0-22.57,10.27-22.57,23.81-.16,14.01,9.18,24.28,21.94,24.28h0ZM67.55,140.7c7.16-.16,13.07,5.6,13.23,12.76v.78c0,7.94-5.6,13.7-13.23,13.7s-13.54-6.07-13.54-13.54,6.07-13.7,13.54-13.7Z" fill="#232221"/>
        <path d="M110.19,155.33c0-5.91.47-8.4,1.87-10.58,1.71-2.49,4.51-4.05,7.63-4.05,6.23,0,9.18,4.51,9.18,13.85v22.26h10.89v-24.43c0-7.78-1.09-11.98-3.89-15.56-3.42-4.2-8.56-6.69-14.01-6.69-4.36,0-8.4,1.56-11.52,4.67v-3.11h-10.89v45.13h10.89v-21.48h-.16Z" fill="#232221"/>
        <path d="M165.91,176.81v-9.96c-5.45.31-8.09-1.87-8.09-7.78v-17.74h8.72v-9.65h-8.72v-15.1h-10.89v42.49c0,11.67,6.54,19.14,18.99,17.74Z" fill="#232221"/>
        <path d="M193.46,178.21c4.36,0,8.72-1.4,12.14-4.05.93-.62,1.87-1.25,2.8-2.02v4.67h10.89v-45.13h-10.89v4.67c-3.74-3.89-8.87-6.07-14.32-6.23-12.76,0-22.57,10.27-22.57,23.81s9.34,24.28,21.94,24.28h0ZM195.79,140.7c7.16-.16,13.07,5.6,13.23,12.76v.78c0,7.94-5.6,13.7-13.23,13.7s-13.54-6.07-13.54-13.54,6.07-13.7,13.54-13.7Z" fill="#232221"/>
      </g>
      <g>
        <path d="M54.01,211.52l4.36,36.26h11.21l-9.18-60.23h-11.83l-13.85,41.55-13.7-41.55h-11.83L0,247.93h11.21l4.36-36.42c.47-2.96.62-5.91.78-9.03l14.79,45.45h7.31l14.79-45.29c.16,2.96.47,6.07.78,8.87h0Z" fill="#232221"/>
        <path d="M71.9,225.06c-.16,13.23,10.58,24.12,23.97,24.28,13.23.16,24.12-10.58,24.28-23.97v-.31c.16-13.23-10.58-23.97-23.66-23.97h-.31c-13.38,0-24.28,10.74-24.28,23.97h0ZM82.8,225.21c0-7.31,6.07-13.23,13.38-13.07,7.31.16,13.23,6.07,13.07,13.38.16,7.31-5.6,13.23-12.76,13.38h-.31c-7.31,0-13.23-5.76-13.38-13.07v-.62h0Z" fill="#232221"/>
        <path d="M166.37,247.93v-24.43c-.16-7.78-1.25-11.83-4.05-15.56-3.42-4.2-8.56-6.69-14.01-6.69-4.36,0-8.4,1.56-11.52,4.67v-3.11h-10.74v45.13h10.89v-21.63c0-5.91.47-8.4,1.87-10.58,1.71-2.49,4.51-4.05,7.47-4.05,6.23,0,9.18,4.51,9.18,13.85v22.26h10.89v.16Z" fill="#232221"/>
        <path d="M174.47,202.64h10.89v45.13h-10.89v-45.13Z" fill="#232221"/>
        <path d="M216.18,238.75c-7.16.31-13.23-5.45-13.54-12.61v-.93c0-7.78,5.45-13.54,12.92-13.54,3.58-.16,7.16,1.56,9.34,4.36l7.78-7.78c-4.51-4.67-10.58-7.16-16.96-7-13.23.31-23.81,11.36-23.35,24.75.31,12.76,10.74,23.19,23.5,23.35,6.38.16,12.61-2.49,16.96-7l-7.78-7.78c-2.33,2.65-5.6,4.2-8.87,4.2h0Z" fill="#232221"/>
        <path d="M272.52,202.64h-.93v4.67c-3.74-3.89-8.87-6.07-14.32-6.23-12.76,0-22.57,10.27-22.57,23.81s9.34,24.28,21.94,24.28c4.36,0,8.72-1.4,12.14-4.05.93-.62,1.87-1.25,2.65-2.02v4.67h10.89v-45.13h-9.81ZM272.36,225.21c0,7.78-5.6,13.7-13.23,13.7s-13.54-6.07-13.54-13.54,6.07-13.54,13.54-13.54c7.16-.16,13.07,5.45,13.23,12.61v.78Z" fill="#232221"/>
      </g>
      <g>
        <path d="M31.13,289.33c-2.8-2.18-4.05-2.65-11.21-4.82-9.03-2.49-11.83-5.14-11.83-10.74v-.16c0-5.76,4.67-10.27,10.43-10.27,6.07,0,10.43,4.2,10.89,10.58h6.38v-.47c-.31-9.03-7.78-16.03-16.81-15.87-9.65,0-16.96,6.85-16.96,16.03-.16,4.05,1.4,7.94,4.36,10.74,2.49,2.49,5.14,3.74,11.36,5.29,9.49,2.33,13.54,6.23,13.54,12.61-.16,6.69-5.6,11.98-12.3,11.98s-11.52-4.51-12.3-12.14H0c.47,10.74,7.94,17.9,18.68,17.9,9.96.16,18.21-7.63,18.37-17.59,0-4.98-2.18-9.81-5.91-13.07h0Z" fill="#232221"/>
        <path d="M100.39,298.98c0,9.34-5.45,15.41-13.7,15.41s-13.7-5.76-13.7-15.41v-24.59h-5.91v24.59c0,6.23,1.09,10.58,3.74,14.01,3.58,4.51,9.18,7.16,15.1,7,7,0,11.98-2.65,14.79-7.94v6.85h5.76v-44.67h-6.07v24.75Z" fill="#232221"/>
        <path d="M151.43,281.4c-4.2-5.29-10.58-8.25-17.28-8.09-12.92,0-23.35,10.43-23.35,23.19s10.43,23.35,23.35,23.5c7.63,0,12.61-2.49,17.9-9.18v8.09h5.6v-60.23h-6.07v22.72h-.16ZM134,314.23c-9.65-.16-17.43-8.09-17.28-17.9,0-9.49,7.63-17.28,17.12-17.43,9.81-.16,17.74,7.78,17.9,17.43-.16,9.96-7.94,17.74-17.74,17.9Z" fill="#232221"/>
        <path d="M163.42,258.67h5.91v10.12h-5.91v-10.12Z" fill="#232221"/>
        <path d="M163.42,274.39h5.91v44.67h-5.91v-44.67Z" fill="#232221"/>
        <path d="M197.19,273.3c-12.92,0-23.35,10.43-23.35,23.35s10.43,23.35,23.35,23.35,23.35-10.43,23.35-23.35-10.43-23.35-23.35-23.35ZM214.47,296.34c.16,10.12-7.47,17.9-17.12,17.9s-17.28-7.78-17.28-17.28c-.47-9.49,7-17.59,16.5-17.9,9.49-.47,17.59,7,17.9,16.5v.78Z" fill="#232221"/>
        <path d="M47.94,258.83h-5.91v42.49c0,11.67,6.54,19.14,18.99,17.74v-5.45c-5.45.31-13.07-1.09-13.07-12.3v-21.63h13.54v-5.45h-13.7v-15.41h.16Z" fill="#232221"/>
        <path d="M185.36,192.68v-5.45h-5.45c-2.96,0-5.29,2.33-5.45,5.45v5.45h5.45c2.96-.16,5.45-2.49,5.45-5.45Z" fill="#232221"/>
      </g>
    </g>
  </g>
</svg>