<?xml version="1.0" encoding="UTF-8"?>
<svg id="b" data-name="Layer 2" xmlns="http://www.w3.org/2000/svg" xmlns:xlink="http://www.w3.org/1999/xlink" viewBox="0 0 230.27 320">
  <defs>
    <linearGradient id="d" x1="523.59" y1="-282.29" x2="549.97" y2="-282.29" gradientTransform="translate(-4570.93 2619.81) scale(8.73)" gradientUnits="userSpaceOnUse">
      <stop offset="0" stop-color="#e7380d"/>
      <stop offset=".02" stop-color="#e7380d"/>
      <stop offset=".08" stop-color="#e8410c"/>
      <stop offset=".17" stop-color="#ec590a"/>
      <stop offset=".28" stop-color="#f18107"/>
      <stop offset=".41" stop-color="#f9b703"/>
      <stop offset=".5" stop-color="#ffe100"/>
      <stop offset=".59" stop-color="#f9b703"/>
      <stop offset=".72" stop-color="#f18107"/>
      <stop offset=".83" stop-color="#ec590a"/>
      <stop offset=".92" stop-color="#e8410c"/>
      <stop offset=".98" stop-color="#e7380d"/>
      <stop offset="1" stop-color="#e7380d"/>
    </linearGradient>
    <linearGradient id="f" x1="539.29" y1="-286.71" x2="532.25" y2="-286.71" gradientTransform="translate(-4570.93 2618.08) scale(8.73)" gradientUnits="userSpaceOnUse">
      <stop offset=".2" stop-color="#fd0"/>
      <stop offset=".28" stop-color="#fdca02"/>
      <stop offset=".45" stop-color="#f79a05"/>
      <stop offset=".68" stop-color="#ee4e0c"/>
      <stop offset=".9" stop-color="#e50012"/>
    </linearGradient>
    <linearGradient id="h" x1="-5979.64" y1="-7224.17" x2="-5986.68" y2="-7224.17" gradientTransform="translate(-52110.99 -62871.34) rotate(-180) scale(8.73)" xlink:href="#f"/>
  </defs>
  <g id="c" data-name="Layer 1">
    <g>
      <g>
        <path id="e" data-name="path5844" d="M230.27,155.38L115.14,40.24,0,155.38l115.14,115.14,115.14-115.14Z" fill="url(#d)"/>
        <path id="g" data-name="path5857" d="M121.47,161.71v-93.26l-46.63,46.63,46.63,46.63h0Z" fill="url(#f)"/>
        <path id="i" data-name="path5870" d="M108.81,149.05v93.26l46.63-46.63-46.63-46.63h0Z" fill="url(#h)"/>
      </g>
      <g>
        <path d="M161.9,1.77v3.51h3.43c1.5,0,2.48.94,3.04,1.56.45.5,10.32,11.69,10.55,11.98s.24.3.24.48v5.55c0,.25-.03.51-.08.76-.14.32-.42.57-.76.67-.32.04-.65.06-.97.06h-3.43v3.5h19.24v-3.51h-3.62c-.32,0-.65-.02-.97-.06-.34-.1-.62-.35-.76-.67-.05-.25-.08-.5-.08-.76v-5.54c-.02-.18.03-.37.13-.52l10.68-12.18c.98-1.09,1.49-1.33,2.77-1.33h3.54V1.77h-15.86v3.5h2.39c.37-.02.69.26.71.63.01.16-.04.32-.13.45-.05.07-6.64,7.82-6.72,7.89s-.13.06-.2-.03c-.06-.08-6.57-7.87-6.57-7.87-.46-.57-.1-1.08.44-1.08h2.33V1.77h-19.34,0Z" fill="#013999"/>
        <path d="M114.71,1.77v3.51h3.07c2.22,0,2.37,1.23,2.37,2.31v16.42c0,.99.06,2.33-1.36,2.33h-3.79v3.5h16.18v-3.5h-3.95c-1.58,0-1.65-.72-1.66-2.25v-14.07l22.22,19.83h5.65l-.3-22.39c.03-1.64.13-2.18,1.83-2.18h3.54V1.78h-16.51v3.5h3.62c1.66,0,1.94.64,1.97,2.18l.2,11.72L128.5,1.77h-13.79Z" fill="#013999"/>
        <path d="M41.85,0c-3.48,0-7.42.65-10.76,2.15-3.12,1.39-5.65,3.63-5.65,7.33,0,1.94.73,3.81,2.06,5.22.9.83,2.35,2.25,6.15,3.08,1.7.36,5.32.94,8.94,1.32s7.12.72,8.55,1.1c1.14.29,3.06.68,3.06,2.84s-2.02,2.8-2.37,2.94c-.35.14-2.78,1.25-7.13,1.25-2.89-.08-5.74-.57-8.49-1.46-1.63-.58-3.33-1.35-4.92-3.29-.64-.92-1-2-1.02-3.11h-3.95v11.05h4.38v-1.5c0-.34.27-.62.62-.63.11,0,.23.03.33.09,2.07.9,4.22,1.59,6.42,2.07,2.3.48,3.79.83,6.65.83,3.02.06,6.03-.37,8.92-1.26,1.92-.53,3.71-1.42,5.3-2.62,1.8-1.39,2.85-3.54,2.84-5.81.02-2.13-.81-4.19-2.29-5.72-.82-.8-1.78-1.45-2.83-1.93-1.13-.51-2.29-.92-3.49-1.22-2.28-.55-7.39-1.25-9.83-1.5-2.56-.26-7.01-.64-8.79-1.18-.54-.17-1.64-.69-1.64-1.97,0-.91.5-1.67,1.49-2.3,1.58-.99,4.75-1.6,8.07-1.6,3.21-.04,6.39.58,9.35,1.83.8.34,1.54.79,2.22,1.33,1.11.95,1.88,2.24,2.19,3.67h3.54V1.4h-3.95v1.11c0,.36-.36.83-1.08.44-1.78-.93-6.78-2.93-12.92-2.96h.01Z" fill="#013999"/>
        <path d="M89.35.01c-6.22,0-12.82,2.15-16.55,5.55-2.87,2.62-4.51,6.33-4.5,10.22-.04,3.91,1.59,7.64,4.5,10.26,4.02,3.61,10.05,5.55,16.56,5.55s12.67-1.92,16.59-5.55c2.82-2.67,4.42-6.37,4.44-10.26.04-3.88-1.58-7.6-4.44-10.21C101.74,1.75,96.23.02,89.35.02h0ZM89.35,4.11c3.4,0,6.68,1.22,8.88,3.4,2.14,2.11,3.25,5.07,3.25,8.25s-1.02,6.03-3.25,8.25c-2.23,2.22-5.44,3.41-8.88,3.41s-6.69-1.22-8.9-3.41c-2.13-2.21-3.29-5.18-3.23-8.25,0-3.17,1.1-6.15,3.23-8.25,2.21-2.18,5.5-3.4,8.9-3.4h0Z" fill="#013999"/>
      </g>
      <g>
        <path d="M31.04,289.26c-.59,2.54-.43,5.64,1.04,7.87,1.39,2.12,3.77,3.05,6.27,3.09,2.57.04,5.36-.96,5.99-3.7.02-.09.08-.13.16-.13h2.89c.1,0,.13.05.12.15-.54,3.08-2.77,4.86-5.64,5.51-4.93,1.12-10.21.29-12.81-4.48-1.4-2.56-1.7-6.12-.83-8.94,1.44-4.69,5.11-6.89,9.74-7.12,3.69-.19,8.74,1.17,9.29,5.64,0,.05-.03.09-.08.1h-2.93c-.09,0-.15-.04-.17-.13-.43-1.65-1.48-2.68-3.15-3.07-4.25-1.01-8.8.53-9.89,5.23h0Z" fill="#013999"/>
        <path d="M66.81,282.77c5.52,2.84,6.74,10.83,3.18,15.69-2.5,3.42-6.74,4.36-10.83,3.92-1.66-.18-3.13-.64-4.43-1.37-5.31-3.01-6.34-10.89-2.76-15.62,2.38-3.14,6.22-4.11,10.08-3.86,1.77.11,3.36.53,4.75,1.25h0ZM68.85,293.67c1.09-6.05-3.27-10.71-9.27-9.84-3.89.57-6.39,3.45-6.67,7.35-.31,4.36,1.88,7.96,6.2,8.85,4.61.95,8.85-1.5,9.72-6.37h0Z" fill="#013999"/>
        <path d="M98.45,284.15s-.02-.02-.03-.02c0,0-.01,0-.02.02l-8.69,17.7c-.04.08-.1.12-.19.12h-2.73c-.09,0-.15-.04-.19-.12-2.88-5.83-5.71-11.59-8.47-17.29-.05-.1-.1-.22-.13-.34-.03-.11-.08-.11-.12,0-.03.06-.04.12-.04.19-.01,5.92-.01,11.73,0,17.43,0,.09-.04.14-.13.14h-2.56c-.09,0-.14-.05-.14-.14v-19.75c0-.06.03-.09.09-.09h4.27c.09,0,.16.04.2.12l8.5,17.18c.08.15.15.15.22,0l8.48-17.16c.05-.09.12-.14.22-.14h4.29s.09.04.09.09h0v19.74c0,.09-.05.14-.14.14h-2.57c-.09,0-.13-.04-.13-.13v-17.38c0-.11-.02-.21-.06-.31h0Z" fill="#013999"/>
        <path d="M108.74,293.37v8.48c0,.08-.04.12-.12.12h-2.56c-.09,0-.14-.04-.14-.14v-19.76s.02-.07.06-.07h0c3.2-.01,6.5,0,9.91.02,2.79.02,6.32.72,6.86,4.06.18,1.13.14,2.17-.13,3.13-.93,3.3-4.25,4.02-7.18,4-2.21-.01-4.39-.02-6.54,0-.11,0-.16.05-.16.17h0ZM119.79,286.66c-.27-1.84-2.22-2.29-3.71-2.33-2.44-.06-4.84-.08-7.21-.04-.09,0-.13.05-.13.14v6.41s.03.08.08.08h6.42c2.71,0,5.06-.97,4.56-4.26h0Z" fill="#013999"/>
        <path d="M127.88,300.12c-1.74-1.65-2.38-3.97-2.38-6.38v-11.69c0-.06.03-.1.1-.1h2.61c.08,0,.12.04.12.12.02,3.78.02,7.42-.01,10.91-.02,1.64.12,2.85.41,3.61.64,1.67,1.81,2.76,3.52,3.27,2.09.62,4.85.46,6.62-.92,1.68-1.3,2.12-3.22,2.11-5.42-.02-3.8-.02-7.62,0-11.47,0-.05.04-.1.1-.1h2.62c.07,0,.13.06.13.13h0v11.63c0,4.63-2.44,7.8-6.97,8.54-3.08.51-6.64.04-8.96-2.15h-.01Z" fill="#013999"/>
        <path d="M153.9,284.43h-8.18s-.08-.03-.08-.08h0v-2.28s.03-.08.08-.08h19.34s.08.03.08.08v2.28s-.04.08-.08.08h-8.2s-.08.04-.08.08v17.38s-.03.08-.08.08h-2.65s-.08-.03-.08-.08h0v-17.38s-.03-.08-.08-.08h0Z" fill="#013999"/>
        <path d="M180.93,290.65v2.12s-.03.08-.08.08h-10.93s-.08.04-.08.08v6.68s.04.08.08.08h12.01s.08.04.08.08h0v2.12s-.03.08-.07.08h-14.88s-.08-.04-.08-.08h0v-19.82s.04-.08.08-.08h14.56s.08.04.08.08v2.12s-.03.08-.08.08h-11.71s-.08.03-.08.08h0v6.13s.04.08.08.08h10.93s.08.04.08.08h0Z" fill="#013999"/>
        <path d="M197.75,291.86c-.25.04-.25.09,0,.15,1.24.29,2.26.53,2.84,1.76.39.83.66,1.84.81,3,.25,1.97.6,3.66,1.05,5.07.03.09,0,.13-.1.13h-2.58c-.2,0-.37-.14-.4-.34-.43-2.15-.82-4.18-1.17-6.07-.41-2.25-2.94-2.48-4.81-2.48h-5.49c-.09,0-.12.04-.12.13l-.02,8.62c0,.1-.05.15-.15.15h-2.57c-.09,0-.12-.04-.12-.13v-19.7c0-.09.04-.13.13-.13,4.25-.02,7.81-.02,10.68.02,3.62.05,6.74,1.49,6.25,5.86-.25,2.23-2.07,3.61-4.22,3.97h-.01ZM187.74,284.35v6.35s.04.07.08.07l7.77-.02c1.89,0,3.42-1.28,3.41-2.85v-.79c0-1.57-1.53-2.84-3.42-2.84h0l-7.77.02s-.06.03-.06.07Z" fill="#013999"/>
        <path d="M30.41,312.39h7.28s.08.04.08.08v1.36s-.03.08-.08.08h-7.28s-.08.04-.08.08v4.4s.04.08.08.08h7.99s.08.04.08.08v1.37s-.04.08-.08.08h-9.85s-.08-.04-.08-.08v-13.15s.04-.08.08-.08h9.62s.08.04.08.08v1.35s-.03.08-.08.08h-7.76s-.08.04-.08.08v4.04s.03.08.08.08h0Z" fill="#013999"/>
        <path d="M51.9,306.68h1.74s.08.04.08.08v13.15s-.04.08-.08.08h-2.47s-.05-.02-.06-.04l-7.9-11.22s-.08-.04-.11-.02c-.02.02-.03.04-.03.06v11.12s-.04.08-.08.08h-1.71s-.08-.03-.08-.07v-13.15s.04-.08.08-.08h2.44s.05.01.06.03l7.9,11.17s.08.04.11.02c.02-.02.03-.04.03-.07v-11.07s.03-.08.07-.08h0Z" fill="#013999"/>
        <path d="M62.63,308.38v11.53s-.04.08-.08.08h-1.72s-.08-.04-.08-.09v-11.53s-.04-.08-.08-.08h-5.41s-.08-.03-.08-.08v-1.45s.04-.08.08-.08h12.85s.08.04.08.08v1.45s-.03.08-.08.08h-5.42s-.08.04-.08.09h0Z" fill="#013999"/>
        <path d="M71.79,318.47h7.95c.05,0,.09.04.09.1h0v1.34c0,.05-.04.1-.09.1h-9.82c-.05,0-.09-.04-.09-.1v-13.12c0-.05.04-.1.09-.1h9.61c.05,0,.09.04.09.1v1.32c0,.05-.04.1-.09.1h-7.75c-.05,0-.09.04-.09.1h0v4.02c0,.05.04.1.09.1h7.24c.05,0,.09.04.09.1v1.32c0,.05-.04.1-.1.1h-7.24c-.05,0-.09.04-.09.1h0v4.37c0,.05.04.1.09.1v-.03Z" fill="#013999"/>
        <path d="M91.12,313.18c-.43.08-.43.15,0,.22,1.09.16,1.76.86,1.99,2.08.19,1.02.37,2.03.53,3.04.08.45.2.9.37,1.36.03.08,0,.12-.08.12h-1.79s-.09-.02-.11-.07c-.05-.11-.09-.25-.12-.42-.2-.94-.39-1.95-.57-3.03-.24-1.51-.8-2.25-2.34-2.35-1.4-.09-2.96-.11-4.66-.06-.1,0-.15.05-.15.15v5.69s-.04.09-.08.09h-1.71s-.08-.03-.08-.08v-13.1c0-.08.06-.13.13-.13h0c1.96.01,3.94.01,5.92,0,2.2-.02,5.03.13,5.31,2.92.19,1.85-.82,3.26-2.59,3.59h0ZM84.2,308.27l.02,4.2s.03.06.06.06l5.15-.02c1.27,0,2.29-.87,2.29-1.94h0v-.46c0-1.07-1.03-1.93-2.3-1.93l-5.15.02s-.06.03-.06.06h0Z" fill="#013999"/>
        <path d="M102.28,308.38v11.53s-.04.08-.08.08h-1.69s-.08-.03-.08-.08v-11.53s-.04-.08-.08-.08h-5.41s-.08-.03-.08-.08v-1.45s.03-.08.08-.08h12.86s.08.04.08.08v1.45s-.04.08-.08.08h-5.43s-.08.04-.08.09h0Z" fill="#013999"/>
        <path d="M109.17,316.57l-1.65,3.38s-.04.05-.08.05h-1.9s-.09-.03-.09-.07c0-.02,0-.03.01-.04l6.65-13.15s.04-.05.08-.05h2.11s.06.02.08.05l6.64,13.14s0,.09-.04.11c-.01,0-.03.01-.04.01h-1.96s-.06-.02-.08-.05l-1.64-3.38s-.04-.05-.08-.05h-7.94s-.06.02-.08.05h-.01ZM110,314.9s0,.09.03.11c.01,0,.02.01.03.01h6.3s.08-.04.08-.08c0-.01,0-.03-.01-.04l-3.15-6.47s-.06-.06-.1-.04c-.02,0-.03.02-.04.04l-3.15,6.47h0Z" fill="#013999"/>
        <path d="M122.58,306.69h1.7s.09.04.09.09v13.13s-.04.09-.09.09h-1.7s-.09-.04-.09-.09v-13.13s.04-.09.09-.09Z" fill="#013999"/>
        <path d="M137.81,317.88v-11.12s.02-.07.06-.07h1.74s.07.03.07.07v13.17s-.03.07-.08.07h-2.46s-.04-.02-.06-.03l-7.92-11.22s-.07-.04-.1-.02c-.02.01-.03.03-.03.05v11.14s-.03.07-.06.07h-1.74s-.07-.03-.07-.08v-13.16s.03-.07.07-.07h2.48s.04.01.06.03l7.91,11.21s.07.04.1.02c.02-.01.03-.03.03-.05h0Z" fill="#013999"/>
        <path d="M158.19,308.23c0-.17-.04-.17-.11-.03l-5.73,11.65c-.05.09-.12.14-.23.14h-1.67c-.11,0-.18-.05-.23-.15l-5.73-11.67s-.05-.04-.08-.02c-.02.01-.03.03-.03.05v11.72s-.02.06-.06.06h-1.77s-.07-.03-.07-.06v-13.07c0-.12.06-.18.17-.18h2.7c.1,0,.17.04.22.13l5.66,11.42s.05.04.08.03c.01,0,.02-.02.03-.03l5.68-11.46c.03-.06.1-.11.17-.11h2.73c.11,0,.17.06.17.18v13.07s-.02.07-.06.07h-1.77s-.07-.03-.07-.08v-11.69h0Z" fill="#013999"/>
        <path d="M164.75,308.27v4.04s.03.08.08.08h7.27s.08.04.08.08v1.35s-.04.08-.08.08h-7.27s-.08.04-.08.08v4.4s.03.08.08.08h8.01s.08.04.08.08v1.37s-.03.08-.08.08h-9.87s-.08-.04-.08-.08v-13.15s.04-.08.08-.08h9.63s.08.03.08.08v1.35s-.03.08-.07.08h-7.77s-.08.04-.08.08h0Z" fill="#013999"/>
        <path d="M186.1,306.68h1.73s.08.04.08.08v13.15s-.03.08-.08.08h-2.45s-.05-.01-.06-.03l-7.91-11.23s-.07-.04-.11-.02c-.02.02-.03.04-.03.06v11.14s-.02.08-.06.08h-1.72s-.08-.03-.08-.08v-13.16s.03-.08.08-.08h2.44s.05.01.06.03l7.91,11.18s.07.04.11.02c.02-.02.03-.04.03-.06v-11.09s.03-.08.07-.08h0Z" fill="#013999"/>
        <path d="M195.01,308.3h-5.42s-.08-.04-.08-.08v-1.46s.04-.08.08-.08h12.86s.08.04.08.08v1.46s-.04.08-.08.08h-5.41s-.08.04-.08.08h0v11.53s-.04.08-.08.08h-1.72s-.08-.03-.08-.08v-11.54s-.04-.08-.08-.08h.02Z" fill="#013999"/>
      </g>
    </g>
  </g>
</svg>