<?xml version="1.0" encoding="UTF-8"?>
<svg id="b" data-name="Layer 2" xmlns="http://www.w3.org/2000/svg" xmlns:xlink="http://www.w3.org/1999/xlink" viewBox="0 0 320 115.02">
  <defs>
    <linearGradient id="d" x1="1190.14" y1="446.24" x2="1305.16" y2="446.24" gradientTransform="translate(-1140.25 -509.17) rotate(45) scale(1 -1)" gradientUnits="userSpaceOnUse">
      <stop offset="0" stop-color="#ef4123"/>
      <stop offset=".02" stop-color="#ef4123"/>
      <stop offset=".08" stop-color="#ef4920"/>
      <stop offset=".17" stop-color="#f2621b"/>
      <stop offset=".29" stop-color="#f68a12"/>
      <stop offset=".43" stop-color="#fcc006"/>
      <stop offset=".5" stop-color="#fd0"/>
      <stop offset=".57" stop-color="#fcc006"/>
      <stop offset=".71" stop-color="#f68a12"/>
      <stop offset=".83" stop-color="#f2621b"/>
      <stop offset=".92" stop-color="#ef4920"/>
      <stop offset=".98" stop-color="#ef4123"/>
      <stop offset="1" stop-color="#ef4123"/>
    </linearGradient>
    <linearGradient id="e" x1="1258.73" y1="466.16" x2="1228.02" y2="466.16" gradientTransform="translate(-1190.14 503.55) scale(1 -1)" gradientUnits="userSpaceOnUse">
      <stop offset=".2" stop-color="#ffda00"/>
      <stop offset=".29" stop-color="#fdc703"/>
      <stop offset=".48" stop-color="#f8970c"/>
      <stop offset=".75" stop-color="#f14a1b"/>
      <stop offset=".9" stop-color="#ed1c24"/>
    </linearGradient>
    <linearGradient id="f" x1="-5891.33" y1="7498.07" x2="-5922.04" y2="7498.07" gradientTransform="translate(-5844.94 -7420.43) rotate(-180) scale(1 -1)" xlink:href="#e"/>
  </defs>
  <g id="c" data-name="Layer 1">
    <g>
      <g>
        <rect x="16.84" y="16.84" width="81.33" height="81.33" transform="translate(-23.82 57.51) rotate(-45)" fill="url(#d)"/>
        <polygon points="60.67 14.11 37.39 37.4 60.67 60.68 60.67 14.11" fill="url(#e)"/>
        <polygon points="54.31 100.92 77.6 77.64 54.31 54.36 54.31 100.92" fill="url(#f)"/>
      </g>
      <path d="M149.46,22.08c-.7-.25-1.41-.44-2.13-.57s-1.43-.19-2.13-.19c-.44,0-.88.04-1.31.13-.44.09-.82.22-1.14.42-.32.19-.58.45-.78.78s-.3.72-.3,1.17c0,.37.07.71.21,1,.14.28.36.56.67.82.31.26.72.52,1.21.76s1.1.52,1.81.81c.84.32,1.6.67,2.29,1.03.69.37,1.27.78,1.75,1.24s.85.98,1.1,1.57.37,1.28.37,2.07c0,.93-.19,1.75-.57,2.44s-.89,1.27-1.55,1.72c-.66.45-1.41.78-2.24,1s-1.69.32-2.57.32-1.84-.08-2.89-.26c-1.05-.17-2.04-.44-2.99-.82l.66-2.61c.9.39,1.8.68,2.7.86s1.73.27,2.46.27c1.17,0,2.1-.22,2.77-.68s1.01-1.13,1.01-2.03c0-.41-.09-.78-.27-1.11s-.46-.63-.81-.91c-.36-.27-.81-.55-1.35-.81s-1.16-.52-1.85-.79c-.82-.32-1.55-.67-2.19-1.03-.63-.37-1.16-.77-1.6-1.22s-.78-.95-1.01-1.5c-.24-.56-.36-1.17-.36-1.85,0-.9.19-1.69.57-2.36.38-.68.89-1.24,1.52-1.68s1.34-.76,2.11-.96c.78-.21,1.59-.31,2.43-.31.91,0,1.8.07,2.65.19.85.12,1.63.32,2.34.57l-.63,2.55.02-.02ZM167.79,31.17c0,1.16-.17,2.2-.49,3.12-.33.91-.8,1.7-1.41,2.34-.62.65-1.36,1.14-2.22,1.48-.87.34-1.85.51-2.93.51s-2.05-.17-2.93-.51-1.61-.83-2.22-1.48c-.62-.65-1.08-1.42-1.41-2.34-.33-.91-.49-1.95-.49-3.12s.17-2.18.49-3.1c.33-.92.8-1.7,1.41-2.33.62-.62,1.36-1.11,2.22-1.46.87-.34,1.85-.51,2.93-.51s2.05.17,2.93.5,1.61.81,2.22,1.46c.62.64,1.08,1.41,1.41,2.34s.49,1.96.49,3.1ZM164.67,31.17c0-.73-.07-1.41-.23-2.03-.16-.62-.39-1.15-.72-1.6-.32-.45-.72-.8-1.22-1.05-.49-.25-1.08-.37-1.75-.37s-1.26.12-1.75.37-.9.61-1.22,1.06-.56.99-.72,1.6-.23,1.28-.23,2.01c0,1.52.32,2.75.97,3.68s1.63,1.41,2.95,1.42c1.34-.02,2.33-.49,2.97-1.41s.96-2.15.96-3.7h0ZM173.78,24.1v1.99h.06c.4-.73,1.01-1.31,1.81-1.7.81-.41,1.7-.61,2.66-.61,1.61,0,2.89.47,3.84,1.4s1.43,2.19,1.43,3.77v9.35h-3.13v-8.2c0-.61-.04-1.16-.13-1.66s-.26-.92-.49-1.26c-.24-.34-.55-.6-.93-.78-.38-.17-.88-.27-1.48-.27-.44,0-.87.08-1.29.24-.42.16-.8.42-1.12.75-.33.34-.6.78-.81,1.33s-.32,1.21-.32,2v7.85h-3.13v-14.19h3.04-.02ZM192.78,34.55h.06l3.87-10.45h3.29l-7.87,19.43h-3.29l2.34-5.54-5.68-13.89h3.4l3.9,10.45h0ZM139.33,47.41h3.21v19.19h-3.21v-19.19ZM149.68,52.41v1.99h.06c.4-.73,1.01-1.31,1.81-1.7.81-.41,1.7-.61,2.66-.61,1.61,0,2.89.47,3.84,1.4.95.93,1.43,2.19,1.43,3.77v9.35h-3.13v-8.2c0-.61-.04-1.16-.13-1.66s-.26-.92-.49-1.26c-.24-.34-.55-.6-.93-.78s-.88-.27-1.48-.27c-.44,0-.87.08-1.29.24-.42.16-.8.42-1.12.75-.33.34-.6.78-.81,1.33-.21.55-.32,1.21-.32,2v7.85h-3.13v-14.19h3.04-.02ZM161.84,52.41h2.42v-3.68h3.13v3.68h3.18v2.34h-3.18v7.42c0,.48.02.87.06,1.17.03.29.12.52.25.68.12.16.3.27.52.32.22.05.52.08.91.08.27,0,.52,0,.76-.02.22-.02.45-.04.67-.08v2.29c-.31.03-.67.07-1.1.11-.42.03-.84.05-1.26.05-.84,0-1.52-.09-2.03-.27-.52-.18-.91-.44-1.2-.79-.28-.35-.47-.77-.57-1.26-.09-.49-.14-1.06-.14-1.7v-7.98h-2.42v-2.34h0ZM175.53,60.39c.11,1.35.62,2.38,1.51,3.1s2.05,1.09,3.46,1.09c.61,0,1.23-.05,1.88-.15s1.25-.25,1.8-.44l.42,2.29c-1.26.43-2.72.64-4.37.64-1.25,0-2.35-.18-3.32-.55-.97-.37-1.78-.88-2.44-1.53-.66-.66-1.16-1.43-1.5-2.34s-.51-1.9-.51-2.97.16-2.07.48-2.98.78-1.7,1.39-2.36,1.33-1.18,2.19-1.55c.85-.37,1.8-.55,2.87-.55s1.95.17,2.73.5c.78.33,1.43.8,1.96,1.4.53.6.93,1.34,1.2,2.2.27.87.4,1.83.4,2.89v1.31h-10.14ZM179.38,54.28c-1.1,0-1.98.36-2.65,1.06-.67.71-1.06,1.64-1.2,2.79h7.22v-.05c.02-1.15-.28-2.06-.89-2.75-.62-.69-1.44-1.03-2.49-1.03v-.02ZM196.34,54.53c-.32-.07-.71-.11-1.18-.11-.42-.02-.86.06-1.31.22-.46.17-.84.43-1.16.79-.31.36-.56.84-.74,1.46-.18.61-.27,1.31-.27,2.12v7.58h-3.13v-14.19h3.04v1.88h.06c.66-1.47,1.92-2.2,3.79-2.2.15,0,.31,0,.49.02.18,0,.37.02.55.04l-.13,2.39h0ZM206.36,57.34c0-.95-.27-1.67-.82-2.18-.55-.5-1.4-.75-2.55-.75-.52,0-1.11.07-1.77.2-.67.13-1.31.32-1.94.57l-.63-2.29c.49-.2,1.19-.38,2.09-.57s1.72-.27,2.47-.27c2.07,0,3.63.44,4.69,1.33s1.6,2.2,1.6,3.94v6.02c0,.5.02,1.05.06,1.64.03.59.1,1.12.19,1.59h-2.78c-.07-.25-.13-.56-.19-.91-.06-.36-.1-.7-.13-1.02h-.06c-.37.67-.92,1.21-1.67,1.63s-1.65.63-2.72.63c-.62,0-1.23-.07-1.83-.22s-1.13-.4-1.6-.75c-.47-.35-.86-.81-1.16-1.36-.29-.56-.44-1.23-.44-2.01,0-1.02.25-1.85.74-2.5s1.16-1.14,2.02-1.49,1.83-.59,2.93-.72,2.27-.19,3.52-.19v-.32h0ZM205.75,59.71c-.73,0-1.44.03-2.11.11-.68.07-1.27.21-1.79.42s-.92.48-1.22.83-.45.81-.45,1.36c0,.68.2,1.22.61,1.63.4.4,1.01.61,1.81.61.64,0,1.21-.11,1.69-.32s.88-.5,1.18-.86.52-.76.67-1.22.22-.94.22-1.44v-1.11s-.61,0-.61,0ZM222.58,54.93c-.4-.18-.83-.31-1.29-.39s-.89-.12-1.29-.12c-.75,0-1.41.13-1.99.4s-1.06.63-1.44,1.09c-.38.46-.68,1-.88,1.63-.2.62-.3,1.29-.3,1.99s.1,1.36.3,1.96.49,1.15.88,1.61c.38.47.88.83,1.48,1.09.61.26,1.27.39,2,.39.46,0,.9-.03,1.31-.11.42-.07.85-.21,1.29-.4l.52,2.31c-.55.2-1.1.33-1.65.42s-1.11.12-1.67.12c-1.25,0-2.34-.19-3.31-.57-.96-.37-1.75-.9-2.39-1.56-.63-.67-1.11-1.44-1.43-2.34-.32-.9-.48-1.87-.48-2.93s.17-2.1.52-2.99c.35-.91.85-1.69,1.5-2.34.65-.66,1.44-1.17,2.37-1.55s2-.57,3.18-.57c1.3,0,2.42.17,3.35.51l-.61,2.34h0ZM224.8,52.4h2.42v-3.68h3.13v3.68h3.18v2.34h-3.18v7.42c0,.48.02.87.06,1.17.03.29.12.52.25.68.12.16.3.27.52.32.22.05.52.08.91.08.27,0,.52,0,.76-.02.22-.02.45-.04.67-.08v2.29c-.31.03-.67.07-1.1.11s-.84.05-1.26.05c-.84,0-1.52-.09-2.03-.27-.52-.18-.91-.44-1.2-.79-.28-.35-.47-.77-.57-1.26s-.14-1.06-.14-1.7v-7.98h-2.42v-2.34h0ZM239.59,46.97v2.85h-3.21v-2.85h3.21ZM239.53,52.4v14.19h-3.13v-14.19h3.13ZM249.03,63.87h.06l3.84-11.47h3.32l-5.44,14.19h-3.65l-5.38-14.19h3.4l3.84,11.47h0ZM260.17,60.38c.11,1.35.62,2.38,1.51,3.1.9.72,2.05,1.09,3.46,1.09.61,0,1.23-.05,1.88-.15s1.25-.25,1.8-.44l.41,2.29c-1.26.43-2.72.64-4.37.64-1.25,0-2.35-.18-3.32-.55-.97-.37-1.78-.88-2.44-1.53-.66-.66-1.16-1.43-1.5-2.34-.34-.91-.51-1.9-.51-2.97s.16-2.07.48-2.98c.32-.91.78-1.7,1.39-2.36.61-.67,1.33-1.18,2.19-1.55.85-.37,1.8-.55,2.87-.55s1.95.17,2.73.5c.78.33,1.43.8,1.96,1.4.53.6.93,1.34,1.2,2.2.27.87.4,1.83.4,2.89v1.31h-10.14ZM264.01,54.28c-1.1,0-1.98.36-2.65,1.06-.67.71-1.06,1.64-1.2,2.79h7.22v-.05c.02-1.15-.28-2.06-.89-2.75-.62-.69-1.44-1.03-2.49-1.03v-.02ZM139.32,75.7h11.28v2.55h-8.07v5.51h7.44v2.58h-7.44v5.99h8.31v2.55h-11.53v-19.19h0ZM157.27,80.7v1.99h.06c.4-.73,1.01-1.31,1.81-1.7.81-.41,1.7-.61,2.66-.61,1.61,0,2.89.47,3.84,1.4s1.43,2.19,1.43,3.77v9.35h-3.13v-8.2c0-.61-.04-1.16-.13-1.66s-.26-.92-.49-1.26c-.24-.34-.55-.6-.93-.78-.38-.17-.88-.27-1.48-.27-.44,0-.87.08-1.29.24-.42.16-.8.42-1.12.75-.33.34-.6.78-.81,1.33-.21.55-.32,1.21-.32,2v7.85h-3.13v-14.19h3.04-.02ZM169.43,80.7h2.42v-3.68h3.13v3.68h3.18v2.34h-3.18v7.42c0,.48.02.87.06,1.17.03.29.12.52.25.68.12.16.3.27.52.32.22.05.52.08.91.08.27,0,.52,0,.76-.02.22-.02.45-.04.67-.08v2.29c-.31.03-.67.07-1.1.11-.42.03-.84.05-1.26.05-.84,0-1.52-.09-2.03-.27-.52-.18-.91-.44-1.2-.79-.28-.35-.47-.77-.57-1.26-.09-.49-.14-1.06-.14-1.7v-7.98h-2.42v-2.34h0ZM183.13,88.68c.11,1.35.62,2.38,1.51,3.1s2.05,1.09,3.46,1.09c.61,0,1.23-.05,1.88-.15s1.25-.25,1.8-.44l.42,2.29c-1.26.43-2.72.64-4.37.64-1.25,0-2.35-.18-3.32-.55-.97-.37-1.78-.88-2.44-1.53-.66-.66-1.16-1.43-1.5-2.34s-.51-1.9-.51-2.97.16-2.07.48-2.98.78-1.7,1.39-2.36,1.33-1.18,2.19-1.55c.85-.37,1.8-.55,2.87-.55s1.95.17,2.73.5c.78.33,1.43.8,1.96,1.4s.93,1.34,1.2,2.2c.27.87.4,1.83.4,2.89v1.31h-10.14ZM186.97,82.58c-1.1,0-1.98.36-2.65,1.06-.67.71-1.06,1.64-1.2,2.79h7.22v-.05c.02-1.15-.28-2.06-.89-2.75-.62-.69-1.44-1.03-2.49-1.03v-.02ZM203.93,82.82c-.32-.07-.71-.11-1.18-.11-.42-.02-.86.06-1.31.22-.46.17-.84.43-1.16.79-.31.36-.56.84-.74,1.46-.18.61-.27,1.31-.27,2.12v7.58h-3.13v-14.19h3.04v1.88h.06c.66-1.47,1.92-2.2,3.79-2.2.15,0,.31,0,.49.02.18,0,.37.02.55.04l-.13,2.39h0ZM205.28,80.7h2.42v-3.68h3.13v3.68h3.18v2.34h-3.18v7.42c0,.48.02.87.06,1.17.03.29.12.52.25.68.12.16.3.27.52.32.22.05.52.08.91.08.27,0,.52,0,.76-.02.22-.02.45-.04.67-.08v2.29c-.31.03-.67.07-1.1.11-.42.03-.84.05-1.26.05-.84,0-1.52-.09-2.03-.27-.52-.18-.91-.44-1.2-.79-.28-.35-.47-.77-.57-1.26-.09-.49-.14-1.06-.14-1.7v-7.98h-2.42v-2.34h0ZM225.06,85.65c0-.95-.27-1.67-.82-2.18-.55-.5-1.4-.75-2.55-.75-.52,0-1.11.07-1.77.2-.67.13-1.31.32-1.94.57l-.63-2.29c.49-.2,1.19-.38,2.09-.57.9-.18,1.72-.27,2.47-.27,2.07,0,3.63.44,4.69,1.33,1.06.89,1.6,2.2,1.6,3.94v6.02c0,.5.02,1.05.06,1.64.03.59.1,1.12.19,1.59h-2.78c-.07-.25-.13-.56-.19-.91s-.1-.7-.13-1.02h-.06c-.37.67-.92,1.21-1.67,1.63-.75.42-1.65.63-2.72.63-.62,0-1.23-.07-1.83-.22s-1.13-.4-1.6-.75-.86-.81-1.16-1.36c-.29-.56-.44-1.23-.44-2.01,0-1.02.25-1.85.74-2.5.49-.65,1.16-1.14,2.02-1.49s1.83-.59,2.93-.72c1.1-.12,2.27-.19,3.52-.19v-.32h0ZM224.46,88.01c-.73,0-1.44.03-2.11.11-.68.07-1.27.21-1.79.42s-.92.48-1.22.83c-.3.35-.45.81-.45,1.36,0,.68.2,1.22.61,1.63.4.4,1.01.61,1.81.61.64,0,1.21-.11,1.69-.32s.88-.5,1.18-.86c.3-.36.52-.76.67-1.22s.22-.94.22-1.44v-1.11s-.61,0-.61,0ZM235.24,75.27v2.85h-3.21v-2.85h3.21ZM235.18,80.7v14.19h-3.13v-14.19h3.13ZM242.43,80.7v1.99h.06c.4-.73,1.01-1.31,1.81-1.7.81-.41,1.7-.61,2.66-.61,1.61,0,2.89.47,3.84,1.4.95.93,1.43,2.19,1.43,3.77v9.35h-3.13v-8.2c0-.61-.04-1.16-.13-1.66-.09-.5-.26-.92-.49-1.26-.24-.34-.55-.6-.93-.78-.38-.17-.88-.27-1.48-.27-.44,0-.87.08-1.29.24-.42.16-.8.42-1.12.75-.33.34-.6.78-.81,1.33-.21.55-.32,1.21-.32,2v7.85h-3.13v-14.19h3.04-.02ZM258.79,80.7v2.05h.06c.37-.76.94-1.34,1.73-1.75.79-.42,1.63-.62,2.53-.62,2.14,0,3.57.77,4.28,2.31h.08c.52-.82,1.16-1.42,1.96-1.79s1.65-.54,2.57-.52c.88,0,1.65.12,2.3.37.66.25,1.21.61,1.63,1.06s.75,1,.96,1.63c.21.62.32,1.32.32,2.1v9.35h-3.13v-8.2c0-.72-.03-1.29-.11-1.72s-.22-.82-.42-1.18-.5-.62-.88-.81c-.37-.17-.85-.27-1.41-.27-.38,0-.76.07-1.16.2-.38.13-.72.34-1.01.62-.29.27-.53.65-.72,1.1-.18.46-.27.99-.27,1.6v8.66h-3.13v-8.36c0-.59-.03-1.12-.11-1.6s-.21-.88-.41-1.21c-.2-.33-.49-.58-.86-.76-.37-.17-.85-.26-1.41-.26-.42,0-.83.08-1.24.24-.4.16-.75.4-1.05.72-.29.32-.53.73-.72,1.26-.19.53-.29,1.18-.29,1.95v8.01h-3.13v-14.19h3.04,0ZM283.05,88.68c.11,1.35.62,2.38,1.51,3.1.9.72,2.05,1.09,3.46,1.09.61,0,1.23-.05,1.88-.15s1.25-.25,1.8-.44l.41,2.29c-1.26.43-2.72.64-4.37.64-1.25,0-2.35-.18-3.32-.55-.97-.37-1.78-.88-2.44-1.53-.66-.66-1.16-1.43-1.5-2.34-.34-.91-.51-1.9-.51-2.97s.16-2.07.48-2.98c.32-.91.78-1.7,1.39-2.36s1.33-1.18,2.19-1.55c.85-.37,1.8-.55,2.87-.55s1.95.17,2.73.5c.78.33,1.43.8,1.96,1.4.53.6.93,1.34,1.2,2.2.27.87.4,1.83.4,2.89v1.31h-10.14ZM286.89,82.58c-1.1,0-1.98.36-2.65,1.06-.67.71-1.06,1.64-1.2,2.79h7.22v-.05c.02-1.15-.28-2.06-.89-2.75-.62-.69-1.44-1.03-2.49-1.03v-.02ZM299.11,80.7v1.99h.06c.4-.73,1.01-1.31,1.81-1.7.81-.41,1.7-.61,2.66-.61,1.61,0,2.89.47,3.84,1.4.95.93,1.43,2.19,1.43,3.77v9.35h-3.13v-8.2c0-.61-.04-1.16-.13-1.66-.09-.5-.26-.92-.49-1.26-.24-.34-.55-.6-.93-.78-.38-.17-.88-.27-1.48-.27-.44,0-.87.08-1.29.24-.42.16-.8.42-1.12.75-.33.34-.6.78-.81,1.33-.21.55-.32,1.21-.32,2v7.85h-3.13v-14.19h3.04-.02ZM311.27,80.7h2.42v-3.68h3.13v3.68h3.18v2.34h-3.18v7.42c0,.48.02.87.06,1.17.03.29.12.52.25.68.12.16.3.27.52.32.22.05.52.08.91.08.27,0,.52,0,.76-.02.22-.02.45-.04.67-.08v2.29c-.31.03-.67.07-1.1.11s-.84.05-1.26.05c-.84,0-1.52-.09-2.03-.27-.52-.18-.91-.44-1.2-.79-.28-.35-.47-.77-.57-1.26s-.14-1.06-.14-1.7v-7.98h-2.42v-2.34h0Z" fill="#002f67"/>
    </g>
  </g>
</svg>