<?xml version="1.0" encoding="UTF-8"?>
<svg id="b" data-name="Layer 2" xmlns="http://www.w3.org/2000/svg" viewBox="0 0 320 241.7">
  <g id="c" data-name="Layer 1">
    <g>
      <g>
        <path d="M320,152.4c0,28.92-23.44,52.37-52.37,52.37H52.37c-28.92,0-52.37-23.45-52.37-52.37V52.37C0,23.44,23.44,0,52.37,0h215.26c28.93,0,52.37,23.44,52.37,52.37v100.04h0Z"/>
        <path d="M76.14,71.8v12.02c1.83.12,3.59.34,5.36.34,17.55.04,35.1.07,52.65.02,4.61-.01,8.85.95,12.63,3.66,4.67,3.35,7.41,7.83,7.44,13.64.08,16.32.18,32.64,0,48.96-.11,10.13-8.26,17.49-19.29,17.6-14.93.15-29.86.09-44.8.11-11.7.01-23.4,0-35.1,0-5.53,0-10.36-1.98-13.98-6.05-1.97-2.22-4.1-5.13-4.35-7.89-.62-6.82-.2-13.73-.2-21.29h78.24v-12.76c-1.81-.09-3.57-.26-5.34-.26-17.4-.02-34.79,0-52.19,0-5.71,0-10.96-1.32-15.32-5.3-3.59-3.28-5.71-7.23-5.71-12.14-.02-16.32-.11-32.64.04-48.95.06-7.51,5.84-14.22,13.55-16.1,2.52-.62,5.17-.96,7.76-.96,30.63.05,61.27.19,91.9.32,1.36,0,2.73.16,4.45.27v34.78c-25.69,0-51.45,0-77.74,0h0Z" fill="#dfd9cb"/>
        <path d="M275.06,39.96c-3.99-2.43-8.44-2.66-12.93-2.67-29.86-.06-59.72-.1-89.57-.13-1.5,0-3,.14-4.68.22v129.76h39.06v-34.6c2.38-.11,4.19-.27,5.99-.27,17.24-.03,34.47.02,51.71-.04,10.13-.04,15.76-4.33,18.33-14.08.7-2.64.97-5.47.98-8.21.09-18.32,0-36.63.09-54.94.03-6.92-3.33-11.61-8.97-15.05h0Z" fill="#dfd9cb"/>
        <path d="M234.13,71.25h22.66c.13.28.26.57.39.85-5.26,4.29-10.51,8.57-15.9,12.96,3.89,6.44,7.5,12.42,11.11,18.41-.2.26-.39.53-.59.8-8.54-2.76-17.08-5.52-25.99-8.4-6.22,4.6-12.46,9.22-18.71,13.84-.29-.18-.58-.36-.87-.54,2.7-8.04,5.4-16.08,8.25-24.57-4.48-5.22-9.02-10.51-14.29-16.65,7.31,1.17,13.49,2.16,20.09,3.22,1.16-2.89,2.29-5.7,3.42-8.5,1.06-2.62,2.13-5.24,3.21-7.85.35.02.71.04,1.06.06,1.02,2.65,2.06,5.29,3.06,7.95,1.02,2.71,2,5.43,3.1,8.4h0Z" fill="#e53435"/>
      </g>
      <g>
        <path d="M52.48,231.64c-.76-.37-1.52-.65-2.3-.82-.72-.16-1.29-.27-1.72-.33h0c-1.37-.26-2.48-.47-3.32-.64-.83-.16-1.47-.33-1.91-.48-.43-.14-.67-.32-.69-.36-.05-.06-.1-.17-.1-.38,0-.23.05-.34.15-.46h0c.14-.16.33-.3.59-.43.26-.12.55-.21.89-.27.36-.05.71-.08,1.07-.08.57,0,1.08.04,1.55.11.45.07.84.19,1.16.34.3.14.53.33.7.56.15.21.26.5.3.9.03.32.29.56.61.56h4.66c.16,0,.32-.07.43-.18.12-.11.18-.27.18-.43,0-1.05-.27-2-.84-2.78-.54-.75-1.27-1.36-2.16-1.82-.88-.46-1.88-.79-2.98-.99-1.09-.2-2.23-.3-3.41-.3-1.02,0-2.05.11-3.07.31-1.03.21-1.97.53-2.8.98-.84.45-1.55,1.02-2.08,1.71-.57.73-.85,1.61-.85,2.56,0,.85.22,1.63.68,2.27.43.6,1,1.11,1.68,1.49.66.38,1.41.69,2.22.92.79.23,1.6.42,2.43.57h0c.8.17,1.6.33,2.38.46.76.14,1.43.29,2.01.46.57.17,1,.38,1.3.6.25.19.3.32.32.58,0,.27-.07.41-.23.57-.22.21-.5.37-.86.5-.38.14-.79.23-1.24.28-.47.05-.91.08-1.31.08-.6,0-1.17-.05-1.72-.16-.54-.11-1-.27-1.37-.46-.36-.2-.64-.44-.84-.74l-.51.35.51-.35c-.18-.27-.28-.59-.29-1.05,0-.17-.06-.32-.18-.44-.12-.11-.27-.18-.44-.18h-4.66c-.33,0-.61.27-.62.6v.14c0,1.06.28,2.03.85,2.84.57.82,1.34,1.49,2.28,2,.93.51,2,.88,3.18,1.11,1.17.23,2.38.34,3.63.34,1.53,0,2.89-.14,4.08-.41,1.18-.27,2.19-.65,3.03-1.16.83-.5,1.49-1.13,1.94-1.87.45-.73.67-1.55.67-2.4,0-1.03-.3-1.95-.94-2.66-.56-.66-1.25-1.18-2.04-1.56Z"/>
        <path d="M76.34,223.74h-4.81c-.16,0-.32.06-.44.18-.11.11-.18.28-.18.44v10.17c0,1.12-.29,1.81-.77,2.22-.44.41-1.5.72-3.15.71-.94,0-1.66-.1-2.14-.28-.52-.18-.89-.41-1.13-.66-.26-.26-.4-.52-.48-.84h0c-.09-.38-.14-.77-.14-1.16v-10.17c0-.16-.07-.32-.18-.44-.11-.11-.27-.18-.44-.18h-4.81c-.16,0-.32.06-.44.18-.11.11-.18.28-.18.44v10.17c-.01,2.37.91,4.29,2.71,5.46,1.77,1.16,4.19,1.71,7.22,1.71s5.41-.55,7.2-1.71c1.83-1.18,2.78-3.09,2.76-5.45v-10.17c0-.16-.06-.32-.18-.44-.11-.11-.28-.17-.44-.17h0Z"/>
        <path d="M99.98,233.8h-4.66c-.3,0-.56.21-.61.51-.17.97-.59,1.7-1.3,2.28-.68.56-1.68.87-3.06.87-1.03,0-1.86-.15-2.52-.42-.69-.28-1.22-.65-1.62-1.09-.42-.46-.71-.96-.9-1.53-.19-.59-.29-1.19-.29-1.81,0-.66.1-1.28.29-1.9.19-.59.49-1.11.9-1.57.4-.45.93-.82,1.62-1.1.66-.28,1.5-.42,2.52-.42.54,0,1.05.07,1.54.2.49.13.92.31,1.3.54.38.23.68.49.92.77l.47-.39-.47.39c.23.28.36.55.42.86.06.28.31.49.6.49h4.66c.18,0,.35-.08.47-.21.12-.14.17-.32.14-.49-.15-1.04-.55-1.99-1.16-2.8-.6-.8-1.37-1.47-2.28-2.01-.91-.52-1.92-.93-3.05-1.2-1.13-.28-2.31-.41-3.56-.41-1.73,0-3.31.23-4.72.7-1.4.46-2.6,1.11-3.59,1.94-.98.83-1.75,1.82-2.27,2.95-.53,1.13-.79,2.36-.79,3.66,0,1.28.26,2.48.79,3.59.53,1.11,1.29,2.09,2.28,2.9.99.82,2.19,1.45,3.59,1.91,1.41.46,2.98.69,4.71.69,1.39,0,2.69-.16,3.87-.48,1.18-.32,2.23-.79,3.13-1.42.9-.62,1.64-1.39,2.2-2.29.56-.9.91-1.92,1.04-3.02.02-.18-.03-.35-.15-.49-.12-.13-.28-.21-.46-.21h0Z"/>
        <path d="M115.06,230.89l8.01-6.04c.21-.16.3-.44.21-.69-.09-.25-.32-.42-.58-.42h-6.01c-.14,0-.27.05-.38.14l-7.56,5.98v-5.5c0-.16-.06-.32-.18-.44-.11-.11-.28-.18-.44-.18h-4.81c-.16,0-.32.06-.44.18-.11.11-.18.28-.18.44v16.35c0,.17.06.32.18.44.12.12.28.18.44.18h4.81c.16,0,.32-.06.44-.18.12-.11.18-.27.18-.44v-4.96l2.06-1.56,6.21,6.92c.12.14.28.21.46.21h6.04c.24,0,.47-.14.56-.37.1-.23.05-.49-.12-.67l-8.91-9.39Z"/>
        <path d="M142.13,237.07h-11.19v-2.77h9.99c.16,0,.32-.06.44-.18.11-.11.18-.28.18-.44v-2.79c0-.16-.07-.32-.18-.44-.12-.11-.28-.18-.44-.18h-9.99v-2.27h10.94c.16,0,.32-.06.44-.18.11-.11.18-.27.18-.44v-3.02c0-.16-.06-.32-.18-.44-.11-.11-.28-.18-.44-.18h-16.37c-.16,0-.32.06-.43.18-.12.11-.18.28-.18.44v16.35c0,.17.06.32.18.44.11.12.27.18.43.18h16.62c.16,0,.32-.06.44-.18.12-.11.18-.27.18-.44v-3.02c0-.16-.06-.32-.18-.44-.11-.12-.27-.18-.44-.18h0Z"/>
        <path d="M164.38,239.67h0c-.1-.29-.17-.6-.22-.92h0c-.05-.35-.08-.7-.1-1.03-.02-.35-.04-.66-.06-.93h0c-.04-.46-.13-.91-.24-1.35-.13-.48-.34-.93-.63-1.33-.29-.41-.67-.77-1.12-1.05-.06-.04-.13-.06-.19-.09.62-.33,1.14-.73,1.52-1.22.63-.81.94-1.8.94-2.87,0-.73-.17-1.42-.52-2.05-.34-.63-.84-1.18-1.46-1.63-.62-.46-1.37-.81-2.21-1.07-.85-.25-1.8-.38-2.83-.38h-11.8c-.16,0-.32.06-.44.18-.11.11-.18.28-.18.44v16.35c0,.16.07.32.18.44.11.11.27.18.44.18h4.81c.16,0,.32-.06.43-.18.11-.11.18-.28.18-.44v-5.77h4.2c1.14,0,1.89.21,2.24.47.38.29.66.75.81,1.5.12.63.21,1.3.27,2,.06.78.24,1.48.56,2.08.11.21.32.33.55.33h4.81c.24,0,.47-.15.57-.38.09-.23.04-.49-.13-.67-.16-.16-.28-.35-.37-.6h0ZM150.88,227.77h4.66c1.04,0,1.76.18,2.15.44.19.13.31.27.4.45.09.19.15.44.15.77s-.06.61-.15.8c-.09.2-.22.34-.4.47-.39.26-1.1.45-2.14.45h-4.66v-3.37Z"/>
        <path d="M192.33,225.51c-.68-.55-1.54-.98-2.55-1.29-1.04-.32-2.27-.48-3.68-.48h-9.87c-.16,0-.32.06-.43.18-.11.12-.18.28-.18.44v16.35c0,.16.06.32.18.44.11.11.28.18.43.18h4.82c.16,0,.32-.06.43-.18.12-.11.18-.28.18-.44v-5.25h4.45c1.41,0,2.64-.15,3.68-.48,1.01-.32,1.87-.74,2.55-1.28.67-.54,1.18-1.18,1.5-1.92.31-.7.47-1.43.47-2.18s-.16-1.5-.47-2.19c-.31-.72-.82-1.36-1.49-1.9h0ZM181.65,227.77h3.12c.53,0,1.04.03,1.52.09.46.06.85.16,1.17.31.31.14.52.32.7.55h0c.14.19.23.46.23.9s-.09.7-.23.9c-.17.23-.39.41-.7.55-.32.14-.71.25-1.17.31-.49.06-.99.08-1.52.08h-3.12v-3.67Z"/>
        <path d="M215.32,223.74h-4.82c-.16,0-.32.06-.43.18-.11.12-.18.28-.18.44v10.17c0,1.12-.29,1.81-.77,2.22-.44.41-1.5.72-3.15.71-.94,0-1.66-.1-2.14-.28-.52-.18-.89-.41-1.13-.66-.26-.25-.41-.52-.49-.84-.09-.38-.14-.77-.14-1.16v-10.17c0-.16-.06-.32-.18-.44-.11-.11-.27-.18-.44-.18h-4.81c-.16,0-.32.06-.43.18-.11.12-.18.28-.18.44v10.17c-.01,2.37.91,4.29,2.72,5.46,1.77,1.16,4.18,1.71,7.22,1.71s5.4-.55,7.2-1.71c1.84-1.18,2.78-3.09,2.76-5.45v-10.17c0-.16-.06-.32-.18-.44-.12-.11-.28-.17-.44-.17h0Z"/>
        <path d="M238.01,223.74h-4.51c-.17,0-.32.06-.44.18-.11.12-.18.28-.18.44v9.34l-8.11-9.74c-.12-.14-.29-.22-.47-.22h-4.78c-.17,0-.32.06-.44.18-.12.12-.18.28-.18.44v16.35c0,.16.06.32.18.44.11.11.27.18.44.18h4.51c.16,0,.32-.06.43-.18.12-.11.18-.28.18-.44v-9.32l8.08,9.71c.12.14.29.22.47.22h4.82c.16,0,.32-.06.43-.18.12-.11.18-.28.18-.44v-16.35c0-.16-.06-.32-.18-.43-.11-.12-.27-.18-.43-.18Z"/>
        <path d="M261.73,233.8h-4.66c-.3,0-.56.21-.61.51-.17.97-.59,1.7-1.3,2.28-.68.56-1.68.87-3.06.87-1.02,0-1.87-.15-2.52-.42-.69-.28-1.22-.65-1.62-1.09-.42-.46-.71-.96-.9-1.53-.2-.59-.29-1.19-.29-1.81,0-.66.1-1.28.29-1.9.19-.59.49-1.11.9-1.57.4-.45.93-.82,1.62-1.1.66-.28,1.5-.42,2.52-.42.54,0,1.05.07,1.54.2.49.13.92.31,1.29.54.38.23.68.48.92.77.23.28.36.55.42.86.06.28.31.49.6.49h4.66c.18,0,.35-.08.46-.21.12-.14.17-.32.14-.49-.16-1.04-.54-1.99-1.16-2.8-.6-.8-1.37-1.47-2.28-2.01-.9-.52-1.92-.93-3.05-1.2-1.12-.28-2.32-.41-3.56-.41-1.73,0-3.31.23-4.72.7-1.4.46-2.6,1.11-3.59,1.94-.98.83-1.74,1.82-2.27,2.95-.53,1.13-.79,2.36-.79,3.66s.26,2.48.79,3.59c.53,1.11,1.29,2.09,2.28,2.9.99.82,2.19,1.45,3.59,1.91,1.41.46,2.99.69,4.71.69,1.39,0,2.69-.16,3.87-.48,1.18-.32,2.23-.79,3.13-1.42.9-.62,1.64-1.39,2.19-2.29.56-.9.9-1.92,1.04-3.02.02-.18-.04-.35-.15-.49-.11-.14-.28-.21-.46-.21h0Z"/>
        <path d="M284,223.92c-.11-.11-.27-.18-.43-.18h-4.81c-.16,0-.32.06-.44.18-.11.12-.18.28-.18.44v5.66h-7.63v-5.66c0-.16-.06-.32-.18-.44-.11-.11-.27-.18-.44-.18h-4.81c-.16,0-.32.06-.44.18-.11.12-.18.28-.18.44v16.35c0,.16.06.32.18.44.12.11.28.18.44.18h4.81c.17,0,.32-.06.44-.18.12-.11.18-.28.18-.44v-6.44h7.63v6.44c0,.16.06.32.18.44.11.11.28.18.44.18h4.81c.16,0,.32-.06.43-.18.11-.11.18-.28.18-.44v-16.35c0-.16-.07-.32-.18-.44Z"/>
      </g>
    </g>
  </g>
</svg>