<?xml version="1.0" encoding="UTF-8"?>
<svg id="b" data-name="Layer 2" xmlns="http://www.w3.org/2000/svg" xmlns:xlink="http://www.w3.org/1999/xlink" viewBox="0 0 320 93.17">
  <defs>
    <linearGradient id="d" x1="11.14" y1="345.61" x2="698.02" y2="345.61" gradientTransform="translate(-5.19 208.07) scale(.47 -.47)" gradientUnits="userSpaceOnUse">
      <stop offset="0" stop-color="#00cdfe"/>
      <stop offset=".33" stop-color="#c366f6"/>
      <stop offset=".67" stop-color="#fd6045"/>
      <stop offset="1" stop-color="#feba06"/>
    </linearGradient>
    <linearGradient id="f" x1="11.14" y1="344.49" x2="698.02" y2="344.49" xlink:href="#d"/>
    <linearGradient id="h" x1="11.14" y1="320.12" x2="698.02" y2="320.12" xlink:href="#d"/>
    <linearGradient id="j" x1="11.14" y1="319.15" x2="698.02" y2="319.15" xlink:href="#d"/>
    <linearGradient id="l" x1="11.14" y1="319.15" x2="698.02" y2="319.15" xlink:href="#d"/>
  </defs>
  <g id="c" data-name="Layer 1">
    <g>
      <g>
        <path id="e" data-name="path2626" d="M183.61.96c-4.78,0-8.66,3.88-8.66,8.66,0,3.83,2.51,7.16,6.09,8.26.3.09.6.28.79.54.18.24.28.54.28.84v2.95c0,1.88-1.52,3.4-3.4,3.4h-9.12c-12.76,0-23.06,10.58-23.06,23.34v20.87c0,12.76,10.58,23.34,23.34,23.34h27.5c12.76,0,23.34-10.58,23.34-23.34v-20.87c0-12.76-10.58-23.34-23.34-23.34h-8.84c-1.88,0-3.4-1.52-3.4-3.4v-2.95c0-.3.1-.6.28-.84.19-.26.48-.44.79-.54,3.58-1.1,6.08-4.43,6.09-8.26,0-4.78-3.88-8.66-8.66-8.66ZM171.97,54.98c4.8,0,8.7,3.89,8.7,8.7h0c0,4.8-3.89,8.7-8.7,8.7h0c-4.8,0-8.7-3.89-8.7-8.7h0c0-4.8,3.89-8.7,8.7-8.7ZM195.24,54.98c4.8,0,8.7,3.89,8.7,8.7,0,4.8-3.89,8.7-8.7,8.7h0c-4.8,0-8.7-3.89-8.7-8.7h0c0-4.8,3.89-8.7,8.7-8.7h0Z" fill="url(#d)"/>
        <path id="g" data-name="path2624" d="M235.17,2.01c-5.74,0-10.39,4.65-10.39,10.39v57.43c0,12.76,10.58,23.34,23.34,23.34h23.45c12.76,0,23.34-10.58,23.34-23.34v-20.87c0-12.76-10.58-23.34-23.34-23.34h-13.19c-5.49,0-9.94,4.45-9.94,9.94,0,5.49,4.45,9.94,9.94,9.94h12.28c2.09,0,3.46,1.37,3.46,3.46v20.87c0,2.09-1.37,3.46-3.46,3.46h-21.64c-2.09,0-3.47-1.37-3.46-3.46V12.4c0-5.74-4.65-10.39-10.39-10.39Z" fill="url(#f)"/>
        <path id="i" data-name="path2622" d="M309.61,24.71c-5.74,0-10.39,4.65-10.39,10.39v47.67c0,5.74,4.65,10.39,10.39,10.39,5.74,0,10.39-4.65,10.39-10.39v-47.67c0-5.74-4.65-10.39-10.39-10.39Z" fill="url(#h)"/>
        <path id="k" data-name="path2620" d="M23.34,25.61C10.58,25.61,0,36.19,0,48.95v20.87c0,12.76,10.58,23.34,23.34,23.34h13.19c5.49,0,9.94-4.45,9.94-9.94,0-5.49-4.45-9.94-9.94-9.94h-12.28c-2.09,0-3.46-1.37-3.46-3.46v-20.87c0-2.09,1.37-3.46,3.46-3.46h21.64c2.09,0,3.47,1.37,3.46,3.46v33.82c0,5.74,4.65,10.39,10.39,10.39,5.74,0,10.39-4.65,10.39-10.39v-33.82c0-12.76-10.58-23.34-23.34-23.34h-23.45Z" fill="url(#j)"/>
        <path id="m" data-name="path2618" d="M94.99,25.61c-11.95,0-21.86,9.9-21.86,21.86s9.9,21.86,21.86,21.86h25.64c1.21,0,1.98.77,1.98,1.98s-.77,1.98-1.98,1.98h-35.6c-5.53-.06-10.05,4.41-10.05,9.94s4.52,10,10.05,9.94h36.5c11.95,0,21.86-9.9,21.86-21.86s-9.9-21.86-21.86-21.86h-25.65c-1.21,0-1.98-.77-1.98-1.98s.77-1.98,1.98-1.98h35.6c5.55.09,10.09-4.39,10.09-9.94s-4.54-10.02-10.09-9.94h-36.5Z" fill="url(#l)"/>
      </g>
      <g>
        <path id="n" data-name="rect2485" d="M49.22.03c-3.75,0-6.85,3.1-6.85,6.85v4.63c0,3.75,3.1,6.85,6.85,6.85h3.1c1.37,0,2.48-1.1,2.49-2.47,0-1.37-1.1-2.48-2.47-2.49,0,0-.02,0-.02,0h-3.1c-1.09,0-1.89-.8-1.89-1.89v-4.63c0-1.09.8-1.89,1.89-1.89h5.06c1.09,0,1.89.8,1.89,1.89v8.96c-.03,1.37,1.06,2.5,2.43,2.53s2.5-1.06,2.53-2.43c0-.04,0-.07,0-.11V6.88C61.13,3.13,58.03.03,54.28.03h-5.06Z" fill="#00cdfe"/>
        <path id="o" data-name="rect2487" d="M4.27.03C2.9.03,1.79,1.14,1.79,2.51s1.11,2.48,2.48,2.48h3.91c.32,0,.58.26.58.58v10.27c0,1.37,1.11,2.48,2.48,2.48s2.48-1.11,2.48-2.48V5.57c0-.32.26-.58.58-.58h3.91c1.37,0,2.48-1.11,2.48-2.48S19.58.03,18.21.03H4.27Z" fill="#00cdfe"/>
        <path id="p" data-name="rect2492" d="M70.85.03c-3.75,0-6.85,3.1-6.85,6.85v8.96c0,1.37,1.11,2.48,2.48,2.48s2.48-1.11,2.48-2.48V6.88c0-1.09.8-1.89,1.89-1.89h3.03c.32,0,.58.26.58.58v10.27c-.06,1.41,1.07,2.58,2.48,2.58,1.41,0,2.54-1.17,2.48-2.58V5.57c0-.32.26-.58.58-.58h3.03c1.09,0,1.89.8,1.89,1.89v8.96c0,1.37,1.11,2.48,2.48,2.48s2.48-1.11,2.48-2.48V6.88c0-3.75-3.1-6.85-6.85-6.85h-12.18Z" fill="#00cdfe"/>
        <path id="q" data-name="path2496" d="M133.78.04c-1.27-.05-2.37.87-2.55,2.13-.81,5.23-4.17,9.36-8.18,11.89-1.17.72-1.53,2.24-.81,3.41s2.24,1.53,3.41.81c.01,0,.03-.02.04-.02,5.03-3.16,9.39-8.45,10.45-15.33.23-1.35-.68-2.63-2.03-2.86-.11-.02-.21-.03-.32-.03Z" fill="#00cdfe"/>
        <path id="r" data-name="path2499" d="M106.28,6.76c-1.37-.02-2.49,1.07-2.52,2.44-.08,2.61-1.33,3.76-3.24,4.74-1.23.6-1.74,2.09-1.13,3.32.6,1.23,2.09,1.74,3.32,1.13.02-.01.05-.02.07-.04,2.9-1.49,5.81-4.51,5.94-9,.06-1.37-1-2.53-2.37-2.59-.02,0-.05,0-.07,0h0Z" fill="#00cdfe"/>
        <path id="s" data-name="path2502" d="M120.11.57c-1.37.01-2.47,1.13-2.46,2.5,0,.5.16.98.44,1.39l2.08,3.09c.76,1.14,2.31,1.44,3.44.67s1.44-2.31.67-3.44l-2.08-3.09c-.46-.71-1.25-1.13-2.09-1.12Z" fill="#00cdfe"/>
        <path id="t" data-name="rect2504" d="M141.29,0c-1.37.02-2.46,1.15-2.44,2.51v4.58c-.02.19-.02.38,0,.58v3.84c0,3.75,3.1,6.85,6.85,6.85h9.61c1.37.01,2.49-1.09,2.5-2.46.01-1.37-1.09-2.49-2.46-2.5-.02,0-.03,0-.05,0h-9.61c-1.09,0-1.89-.8-1.89-1.89v-1.65h11.5c1.37.03,2.5-1.06,2.53-2.43s-1.06-2.5-2.43-2.53c-.03,0-.07,0-.1,0h-11.5v-2.39c.02-1.37-1.08-2.49-2.44-2.51-.02,0-.05,0-.07,0Z" fill="#00cdfe"/>
        <path id="u" data-name="path2514" d="M99.74.03c-1.37,0-2.48,1.1-2.49,2.47,0,1.37,1.1,2.48,2.47,2.49,0,0,.02,0,.02,0h9.47c1.6,0,1.91.44,1.94.49.03.05.17.37-.37,1.21-.75,1.14-.44,2.68.71,3.43s2.68.44,3.43-.71c.01-.02.02-.03.03-.05,1.21-1.89,1.66-4.33.5-6.36S111.88.03,109.2.03h-9.47Z" fill="#00cdfe"/>
        <path id="v" data-name="path2518" d="M28.44.03c-3.75,0-6.85,3.1-6.85,6.85v4.63c0,3.75,3.1,6.85,6.85,6.85h8.48c1.37,0,2.48-1.1,2.49-2.47,0-1.37-1.1-2.48-2.47-2.49,0,0-.02,0-.02,0h-8.48c-1.09,0-1.89-.8-1.89-1.89v-4.63c0-1.09.8-1.89,1.89-1.89h6.21c.51,0,.86.36.86.86s-.36.86-.86.86h-4.29c-1.37,0-2.48,1.1-2.49,2.47s1.1,2.48,2.47,2.49c0,0,.02,0,.02,0h4.29c3.18,0,5.82-2.64,5.82-5.82S37.84.03,34.66.03h-6.21Z" fill="#00cdfe"/>
        <path id="w" data-name="path2580" d="M150.88,0c-1,0-1.81.81-1.81,1.81h0c0,1,.81,1.81,1.81,1.81,1,0,1.81-.81,1.81-1.81C152.69.81,151.88,0,150.88,0Z" fill="#00cdfe"/>
        <path id="x" data-name="path2550" d="M155.93,0c-1,0-1.81.81-1.81,1.81h0c0,1,.81,1.81,1.81,1.81,1,0,1.81-.81,1.81-1.81C157.73.81,156.92,0,155.93,0Z" fill="#00cdfe"/>
      </g>
    </g>
  </g>
</svg>