<?xml version="1.0" encoding="UTF-8"?>
<svg id="b" data-name="Layer 1" xmlns="http://www.w3.org/2000/svg" xmlns:xlink="http://www.w3.org/1999/xlink" viewBox="0 0 320.04 320">
  <defs>
    <linearGradient id="d" x1="210.02" y1="-658.77" x2="210.02" y2="-338.77" gradientTransform="translate(-50 658.77)" gradientUnits="userSpaceOnUse">
      <stop offset="0" stop-color="#18bffb"/>
      <stop offset="1" stop-color="#2072f3"/>
    </linearGradient>
  </defs>
  <g id="c">
    <g>
      <path d="M255.36,0H64.64C28.92,0,0,28.92,0,64.64v190.76c0,35.68,28.92,64.6,64.64,64.6h190.76c35.68,0,64.64-28.92,64.64-64.64V64.64c-.04-35.72-28.96-64.64-64.68-64.64Z" fill="url(#d)"/>
      <path d="M158.64,73.52l6.48-11.2c4-7,12.92-9.36,19.92-5.36,7,4,9.36,12.92,5.36,19.92l-62.44,108.08h45.16c14.64,0,22.84,17.2,16.48,29.12H57.2c-8.08,0-14.56-6.48-14.56-14.56s6.48-14.56,14.56-14.56h37.12l47.52-82.36-14.84-25.76c-4-7-1.64-15.84,5.36-19.92,7-4,15.84-1.64,19.92,5.36l6.36,11.24h0ZM102.48,229.08l-14,24.28c-4,7-12.92,9.36-19.92,5.36s-9.36-12.92-5.36-19.92l10.4-18c11.76-3.64,21.32-.84,28.88,8.28h0ZM223.04,185.04h37.88c8.08,0,14.56,6.48,14.56,14.56s-6.48,14.56-14.56,14.56h-21.04l14.2,24.64c4,7,1.64,15.84-5.36,19.92-7,4-15.84,1.64-19.92-5.36-23.92-41.48-41.88-72.52-53.8-93.2-12.2-21.04-3.48-42.16,5.12-49.32,9.56,16.4,23.84,41.16,42.92,74.2h0Z" fill="#fff"/>
    </g>
  </g>
</svg>