<?xml version="1.0" encoding="UTF-8"?>
<svg id="a" data-name="Layer 1" xmlns="http://www.w3.org/2000/svg" xmlns:xlink="http://www.w3.org/1999/xlink" viewBox="0 0 512 512">
  <defs>
    <linearGradient id="b" x1="306" y1="372" x2="306" y2="884" gradientTransform="translate(-50 884) scale(1 -1)" gradientUnits="userSpaceOnUse">
      <stop offset="0" stop-color="#18bffb"/>
      <stop offset="1" stop-color="#2072f3"/>
    </linearGradient>
  </defs>
  <rect width="512" height="512" fill="url(#b)"/>
  <path d="M255.54,163.31l7.13-12.31c4.4-7.7,14.21-10.29,21.9-5.9,7.7,4.39,10.29,14.21,5.9,21.9l-68.65,118.83h49.65c16.1,0,25.11,18.91,18.12,32.02h-145.58c-8.88,0-16.01-7.13-16.01-16.01s7.13-16.01,16.01-16.01h40.82l52.25-90.55-16.32-28.32c-4.4-7.7-1.8-17.42,5.9-21.9,7.7-4.4,17.42-1.8,21.9,5.9l6.99,12.36h0ZM193.79,334.35l-15.39,26.7c-4.4,7.7-14.21,10.29-21.9,5.9-7.7-4.4-10.29-14.21-5.9-21.9l11.43-19.79c12.93-4,23.44-.92,31.75,9.1h0ZM326.34,285.93h41.65c8.88,0,16.01,7.13,16.01,16.01s-7.13,16.01-16.01,16.01h-23.14l15.62,27.09c4.4,7.7,1.8,17.42-5.9,21.9-7.7,4.4-17.42,1.8-21.9-5.9-26.3-45.61-46.05-79.74-59.15-102.47-13.42-23.14-3.82-46.35,5.63-54.22,10.51,18.03,26.21,45.26,47.19,81.58h0Z" fill="#fff"/>
</svg>