<?xml version="1.0" encoding="UTF-8"?>
<svg id="a" data-name="Layer 1" xmlns="http://www.w3.org/2000/svg" viewBox="0 0 512 512">
  <rect width="512" height="512" fill="#148eff"/>
  <path d="M340.45,221.61c7.42-22.82,8.81-43.62,3.75-59.39l-.14-.45c-.3-.86-1.06-2.66-2.02-2.66-.73,0-.74,1.21-.7,1.82l.05.36c1.61,14.08-2.7,34.16-11.36,55.19-17.75-8.06-39.07-14.5-62.73-18.29-21.26-3.42-41.61-4.18-60.05-2.66,2.18-14.51,7.62-24.61,16.51-26.74,12.24-2.92,25.59,5.13,38.33,19.78,2.2.3,4.41.62,6.61.98,6.29,1.01,12.46,2.21,18.5,3.59-23.22-43.67-54.35-68.15-78.03-59.11-18.02,6.87-27.22,31.66-26.14,64.99-23.46,4.99-42.18,14.19-53.31,26.45l-.3.34c-.6.7-1.78,2.26-1.3,3.08.36.62,1.41.02,1.93-.31l.28-.22c11.39-8.43,30.94-14.74,53.47-17.77,1.9,19.41,6.98,41.08,15.51,63.47,7.67,20.12,17.19,38.12,27.73,53.35-13.66,5.37-25.13,5.71-31.42-.92-8.66-9.14-8.37-24.73-2.04-43.09-.84-2.06-1.66-4.13-2.46-6.22-2.24-5.87-4.29-11.82-6.14-17.82-26.22,41.94-31.84,81.15-12.18,97.14,14.96,12.18,41.04,7.74,69.35-9.86,16.06,17.82,33.38,29.44,49.56,32.94l.46.1c.9.17,2.83.42,3.31-.42.37-.63-.68-1.24-1.23-1.51l-.33-.14c-13-5.64-28.24-19.42-42.12-37.42,15.86-11.34,32.09-26.59,47.21-45.18,13.58-16.7,24.41-33.94,32.34-50.68,11.47,9.16,17.5,18.9,14.91,27.66-3.58,12.08-17.23,19.62-36.3,23.31-5.22,6.73-10.73,13.22-16.52,19.46,49.43,1.74,86.19-13.01,90.2-38.02,3.06-19.05-13.81-39.42-43.22-55.13M297.51,271.52c-17.42,21.43-39.15,39.66-58.48,50.21-7.38-11.79-13.62-24.26-18.62-37.24-9.84-25.81-14.78-53.75-14.25-75.76,13.9-.5,27.82.34,41.57,2.5,27.26,4.39,53.93,14.08,72.73,25.54-6.53,12.29-14.21,23.93-22.94,34.75" fill="#fff"/>
</svg>