<?xml version="1.0" encoding="UTF-8"?>
<svg id="b" data-name="Layer 2" xmlns="http://www.w3.org/2000/svg" viewBox="0 0 320 309.6">
  <g id="c">
    <path d="M265.54,111.81c9.27-28.52,11.01-54.53,4.69-74.24l-.18-.56c-.38-1.07-1.33-3.32-2.52-3.32-.91,0-.92,1.51-.87,2.28l.06.45c2.01,17.6-3.38,42.7-14.2,68.99-22.19-10.07-48.84-18.12-78.41-22.86-26.57-4.28-52.01-5.22-75.06-3.33,2.73-18.14,9.52-30.76,20.64-33.43,15.3-3.65,31.99,6.41,47.91,24.72,2.75.37,5.51.78,8.26,1.22,7.86,1.26,15.57,2.76,23.13,4.49C169.97,21.63,131.05-8.97,101.45,2.33c-22.53,8.59-34.03,39.58-32.67,81.24-29.33,6.24-52.73,17.74-66.64,33.06l-.38.42c-.75.87-2.23,2.82-1.63,3.85.45.78,1.76.03,2.41-.39l.35-.27c14.24-10.54,38.67-18.43,66.84-22.21,2.37,24.26,8.73,51.35,19.39,79.33,9.59,25.15,21.49,47.65,34.66,66.68-17.08,6.71-31.41,7.14-39.27-1.15-10.83-11.42-10.46-30.91-2.55-53.86-1.05-2.57-2.07-5.16-3.08-7.77-2.8-7.34-5.36-14.77-7.67-22.27-32.77,52.42-39.8,101.43-15.22,121.42,18.7,15.22,51.3,9.68,86.68-12.32,20.08,22.28,41.73,36.8,61.95,41.18l.57.12c1.12.21,3.54.52,4.14-.52.46-.79-.85-1.55-1.54-1.89l-.41-.18c-16.25-7.05-35.3-24.27-52.65-46.78,19.82-14.18,40.11-33.24,59.01-56.47,16.98-20.87,30.51-42.43,40.42-63.35,14.34,11.45,21.88,23.63,18.64,34.58-4.48,15.1-21.54,24.52-45.37,29.14-6.52,8.41-13.41,16.53-20.65,24.33,61.78,2.17,107.73-16.26,112.75-47.52,3.83-23.81-17.26-49.27-54.02-68.91M211.87,174.2c-21.78,26.79-48.94,49.58-73.1,62.76-9.22-14.74-17.02-30.33-23.28-46.55-12.3-32.26-18.47-67.19-17.81-94.7,17.38-.62,34.78.43,51.96,3.12,34.08,5.49,67.41,17.6,90.91,31.92-8.16,15.36-17.76,29.91-28.68,43.44" fill="#148eff"/>
  </g>
</svg>