<?xml version="1.0" encoding="UTF-8"?>
<svg id="b" data-name="Layer 2" xmlns="http://www.w3.org/2000/svg" viewBox="0 0 275.77 320">
  <g id="c">
    <g id="d">
      <g id="e">
        <path id="f" d="M250.72,0H25.04C6.75,0,0,6.75,0,25.05v220.83c0,2.07.08,3.99.27,5.78.42,3.99.49,7.87,4.21,12.27.36.43,4.16,3.25,4.16,3.25,2.04,1,3.43,1.74,5.73,2.66l111.13,46.56c5.77,2.64,8.18,3.68,12.37,3.59h0s.01,0,.02,0h.02c4.19.08,6.6-.95,12.37-3.59l111.13-46.56c2.3-.93,3.69-1.66,5.73-2.66,0,0,3.79-2.82,4.16-3.25,3.72-4.41,3.79-8.28,4.21-12.27.18-1.78.27-3.71.27-5.78V25.05c0-18.3-6.75-25.05-25.04-25.05" fill="#2f2d2e" fill-rule="evenodd"/>
      </g>
      <g id="g">
        <path id="h" d="M235.61,222.01l-.05.51-.05.56-.1.51-.15.51-.1.46-.15.51-.2.46-.2.41-.2.46-.25.41-.25.41-.3.41-.26.41-.3.36-.36.36-.3.31-.41.36-.35.31-.41.31-.4.25-.4.31-.46.25-.46.2-.46.25-.51.2-.51.2-.51.15-.51.15-.46.15-.51.1-.46.1-.46.1-.51.1-.51.05-.46.05-.51.05-.56.05-.51.05h-2.13l-.51-.05h-.56l-.51-.05-.51-.05-.56-.05-.51-.1-.51-.05-.51-.1-.51-.1-.51-.1-.51-.1-.51-.15-.46-.1-.51-.15-.51-.15-.46-.2-.51-.15-.46-.15-.51-.2-.46-.2-.46-.2-.46-.25-.46-.2-.46-.26-.4-.25-.46-.26-.4-.25-.41-.25-.4-.31-.4-.31-.41-.31-.41-.31-.36-.31-.4-.36.31-.41.35-.36.31-.41.35-.41.31-.36.3-.41.36-.41.3-.36.36-.41.3-.36.36-.41.3-.41.31-.36.35-.41.31-.41.35-.36.31-.41.4.31.46.31.41.31.46.31.41.25.46.31.4.26.46.2.4.26.46.2.46.2.46.2.46.15.46.2.51.15.51.15.46.15.51.1.51.1.51.1.56.05.51.1h.51l.56.05h1.11l.56-.05.51-.1.46-.1.46-.1.41-.15.35-.2.41-.31.3-.36.2-.41.15-.46.05-.51v-.1l-.05-.61-.2-.51-.26-.36-.35-.31-.41-.31-.4-.2-.46-.2-.51-.2-.61-.25-.35-.1-.4-.1-.46-.15-.46-.1-.51-.15-.51-.1-.56-.15-.51-.1-.56-.15-.51-.1-.51-.15-.51-.1-.51-.15-.46-.15-.51-.1-.46-.15-.46-.15-.46-.15-.56-.2-.51-.2-.51-.2-.51-.2-.46-.25-.51-.25-.41-.25-.46-.25-.4-.31-.41-.25-.35-.31-.36-.36-.35-.36-.31-.36-.3-.36-.26-.36-.25-.41-.25-.46-.2-.35-.15-.41-.15-.46-.15-.41-.1-.51-.1-.46-.05-.51-.05-.51-.05-.56v-1.17l.05-.51.05-.46.05-.51.1-.46.1-.46.15-.46.1-.46.2-.46.2-.46.2-.46.25-.46.25-.46.3-.41.31-.41.35-.41.36-.36.35-.41.41-.36.35-.25.41-.31.41-.31.4-.25.46-.25.46-.2.46-.25.46-.2.51-.15.51-.2.46-.15.4-.1.46-.1.46-.1.51-.1.46-.1.51-.05.51-.05.51-.05.51-.05h2.18l.56.05.56.05h.51l.56.05.51.1.56.05.51.1.46.1.51.1.51.1.46.1.51.15.46.15.46.1.51.2.46.15.46.2.46.2.51.2.46.25.4.2.46.25.46.25.4.26.46.31.41.25.41.31.4.31.4.31-.3.41-.25.41-.3.41-.31.41-.3.46-.26.41-.31.41-.3.41-.25.41-.3.41-.31.41-.26.41-.3.46-.31.41-.3.41-.25.41-.3.41-.41-.31-.46-.26-.41-.25-.41-.31-.46-.2-.41-.26-.46-.2-.4-.2-.46-.2-.4-.2-.46-.15-.41-.2-.56-.15-.51-.15-.51-.15-.51-.1-.51-.1-.51-.1-.51-.05-.51-.05-.46-.05h-1.11l-.56.1-.51.1-.46.1-.4.2-.36.2-.46.41-.31.46-.2.46-.05.51v.1l.05.66.25.56.2.31.35.36.46.25.4.25.51.2.56.2.61.2.4.1.4.15.46.1.46.15.51.1.56.15.56.15.56.15.56.1.51.15.56.15.51.1.51.15.51.15.46.15.51.15.46.15.46.15.56.2.51.26.51.2.51.25.46.26.46.25.4.25.41.31.41.25.4.36.41.36.35.41.36.36.3.41.31.46.25.41.26.46.2.41.15.46.15.46.1.46.1.51.1.51.05.51.05.56v1.22l-.05.56ZM200.04,232.2h-29.06v-37.08h29.31v8.41h-19.63v6.06h17.65v7.89h-17.65v6.32h19.88v8.4h-.51ZM162.99,232.2h-9.28v-21.92l-.25.41-.3.46-.26.41-.3.41-.25.46-.31.41-.25.41-.26.46-.3.41-.26.41-.31.41-.25.46-.31.41-.25.41-.26.46-.31.41-.25.41-.31.46-.25.41-.31.41-.25.46-.26.41-.31.41-.25.46-.31.41-.25.41-.31.41-.26.46-.25.41-.31.41-.25.46-.31.41-.25.41-.3.46-.25.41h-.2l-.31-.46-.26-.41-.3-.46-.25-.41-.3-.46-.25-.41-.3-.46-.26-.41-.31-.46-.25-.41-.31-.46-.25-.41-.31-.46-.26-.41-.3-.46-.26-.41-.3-.46-.31-.41-.25-.46-.3-.41-.25-.46-.3-.41-.25-.46-.3-.41-.25-.46-.31-.41-.25-.46-.31-.41-.25-.46-.31-.41-.25-.46-.3-.41-.26-.46-.3-.41v21.82h-9.64v-37.08h10.4l.25.41.25.46.3.4.26.46.25.41.25.46.25.4.3.46.25.41.26.41.25.46.25.41.3.46.25.41.25.46.25.41.31.41.26.46.25.41.25.46.25.41.31.46.25.41.25.46.26.4.25.41.31.46.25.41.25.46.25.4.25.46.31.41.25.46.25.41.25-.41.25-.46.3-.41.25-.46.25-.4.25-.46.3-.41.25-.46.26-.41.25-.4.31-.46.25-.41.26-.46.25-.41.3-.46.25-.41.26-.46.25-.41.26-.41.3-.46.25-.41.25-.46.25-.41.31-.46.25-.41.25-.41.26-.46.3-.4.26-.46.25-.41.26-.46.31-.4.25-.46.25-.41h10.39v37.08h-.51ZM104.16,216.92l-.15-.46-.2-.51-.2-.46-.15-.46-.2-.46-.2-.51-.15-.46-.2-.46-.2-.46-.15-.46-.2-.51-.15-.46-.2-.46-.2-.46-.15-.46-.2-.51-.2-.46-.15-.46-.2-.46-.2-.51-.15-.46-.2-.46-.2.46-.15.46-.2.51-.2.46-.15.46-.2.46-.2.51-.2.46-.15.46-.2.46-.2.46-.15.51-.2.46-.2.46-.15.46-.2.46-.2.51-.2.46-.15.46-.2.46-.2.51-.15.46-.2.46h8.57l-.2-.46ZM120.08,232.2h-9.94l-.2-.46-.15-.46-.2-.46-.2-.51-.15-.46-.2-.46-.2-.46-.15-.46-.2-.46-.2-.46-.15-.46-.2-.51-.2-.46-.15-.46-.2-.46h-14.55l-.2.46-.15.46-.2.46-.2.51-.15.46-.2.46-.2.46-.15.46-.2.46-.2.46-.15.46-.2.51-.2.46-.15.46-.2.46h-10.24l.2-.46.2-.46.2-.46.2-.51.15-.46.2-.46.2-.46.2-.46.2-.46.2-.51.2-.46.2-.46.15-.46.2-.46.2-.46.2-.51.2-.46.2-.46.2-.46.2-.46.15-.46.2-.51.2-.46.2-.46.2-.46.2-.46.2-.46.2-.51.15-.46.2-.46.2-.46.2-.46.2-.46.2-.51.2-.46.2-.46.15-.46.2-.46.2-.46.2-.51.2-.46.2-.46.2-.46.2-.46.15-.46.2-.46.2-.51.2-.46.2-.46.2-.46.2-.46.2-.46.15-.51.2-.46.2-.46.2-.46.2-.46.2-.46.2-.51.2-.46.15-.46.2-.46.2-.46.2-.46.2-.51.2-.46.2-.46.2-.46.15-.46.2-.46.2-.51.2-.46.2-.46.2-.46.2-.46.2-.46.15-.51.2-.46.2-.46.2-.46h9.38l.2.46.2.46.2.46.2.51.15.46.2.46.2.46.2.46.2.46.2.51.2.46.2.46.15.46.2.46.2.46.2.51.2.46.2.46.2.46.2.46.15.46.2.51.2.46.2.46.2.46.2.46.2.46.2.51.15.46.2.46.2.46.2.46.2.46.2.51.2.46.2.46.15.46.2.46.2.46.2.46.2.51.2.46.2.46.2.46.15.46.2.46.2.51.2.46.2.46.2.46.2.46.2.46.15.51.2.46.2.46.2.46.2.46.2.46.2.51.2.46.15.46.2.46.2.46.2.46.2.51.2.46.2.46.2.46.15.46.2.46.2.51.2.46.2.46.2.46.2.46.2.46.15.51.2.46.2.46.2.46h-.51ZM75.66,227.46l-.41.31-.35.26-.41.31-.4.25-.4.31-.41.25-.4.26-.46.25-.46.26-.46.25-.46.2-.46.26-.51.2-.46.2-.51.2-.46.2-.46.15-.46.15-.46.15-.51.15-.46.15-.51.1-.46.1-.51.1-.51.1-.51.05-.56.05-.51.05-.56.05-.51.05-.56.05h-2.18l-.51-.05-.56-.05-.51-.05-.51-.05-.51-.05-.51-.1-.51-.1-.46-.1-.51-.1-.46-.15-.51-.1-.46-.15-.46-.2-.46-.15-.51-.2-.46-.2-.46-.2-.46-.2-.46-.25-.4-.25-.46-.25-.41-.26-.4-.25-.41-.31-.4-.31-.41-.31-.36-.31-.35-.31-.36-.36-.35-.31-.36-.36-.35-.36-.31-.36-.3-.41-.31-.36-.25-.41-.3-.41-.25-.41-.25-.41-.25-.46-.25-.41-.2-.46-.2-.46-.2-.46-.2-.46-.15-.41-.2-.46-.1-.46-.15-.46-.1-.51-.15-.46-.1-.51-.05-.46-.1-.51-.05-.46-.05-.51-.05-.51-.05-.51v-1.68l.05-.56v-.51l.05-.51.05-.56.1-.51.05-.51.1-.46.15-.51.1-.51.15-.46.15-.51.15-.46.2-.51.2-.46.2-.46.2-.46.2-.46.25-.46.25-.41.25-.41.25-.41.26-.41.3-.41.31-.41.3-.41.31-.36.35-.36.31-.36.35-.36.36-.36.35-.31.41-.36.35-.31.4-.31.41-.25.4-.31.41-.25.4-.25.46-.26.46-.25.46-.25.46-.2.46-.2.51-.26.4-.15.51-.15.46-.2.46-.1.46-.15.51-.1.46-.15.51-.1.51-.05.51-.1.51-.05.51-.05.51-.05.51-.05h2.18l.56.05.56.05h.51l.51.05.56.1.46.05.51.1.51.1.46.1.46.1.46.1.46.15.46.1.4.15.46.15.46.2.46.2.46.2.46.25.46.2.41.25.46.25.4.25.46.26.4.31.4.26.41.31.4.31.41.36.4.31-.31.41-.35.36-.31.41-.35.41-.31.41-.3.36-.36.41-.3.41-.31.36-.35.41-.31.41-.35.41-.31.36-.3.41-.36.41-.3.41-.36.36-.3.41-.41-.31-.4-.36-.41-.26-.4-.31-.4-.25-.41-.26-.41-.25-.46-.26-.41-.2-.4-.2-.41-.15-.46-.15-.46-.15-.46-.1-.51-.1-.51-.1-.51-.05-.56-.05-.56-.05h-1.06l-.51.05-.46.05-.51.1-.46.1-.46.15-.46.15-.46.2-.46.2-.41.25-.4.26-.41.26-.35.31-.36.31-.35.31-.31.36-.35.36-.31.41-.25.36-.25.41-.25.46-.26.41-.2.46-.15.46-.2.46-.15.51-.1.51-.1.46-.1.56-.05.51-.05.51v1.17l.05.51.05.46.05.51.1.46.1.46.1.46.15.46.15.41.2.51.2.46.25.46.25.41.25.41.3.41.31.36.35.36.31.36.35.31.41.31.4.31.4.25.41.25.46.2.46.2.46.2.51.15.51.15.51.1.51.1.51.05.56.05h1.17l.56-.05.56-.05.51-.05.51-.1.51-.1.51-.15.46-.1.46-.2.41-.2.46-.2.36-.2.41-.26v-4.63h-7.4v-7.43h16.73v16.55l-.35.31Z" fill="#fff"/>
      </g>
      <g id="i">
        <path id="j" d="M59.35,111.23h21.98v-17h-21.98v-34.71h22.85v-17h-41.52v122.69h41.86v-17h-23.2v-36.99Z" fill="#fff"/>
      </g>
      <g id="k">
        <path id="l" d="M216.77,114.91v27.69c0,4.91-2.27,7.19-6.98,7.19h-3.49c-4.88,0-7.15-2.28-7.15-7.19v-77.47c0-4.91,2.27-7.18,7.15-7.18h3.14c4.71,0,6.98,2.28,6.98,7.18v24.02h18.31v-25.07c0-15.25-7.33-22.61-22.5-22.61h-9.07c-15.17,0-22.68,7.54-22.68,22.79v79.22c0,15.25,7.5,22.79,22.68,22.79h9.25c15.18,0,22.68-7.54,22.68-22.79v-28.57h-18.32Z" fill="#fff"/>
      </g>
      <path id="m" d="M151.95,165.22h18.67V42.52h-18.67v122.69Z" fill="#fff"/>
      <g id="n">
        <path id="o" d="M124.87,97.03c0,4.91-2.27,7.19-6.98,7.19h-7.68v-45.22h7.68c4.71,0,6.98,2.28,6.98,7.18v30.85ZM120.86,42.52h-29.3v122.69h18.66v-44.52h10.64c15.18,0,22.68-7.54,22.68-22.78v-32.6c0-15.25-7.5-22.79-22.68-22.79" fill="#fff"/>
      </g>
      <g id="p">
        <path id="q" d="M84.71,276.16h106.84l-54.53,17.98-52.31-17.98Z" fill="#fff" fill-rule="evenodd"/>
      </g>
    </g>
  </g>
</svg>