<?xml version="1.0" encoding="UTF-8"?>
<svg id="a" data-name="Layer 1" xmlns="http://www.w3.org/2000/svg" viewBox="0 0 512 512">
  <rect width="512" height="512" fill="#121216"/>
  <path d="M346.28,128h-180.57c-14.63,0-20.03,5.4-20.03,20.04v176.67c0,1.66.06,3.19.22,4.62.34,3.19.39,6.3,3.37,9.82.29.34,3.33,2.6,3.33,2.6,1.63.8,2.74,1.39,4.58,2.13l88.91,37.25c4.62,2.11,6.54,2.94,9.9,2.87h.03c3.35.06,5.28-.76,9.9-2.87l88.91-37.25c1.84-.74,2.95-1.33,4.58-2.13,0,0,3.03-2.26,3.33-2.6,2.98-3.53,3.03-6.62,3.37-9.82.14-1.42.22-2.97.22-4.62v-176.67c0-14.64-5.4-20.04-20.03-20.04ZM267.25,260.17v-98.16h14.94v98.16h-14.94ZM260.89,295.83l.2-.33.2-.37.24-.33.2-.37.2-.32.2-.37.24-.33.2-.37.21-.33.2-.32.25-.37.2-.33.21-.37.2-.33.24-.37.2-.33.21-.37.2-.33.21-.33.24-.37.2-.33.2-.37.2-.33.25-.37.2-.33.2-.33.21-.37.24-.32.21-.37.2-.33.21-.37.25-.32.2-.37.2-.33h8.31v29.66h-.32s-7.42,0-7.42,0v-17.54l-.2.33-.24.37-.21.33-.24.33-.2.37-.25.33-.2.33-.21.37-.24.33-.21.33-.25.33-.2.37-.25.33-.2.33-.21.37-.25.33-.2.33-.25.37-.2.33-.25.33-.2.37-.21.33-.25.33-.2.37-.25.33-.2.33-.25.33-.21.37-.2.33-.25.33-.2.37-.25.33-.2.33-.24.37-.2.33h-.16l-.25-.37-.21-.33-.24-.37-.2-.33-.24-.37-.2-.33-.24-.37-.21-.33-.25-.37-.2-.33-.25-.37-.2-.33-.25-.37-.21-.33-.24-.37-.21-.33-.24-.37-.25-.33-.2-.37-.24-.33-.2-.37-.24-.33-.2-.37-.24-.33-.2-.37-.25-.33-.2-.37-.25-.33-.2-.37-.25-.33-.2-.37-.24-.33-.21-.37-.24-.33v17.46h-7.71v-29.66h8.32l.2.33.2.37.24.32.21.37.2.33.2.37.2.32.24.37.2.33.21.33.2.37.2.33.24.37.2.33.2.37.2.33.25.33.21.37.2.33.2.37.2.33.25.37.2.33.2.37.21.32.2.33.25.37.2.33.2.37.2.32.2.37.25.33.2.37.2.33ZM218.93,162.01h23.44c12.14,0,18.14,6.03,18.14,18.23v26.08c0,12.19-6,18.22-18.14,18.22h-8.51v35.62h-14.93v-98.16ZM178.23,162.01h33.22v13.6h-18.28v27.77h17.58v13.6h-17.59s0,29.58,0,29.58h18.56v13.6h-33.49v-98.16ZM206.47,309.74l-.28.25.02-.02h0s-.33.25-.33.25l-.28.21-.33.25-.32.2-.32.25-.33.2-.32.21-.37.2-.37.21-.37.2-.37.16-.37.21-.41.16-.37.16-.41.16-.37.16-.37.12-.37.12-.37.12-.41.12-.37.12-.41.08-.37.08-.41.08-.41.08-.41.04-.45.04-.41.04-.45.04-.41.04-.45.04h-1.74l-.41-.04-.45-.04-.41-.04-.41-.04-.41-.04-.41-.08-.41-.08-.37-.08-.41-.08-.37-.12-.41-.08-.37-.12-.37-.16-.37-.12-.41-.16-.37-.16-.37-.16-.37-.16-.37-.2-.32-.2-.37-.2-.33-.21-.32-.2-.33-.25-.32-.25-.33-.25-.29-.25-.28-.25-.29-.29-.28-.25-.29-.29-.28-.29-.25-.29-.24-.33-.25-.29-.2-.33-.24-.33-.2-.33-.2-.33-.2-.37-.2-.33-.16-.37-.16-.37-.16-.37-.16-.37-.12-.33-.16-.37-.08-.37-.12-.37-.08-.41-.12-.37-.08-.41-.04-.37-.08-.41-.04-.37-.04-.41-.04-.41-.04-.41v-1.34l.04-.45v-.41l.04-.41.04-.45.08-.41.04-.41.08-.37.12-.41.08-.41.12-.37.12-.41.12-.37.16-.41.16-.37.16-.37.16-.37.16-.37.2-.37.2-.33.2-.33.2-.33.21-.33.24-.33.25-.33.24-.33.25-.29.28-.29.25-.29.28-.29.29-.29.28-.25.33-.29.28-.25.32-.25.33-.2.32-.25.33-.2.32-.2.37-.21.37-.2.37-.2.37-.16.37-.16.41-.21.32-.12.41-.12.37-.16.37-.08.37-.12.41-.08.37-.12.41-.08.41-.04.41-.08.41-.04.41-.04.41-.04.41-.04h1.74l.45.04.45.04h.41l.41.04.45.08.37.04.41.08.41.08.37.08.37.08.37.08.37.12.37.08.32.12.37.12.37.16.37.16.37.16.37.2.37.16.33.2.37.2.32.2.37.21.32.25.32.21.33.25.32.25.33.29.32.25-.25.33-.28.29-.25.33-.28.33-.25.33-.24.29-.29.33-.24.33-.25.29-.28.33-.25.33-.28.33-.25.29-.24.33-.29.33-.24.33-.29.29-.24.33-.33-.25-.32-.29-.33-.21-.32-.25-.32-.2-.33-.21-.33-.2-.37-.21-.33-.16-.32-.16-.33-.12-.37-.12-.37-.12-.37-.08-.41-.08-.41-.08-.41-.04-.45-.04-.45-.04h-.85l-.41.04-.37.04-.41.08-.37.08-.37.12-.37.12-.37.16-.37.16-.33.2-.32.21-.33.21-.28.25-.29.25-.28.25-.25.29-.28.29-.25.33-.2.29-.2.33-.2.37-.21.33-.16.37-.12.37-.16.37-.12.41-.08.41-.08.37-.08.45-.04.41-.04.41v.94l.04.41.04.37.04.41.08.37.08.37.08.37.12.37.12.33.16.41.16.37.2.37.2.33.2.33.24.33.25.29.28.29.25.29.28.25.33.25.32.25.32.2.33.2.37.16.37.16.37.16.41.12.41.12.41.08.41.08.41.04.45.04h.94l.45-.04.45-.04.41-.04.41-.08.41-.08.41-.12.37-.08.37-.16.33-.16.37-.16.29-.16.33-.21v-3.7h-5.92v-5.94h13.38v13.24ZM209.73,313.4l.16-.37.16-.37.16-.41.12-.37.16-.37.16-.37.16-.37.16-.37.16-.41.16-.37.16-.37.12-.37.16-.37.16-.37.16-.41.16-.37.16-.37.16-.37.16-.37.12-.37.16-.41.16-.37.16-.37.16-.37.16-.37.16-.37.16-.41.12-.37.16-.37.16-.37.16-.37.16-.37.16-.41.16-.37.16-.37.12-.37.16-.37.16-.37.16-.41.16-.37.16-.37.16-.37.16-.37.12-.37.16-.37.16-.41.16-.37.16-.37.16-.37.16-.37.16-.37.12-.41.16-.37.16-.37.16-.37.16-.37.16-.37.16-.41.16-.37.12-.37.16-.37.16-.37.16-.37.16-.41.16-.37.16-.37.16-.37.12-.37.16-.37.16-.41.16-.37.16-.37.16-.37.16-.37.16-.37.12-.41.16-.37.16-.37.16-.37h7.5l.16.37.16.37.16.37.16.41.12.37.16.37.16.37.16.37.16.37.16.41.16.37.16.37.12.37.16.37.16.37.16.41.16.37.16.37.16.37.16.37.12.37.16.41.16.37.16.37.16.37.16.37.16.37.16.41.12.37.16.37.16.37.16.37.16.37.16.41.16.37.16.37.12.37.16.37.16.37.16.37.16.41.16.37.16.37.16.37.12.37.16.37.16.41.16.37.16.37.16.37.16.37.16.37.12.41.16.37.16.37.16.37.16.37.16.37.16.41.16.37.12.37.16.37.16.37.16.37.16.41.16.37.16.37.16.37.12.37.16.37.16.41.16.37.16.37.16.37.16.37.16.37.12.41.16.37.16.37.16.37h-8.07l-.16-.37-.12-.37-.16-.37-.16-.41-.12-.37-.16-.37-.16-.37-.12-.37-.16-.37-.16-.37-.12-.37-.16-.41-.16-.37-.12-.37-.16-.37h-11.64l-.16.37-.12.37-.16.37-.16.41-.12.37-.16.37-.16.37-.12.37-.16.37-.16.37-.12.37-.16.41-.16.37-.12.37-.16.37h-8.19l.16-.37ZM255.3,363.32l-41.85-14.38h85.47l-43.63,14.38ZM306.12,313.76h-23.65v-29.66h23.45v6.73h-15.7v4.85h14.12v6.31h-14.12v5.06h15.9v6.72ZM290.07,242.79v-63.38c0-12.2,6.01-18.23,18.14-18.23h7.26c12.14,0,18,5.89,18,18.09v20.06h-14.65v-19.22c0-3.92-1.82-5.74-5.58-5.74h-2.51c-3.9,0-5.72,1.82-5.72,5.74v61.98c0,3.93,1.82,5.75,5.72,5.75h2.79c3.77,0,5.58-1.82,5.58-5.75v-22.15h14.66v22.86c0,12.2-6,18.23-18.14,18.23h-7.4c-12.14,0-18.14-6.03-18.14-18.23ZM334.21,305.17l-.04.45h0s-.04.4-.04.4l-.04.45-.08.41-.12.41-.08.37-.12.41-.16.37-.16.33-.16.37-.2.33-.2.33-.24.33-.21.33-.24.29-.29.29-.24.25-.33.29-.28.25-.33.25-.32.2-.32.25-.37.2-.37.16-.37.2-.41.16-.41.16-.41.12-.41.12-.37.12-.41.08-.37.08-.37.08-.41.08-.41.04-.37.04-.41.04-.45.04-.41.04h-1.7l-.41-.04h-.45l-.41-.04-.41-.04-.45-.04-.41-.08-.41-.04-.41-.08-.41-.08-.41-.08-.41-.08-.41-.12-.37-.08-.41-.12-.41-.12-.37-.16-.41-.12-.37-.12-.41-.16-.37-.16-.37-.16-.37-.2-.37-.16-.37-.21-.32-.2-.37-.21-.32-.2-.33-.2-.32-.25-.32-.25-.33-.25-.33-.25-.29-.25-.32-.29.25-.33.28-.29.25-.33.28-.33.25-.29.24-.33.29-.33.24-.29.29-.33.24-.29.29-.33.24-.33.25-.29.28-.33.25-.33.28-.29.25-.33.32.25.37.25.33.25.37.25.33.2.37.25.32.21.37.16.32.21.37.16.37.16.37.16.37.12.37.16.41.12.41.12.37.12.41.08.41.08.41.08.45.04.41.08h.41l.45.04h.89l.45-.04.41-.08.37-.08.37-.08.33-.12.28-.16.33-.25.24-.29.16-.33.12-.37.04-.41v-.08l-.04-.49-.16-.41-.21-.29-.28-.25-.33-.25-.32-.16-.37-.16-.41-.16-.49-.2-.28-.08-.32-.08-.37-.12-.37-.08-.41-.12-.41-.08-.45-.12-.41-.08-.45-.12-.41-.08-.41-.12-.41-.08-.41-.12-.37-.12-.41-.08-.37-.12-.37-.12-.37-.12-.45-.16-.41-.16-.41-.16-.41-.16-.37-.2-.41-.2-.33-.2-.37-.2-.32-.25-.33-.2-.28-.25-.29-.29-.28-.29-.25-.29-.24-.29-.21-.29-.2-.33-.2-.37-.16-.28-.12-.33-.12-.37-.12-.33-.08-.41-.08-.37-.04-.41-.04-.41-.04-.45v-.94l.04-.41.04-.37.04-.41.08-.37.08-.37.12-.37.08-.37.16-.37.16-.37.16-.37.2-.37.2-.37.24-.33.25-.33.28-.33.29-.29.28-.33.33-.29.28-.2.33-.25.33-.25.32-.2.37-.2.37-.16.37-.2.37-.16.41-.12.41-.16.37-.12.32-.08.37-.08.37-.08.41-.08.37-.08.41-.04.41-.04.41-.04.41-.04h1.74l.45.04.45.04h.41l.45.04.41.08.45.04.41.08.37.08.41.08.41.08.37.08.41.12.37.12.37.08.41.16.37.12.37.16.37.16.41.16.37.2.32.16.37.2.37.2.32.21.37.25.33.2.33.25.32.25.32.25-.24.33-.2.33-.24.33-.25.33-.24.37-.21.33-.25.33-.24.33-.2.33-.24.33-.25.33-.21.33-.24.37-.25.33-.24.33-.2.33-.24.33-.33-.25-.37-.21-.33-.2-.33-.25-.37-.16-.33-.21-.37-.16-.32-.16-.37-.16-.32-.16-.37-.12-.33-.16-.45-.12-.41-.12-.41-.12-.41-.08-.41-.08-.41-.08-.41-.04-.41-.04-.37-.04h-.89l-.45.08-.41.08-.37.08-.32.16-.29.16-.37.33-.25.37-.16.37-.04.41v.08l.04.53.2.45.16.25.28.29.37.2.32.2.41.16.45.16.49.16.32.08.32.12.37.08.37.12.41.08.45.12.45.12.45.12.45.08.41.12.45.12.41.08.41.12.41.12.37.12.41.12.37.12.37.12.45.16.41.21.41.16.41.2.37.21.37.2.32.2.33.25.33.2.32.29.33.29.28.33.29.29.24.33.25.37.2.33.21.37.16.33.12.37.12.37.08.37.08.41.08.41.04.41.04.45v.98ZM240,211.38h-6.14v-36.18h6.14c3.77,0,5.58,1.82,5.58,5.74v24.68c0,3.93-1.82,5.75-5.58,5.75ZM229.27,301.91h-6.86l.16-.37.12-.37.16-.41.16-.37.12-.37.16-.37.16-.41.16-.37.12-.37.16-.37.16-.37.12-.41.16-.37.16-.37.12-.37.16-.37.16-.41.16-.37.12-.37.16-.37.16-.41.12-.37.16-.37.16.37.12.37.16.41.16.37.12.37.16.37.16.41.12.37.16.37.16.37.12.37.16.41.12.37.16.37.16.37.12.37.16.41.16.37.12.37.16.37.16.41.12.37h.1l.16.37Z" fill="#fff" fill-rule="evenodd"/>
</svg>