<?xml version="1.0" encoding="UTF-8"?>
<svg id="b" data-name="Layer 2" xmlns="http://www.w3.org/2000/svg" viewBox="0 0 320 291.76">
  <g id="c" data-name="Layer 1">
    <g>
      <g>
        <path d="M89.41,131.76h-51.76v18.82h61.18c7.8,0,14.12-6.32,14.12-14.12V61.18c0-7.8-6.32-14.12-14.12-14.12h-47.06c-7.8,0-14.12,6.32-14.12,14.12v47.06c0,7.8,6.32,14.12,14.12,14.12h32.94v-18.82h-23.53c-2.6,0-4.71-2.11-4.71-4.71v-28.24c0-2.6,2.11-4.71,4.71-4.71h28.24c2.6,0,4.71,2.11,4.71,4.71v56.47c0,2.6-2.11,4.71-4.71,4.71Z" fill="#4d22bd"/>
        <path d="M268.24,47.06h-47.06c-7.8,0-14.12,6.32-14.12,14.12v47.06c0,7.8,6.32,14.12,14.12,14.12h32.94v-18.82h-23.53c-2.6,0-4.71-2.11-4.71-4.71v-28.24c0-2.6,2.11-4.71,4.71-4.71h28.24c2.6,0,4.71,2.11,4.71,4.71v56.47c0,2.6-2.11,4.71-4.71,4.71h-51.76v18.82h61.18c7.8,0,14.12-6.32,14.12-14.12V61.18c0-7.8-6.32-14.12-14.12-14.12Z" fill="#4d22bd"/>
        <path d="M282.35,244.71v-75.29h-70.59c-7.8,0-14.12,6.32-14.12,14.12v61.18h18.82v-51.76c0-2.6,2.11-4.71,4.71-4.71h9.41v56.47h18.82v-56.47h14.12v56.47h18.82Z" fill="#4d22bd"/>
        <path d="M127.06,244.71h47.06c7.8,0,14.12-6.32,14.12-14.12v-47.06c0-7.8-6.32-14.12-14.12-14.12h-47.06c-7.8,0-14.12,6.32-14.12,14.12v47.06c0,7.8,6.32,14.12,14.12,14.12ZM131.76,192.94c0-2.6,2.11-4.71,4.71-4.71h28.24c2.6,0,4.71,2.11,4.71,4.71v28.24c0,2.6-2.11,4.71-4.71,4.71h-28.24c-2.6,0-4.71-2.11-4.71-4.71v-28.24Z" fill="#4d22bd"/>
        <path d="M51.76,244.71h51.76v-18.82h-42.35c-2.6,0-4.71-2.11-4.71-4.71v-28.24c0-2.6,2.11-4.71,4.71-4.71h42.35v-18.82h-51.76c-7.8,0-14.12,6.32-14.12,14.12v47.06c0,7.8,6.32,14.12,14.12,14.12Z" fill="#4d22bd"/>
        <path d="M197.65,108.24v-47.06c0-7.8-6.32-14.12-14.12-14.12h-47.06c-7.8,0-14.12,6.32-14.12,14.12v47.06c0,7.8,6.32,14.12,14.12,14.12h47.06c7.8,0,14.12-6.32,14.12-14.12ZM178.82,98.82c0,2.6-2.11,4.71-4.71,4.71h-28.24c-2.6,0-4.71-2.11-4.71-4.71v-28.24c0-2.6,2.11-4.71,4.71-4.71h28.24c2.6,0,4.71,2.11,4.71,4.71v28.24Z" fill="#4d22bd"/>
      </g>
      <path d="M291.76,291.76H28.24c-15.59,0-28.24-12.64-28.24-28.24V28.24C0,12.64,12.64,0,28.24,0h263.53c15.59,0,28.24,12.64,28.24,28.24v235.29c0,15.59-12.64,28.24-28.24,28.24ZM37.65,230.59c0,7.8,6.32,14.12,14.12,14.12h51.76v-18.82h-42.35c-2.6,0-4.71-2.11-4.71-4.71v-28.24c0-2.6,2.11-4.71,4.71-4.71h42.35v-18.82h-51.76c-7.8,0-14.12,6.32-14.12,14.12v47.06ZM112.94,61.18c0-7.8-6.32-14.12-14.12-14.12h-47.06c-7.8,0-14.12,6.32-14.12,14.12v47.06c0,7.8,6.32,14.12,14.12,14.12h32.94v-18.82h-23.53c-2.6,0-4.71-2.11-4.71-4.71v-28.24c0-2.6,2.11-4.71,4.71-4.71h28.24c2.6,0,4.71,2.11,4.71,4.71v56.47c0,2.6-2.11,4.71-4.71,4.71h-51.76v18.82h61.18c7.8,0,14.12-6.32,14.12-14.12h0V61.18ZM112.94,183.53v47.06c0,7.8,6.32,14.12,14.12,14.12h47.06c7.8,0,14.12-6.32,14.12-14.12v-47.06c0-7.8-6.32-14.12-14.12-14.12h-47.06c-7.8,0-14.12,6.32-14.12,14.12ZM197.65,61.18c0-7.8-6.32-14.12-14.12-14.12h-47.06c-7.8,0-14.12,6.32-14.12,14.12v47.06c0,7.8,6.32,14.12,14.12,14.12h47.06c7.8,0,14.12-6.32,14.12-14.12v-47.06ZM282.35,61.18c0-7.8-6.32-14.12-14.12-14.12h-47.06c-7.8,0-14.12,6.32-14.12,14.12v47.06c0,7.8,6.32,14.12,14.12,14.12h32.94v-18.82h-23.53c-2.6,0-4.71-2.11-4.71-4.71v-28.24c0-2.6,2.11-4.71,4.71-4.71h28.24c2.6,0,4.71,2.11,4.71,4.71v56.47c0,2.6-2.11,4.71-4.71,4.71h-51.76v18.82h61.18c7.8,0,14.12-6.32,14.12-14.12h0V61.18ZM282.35,169.41h-70.59c-7.8,0-14.12,6.32-14.12,14.12v61.18h18.82v-51.76c0-2.6,2.11-4.71,4.71-4.71h9.41v56.47h18.82v-56.47h14.12v56.47h18.82v-75.29ZM174.12,103.53h-28.24c-2.6,0-4.71-2.11-4.71-4.71v-28.24c0-2.6,2.11-4.71,4.71-4.71h28.24c2.6,0,4.71,2.11,4.71,4.71v28.24c0,2.6-2.11,4.71-4.71,4.71ZM136.47,188.24h28.24c2.6,0,4.71,2.11,4.71,4.71v28.24c0,2.6-2.11,4.71-4.71,4.71h-28.24c-2.6,0-4.71-2.11-4.71-4.71v-28.24c0-2.6,2.11-4.71,4.71-4.71Z" fill="#fff"/>
    </g>
  </g>
</svg>