<?xml version="1.0" encoding="UTF-8"?>
<svg id="a" data-name="Layer 1" xmlns="http://www.w3.org/2000/svg" viewBox="0 0 512 512">
  <rect width="512" height="512" fill="#4e20be"/>
  <path d="M361.4,372.7h-210.81c-12.47,0-22.59-10.11-22.59-22.59v-188.22c0-12.48,10.11-22.59,22.59-22.59h210.82c12.47,0,22.59,10.11,22.59,22.59v188.23c0,12.47-10.11,22.59-22.59,22.59h0ZM158.12,323.76c0,6.24,5.06,11.3,11.3,11.3h41.41v-15.06h-33.88c-2.08,0-3.77-1.69-3.77-3.77v-22.59c0-2.08,1.69-3.77,3.77-3.77h33.88v-15.06h-41.41c-6.24,0-11.3,5.06-11.3,11.3v37.65h0ZM218.35,188.24c0-6.24-5.06-11.3-11.3-11.3h-37.65c-6.24,0-11.3,5.06-11.3,11.3v37.65c0,6.24,5.06,11.3,11.3,11.3h26.35v-15.06h-18.82c-2.08,0-3.77-1.69-3.77-3.77v-22.59c0-2.08,1.69-3.77,3.77-3.77h22.59c2.08,0,3.77,1.69,3.77,3.77v45.17c0,2.08-1.69,3.77-3.77,3.77h-41.41v15.06h48.94c6.24,0,11.3-5.06,11.3-11.3h0v-60.23h0ZM218.35,286.12v37.65c0,6.24,5.06,11.3,11.3,11.3h37.65c6.24,0,11.3-5.06,11.3-11.3v-37.65c0-6.24-5.06-11.3-11.3-11.3h-37.65c-6.24,0-11.3,5.06-11.3,11.3ZM286.12,188.24c0-6.24-5.06-11.3-11.3-11.3h-37.65c-6.24,0-11.3,5.06-11.3,11.3v37.65c0,6.24,5.06,11.3,11.3,11.3h37.65c6.24,0,11.3-5.06,11.3-11.3v-37.65ZM353.87,188.24c0-6.24-5.06-11.3-11.3-11.3h-37.65c-6.24,0-11.3,5.06-11.3,11.3v37.65c0,6.24,5.06,11.3,11.3,11.3h26.35v-15.06h-18.82c-2.08,0-3.77-1.69-3.77-3.77v-22.59c0-2.08,1.69-3.77,3.77-3.77h22.59c2.08,0,3.77,1.69,3.77,3.77v45.17c0,2.08-1.69,3.77-3.77,3.77h-41.41v15.06h48.94c6.24,0,11.3-5.06,11.3-11.3h0v-60.23h0ZM353.87,274.82h-56.47c-6.24,0-11.3,5.06-11.3,11.3v48.94h15.06v-41.41c0-2.08,1.69-3.77,3.77-3.77h7.53v45.17h15.06v-45.17h11.3v45.17h15.06v-60.23h0ZM267.29,222.12h-22.59c-2.08,0-3.77-1.69-3.77-3.77v-22.59c0-2.08,1.69-3.77,3.77-3.77h22.59c2.08,0,3.77,1.69,3.77,3.77v22.59c0,2.08-1.69,3.77-3.77,3.77ZM237.17,289.88h22.59c2.08,0,3.77,1.69,3.77,3.77v22.59c0,2.08-1.69,3.77-3.77,3.77h-22.59c-2.08,0-3.77-1.69-3.77-3.77v-22.59c0-2.08,1.69-3.77,3.77-3.77Z" fill="#fff"/>
</svg>