<?xml version="1.0" encoding="UTF-8"?>
<svg id="b" data-name="Layer 2" xmlns="http://www.w3.org/2000/svg" viewBox="0 0 290.14 320">
  <g id="c" data-name="Layer 1">
    <g>
      <path d="M135.47,152.88L1.2,293.56c5.63,19.43,25.94,30.61,45.36,24.98,2.78-.81,5.45-1.94,7.96-3.37l151.08-86.05-70.14-76.24Z" fill="#ea4335"/>
      <path d="M271.25,128.97l-65.34-37.42-73.54,64.54,73.84,72.84,64.84-37.02c17.36-9.02,24.12-30.41,15.09-47.76-.03-.05-.06-.11-.09-.16-3.39-6.39-8.62-11.62-15.01-15.01h.2Z" fill="#fbbc04"/>
      <path d="M1.2,26.61C.4,29.62,0,32.71,0,35.82v248.54c0,3.11.4,6.2,1.2,9.21l138.88-137.08L1.2,26.61Z" fill="#4285f4"/>
      <path d="M136.47,160.09l69.44-68.54L55.03,5.1C49.35,1.78,42.9.02,36.32,0,19.99-.03,5.64,10.8,1.2,26.51l135.27,133.57Z" fill="#34a853"/>
    </g>
  </g>
</svg>