<?xml version="1.0" encoding="UTF-8"?>
<svg id="a" data-name="Layer 1" xmlns="http://www.w3.org/2000/svg" viewBox="0 0 512 512">
  <rect width="512" height="512" fill="#fff"/>
  <g>
    <path d="M258.32,250.31l-107.42,112.54c4.5,15.54,20.75,24.49,36.29,19.98,2.22-.65,4.36-1.55,6.37-2.7l120.87-68.84-56.11-60.99h0Z" fill="#ea4335"/>
    <path d="M366.94,231.18l-52.27-29.94-58.83,51.63,59.07,58.27,51.87-29.62c13.89-7.22,19.3-24.33,12.07-38.21-.02-.04-.05-.09-.07-.13-2.71-5.11-6.9-9.3-12.01-12.01h.17Z" fill="#fbbc04"/>
    <path d="M150.9,149.29c-.64,2.41-.96,4.88-.96,7.37v198.83c0,2.49.32,4.96.96,7.37l111.1-109.66-111.1-103.9Z" fill="#4285f4"/>
    <path d="M259.12,256.07l55.55-54.83-120.71-69.16c-4.54-2.66-9.7-4.06-14.97-4.08-13.06-.02-24.54,8.64-28.1,21.21l108.22,106.86h0Z" fill="#34a853"/>
  </g>
</svg>