<?xml version="1.0" encoding="UTF-8"?>
<svg id="b" data-name="Layer 2" xmlns="http://www.w3.org/2000/svg" viewBox="0 0 320 304.48">
  <g id="c" data-name="Layer 1">
    <path d="M31.04,274.62l13.32-173.13h44v36.24c0,3.06,2.48,5.55,5.55,5.55h18.75c3.06,0,5.55-2.49,5.55-5.55v-36.24h83.58v36.24c0,3.06,2.48,5.55,5.55,5.55h18.75c3.06,0,5.55-2.49,5.55-5.55v-36.24h44l13.32,173.13H31.04ZM118.21,51.34c0-11.87,9.62-21.49,21.49-21.49h40.59c11.87,0,21.5,9.62,21.5,21.49v20.3h-83.58v-20.3ZM304.34,85.42c-.6-7.78-7.08-13.78-14.88-13.78h-57.82v-23.28c0-26.71-21.65-48.36-48.35-48.36h-46.57c-26.71,0-48.35,21.65-48.35,48.36v23.28H30.54c-7.8,0-14.28,6-14.88,13.78L.04,288.4c-.67,8.67,6.19,16.07,14.88,16.07h290.15c8.69,0,15.55-7.4,14.88-16.07l-15.61-202.98Z" fill="#e60012"/>
  </g>
</svg>