<?xml version="1.0" encoding="UTF-8"?>
<svg id="a" data-name="Layer 1" xmlns="http://www.w3.org/2000/svg" viewBox="0 0 512 512">
  <rect width="512" height="512" fill="#e60012"/>
  <path d="M152.83,353.91l10.66-138.51h35.2v28.99c0,2.45,1.98,4.44,4.44,4.44h15c2.45,0,4.44-1.99,4.44-4.44v-28.99h66.87v28.99c0,2.45,1.98,4.44,4.44,4.44h15c2.45,0,4.44-1.99,4.44-4.44v-28.99h35.2l10.66,138.51h-206.34ZM222.57,175.28c0-9.5,7.7-17.19,17.19-17.19h32.47c9.5,0,17.2,7.7,17.2,17.19v16.24h-66.87v-16.24ZM371.48,202.55c-.48-6.22-5.66-11.02-11.9-11.02h-46.26v-18.62c0-21.37-17.32-38.69-38.68-38.69h-37.26c-21.37,0-38.68,17.32-38.68,38.69v18.62h-46.27c-6.24,0-11.42,4.8-11.9,11.02l-12.5,162.39c-.54,6.94,4.95,12.86,11.9,12.86h232.13c6.95,0,12.44-5.92,11.9-12.86l-12.49-162.39h0Z" fill="#fff"/>
</svg>