<?xml version="1.0" encoding="UTF-8"?>
<svg id="b" data-name="Layer 2" xmlns="http://www.w3.org/2000/svg" viewBox="0 0 257.95 320">
  <g id="c" data-name="Layer 1">
    <path d="M188.52,218.44c-3.23,4.01-11.06,6.91-11.06,6.91l-58.23,20.92v-15.44l42.86-15.26c4.86-1.78,5.59-4.23,1.67-5.52-3.99-1.31-11.09-.92-16,.83l-28.52,10.07v-16.06l1.64-.56s8.26-2.92,19.86-4.17c11.59-1.28,25.82.16,36.99,4.37,12.57,4,13.98,9.83,10.81,13.9ZM114.15,149.26v98.81l-26.68-8.45v-117.85c11.36,2.09,27.86,7.1,36.76,10.06,22.55,7.76,30.22,17.42,30.22,39.11s-13.07,29.25-29.68,21.21v-39.46c0-4.6-.85-8.89-5.2-10.11-3.33-1.07-5.41,2.03-5.41,6.69h0ZM111.77,11.28c2.15-.22,4.25.1,6.33.96-12.03,16.4-15.49,45.34-16.48,61.52-4.95,0-9.72.03-14.3.04,1.79-38.54,10.47-61.09,24.45-62.52ZM82.3,208.49l-27.49,9.85c-4.86,1.74-5.59,4.2-1.67,5.48,3.99,1.35,11.07.97,15.94-.82l13.21-4.76v13.85c-.85.15-1.79.28-2.66.44-13.18,2.19-27.21,1.28-41.07-3.3-12.9-3.61-15.06-11.2-9.17-15.58,5.44-4.03,14.68-7.03,14.68-7.03l38.22-13.63s0,15.51,0,15.51ZM125.81,17.8c11.49,11.9,19.28,36.47,22.6,55.95-9.72-.01-20.32-.01-31.77-.01h-5.44c1.1-17.82,4.91-43.11,14.61-55.93ZM139.92,9.66c4.46-.03,8.61,2.11,12.63,6.5,12.18,13.29,18.47,41.67,20.82,57.6h-15.23c-3.43-21.23-11.96-48.29-25.14-62.36,2.1-1.1,4.4-1.74,6.91-1.75ZM247.29,79.74c-.06-1.2-1.16-2.15-2.5-2.13l-25.49-3.67c-.24-.05-.48-.08-.73-.1-5.12,0-17.22-.03-35.47-.06-2.16-16.61-8.47-44.29-20.37-60.36C156.11,4.46,148.41-.05,139.87,0c-5.32,0-10.48,1.75-14.71,4.98-4.6-2.7-9.39-3.8-14.36-3.3-24.02,2.44-31.52,37.78-33.09,72.17-21.07.09-42.14.35-63.2.77-1.53.03-2.77,1.12-2.85,2.51-.58,9.65-2.82,47.51-5.96,105.69C2.36,244.35.46,277.92,0,286.79c-.08,1.28.92,2.38,2.3,2.58l101.49,15.39,100.32,15.2c.8.12,1.61-.06,2.28-.51h0s49.57-31.67,49.57-31.67c1.28-.84,2.03-2.28,1.98-3.8,0,0-10.66-204.24-10.66-204.24Z" fill="#0072ce"/>
  </g>
</svg>