<?xml version="1.0" encoding="UTF-8"?>
<svg id="a" data-name="Layer 1" xmlns="http://www.w3.org/2000/svg" viewBox="0 0 512 512">
  <rect width="512" height="512" fill="#0072ce"/>
  <path d="M303.64,302.75c-2.58,3.21-8.85,5.53-8.85,5.53l-46.58,16.74v-12.35l34.29-12.21c3.89-1.42,4.47-3.38,1.34-4.42-3.19-1.05-8.87-.74-12.8.66l-22.82,8.06v-12.85l1.31-.45s6.61-2.34,15.89-3.34c9.27-1.02,20.66.13,29.59,3.5,10.06,3.2,11.18,7.86,8.65,11.12h-.02ZM244.14,247.41v79.05l-21.34-6.76v-94.28c9.09,1.67,22.29,5.68,29.41,8.05,18.04,6.21,24.18,13.94,24.18,31.29s-10.46,23.4-23.74,16.97v-31.57c0-3.68-.68-7.11-4.16-8.09-2.66-.86-4.33,1.62-4.33,5.35h0ZM242.24,137.03c1.72-.18,3.4.08,5.06.77-9.62,13.12-12.39,36.27-13.18,49.22-3.96,0-7.78.02-11.44.03,1.43-30.83,8.38-48.87,19.56-50.02h0ZM218.67,294.79l-21.99,7.88c-3.89,1.39-4.47,3.36-1.34,4.38,3.19,1.08,8.86.78,12.75-.66l10.57-3.81v11.08c-.68.12-1.43.22-2.13.35-10.54,1.75-21.77,1.02-32.86-2.64-10.32-2.89-12.05-8.96-7.34-12.46,4.35-3.22,11.74-5.62,11.74-5.62l30.58-10.9v12.41h0ZM253.47,142.24c9.19,9.52,15.42,29.18,18.08,44.76-7.78,0-16.26,0-25.42,0h-4.35c.88-14.26,3.93-34.49,11.69-44.74h0ZM264.76,135.73c3.57-.02,6.89,1.69,10.1,5.2,9.74,10.63,14.78,33.34,16.66,46.08h-12.18c-2.74-16.98-9.57-38.63-20.11-49.89,1.68-.88,3.52-1.39,5.53-1.4h0ZM350.66,191.79c-.05-.96-.93-1.72-2-1.7l-20.39-2.94c-.19-.04-.38-.06-.58-.08-4.1,0-13.78-.02-28.38-.05-1.73-13.29-6.78-35.43-16.3-48.29-5.3-7.17-11.46-10.78-18.29-10.74-4.26,0-8.38,1.4-11.77,3.98-3.68-2.16-7.51-3.04-11.49-2.64-19.22,1.95-25.22,30.22-26.47,57.74-16.86.07-33.71.28-50.56.62-1.22.02-2.22.9-2.28,2.01-.46,7.72-2.26,38.01-4.77,84.55-2.67,49.22-4.19,76.08-4.56,83.18-.06,1.02.74,1.9,1.84,2.06l81.19,12.31,80.26,12.16c.64.1,1.29-.05,1.82-.41h0l39.66-25.34c1.02-.67,1.62-1.82,1.58-3.04l-8.53-163.39h0Z" fill="#fff"/>
</svg>