<?xml version="1.0" encoding="UTF-8"?>
<svg id="a" data-name="Layer 1" xmlns="http://www.w3.org/2000/svg" viewBox="0 0 512 512">
  <rect width="512" height="512" fill="#ffab00"/>
  <g>
    <path id="b" d="M384.19,301.97h-36.08l-6.25-39.31-23.18,38.9h-36.47l22.17,23.39-18.13,39.31,39.91-23.78,31.24,24.19-5.85-39.71" fill="#fff"/>
    <path id="c" d="M409.38,294.11h-54.62l-8.66-54.42-31.85,54.01h-6.04c-3.63-6.25-5.03-15.32-5.03-20.96,0-9.26.6-18.34.6-30.23,0-15.73-4.64-23.99-16.93-27v-.41c26-3.63,37.89-20.96,37.89-45.15,0-34.46-22.98-41.91-53.01-41.91h-80.83l-34.27,162.05h42.94l12.5-59.06h28.63c15.32,0,21.56,7.45,21.56,21.76,0,10.89-1.21,19.55-1.21,27.81,0,3.02.6,10.29,2.82,13.1l31.04,32.86-26.8,57.44,57.24-34.07,42.73,32.86-7.86-54.22,49.18-34.46h0v.02l-.02-.02ZM253.59,200.8h-34.27l8.25-39.1h31.85c11.29,0,23.18,3.02,23.18,16.73,0,17.53-13.51,22.36-29.02,22.36M326.14,340.48l-39.91,23.78,18.34-39.1-22.17-23.39h36.47l22.98-38.9,6.25,39.31h36.28l-32.65,22.77,5.85,39.91-31.44-24.4h0v.02h0Z" fill="#040301"/>
  </g>
</svg>