<?xml version="1.0" encoding="UTF-8"?>
<svg id="b" data-name="Layer 2" xmlns="http://www.w3.org/2000/svg" viewBox="0 0 320 294.22">
  <g id="c" data-name="Layer 1">
    <g>
      <path id="d" data-name="path6" d="M264.3,0H56.74C25.48,0,0,24.74,0,54.96v184.44c0,30.67,24.59,54.81,56.15,54.81h207.7c31.56,0,56.15-24.15,56.15-54.81V54.96c0-30.81-24.44-54.96-55.7-54.96M313.63,239.41c0,27.26-21.93,48.44-49.93,48.44H56.15c-28,.15-49.78-21.19-49.78-48.44V54.96C6.37,27.7,28.44,6.22,56.74,6.22h207.7c27.7,0,49.33,21.33,49.33,48.74v184.44h-.15Z" fill="#040301"/>
      <path id="e" data-name="path8" d="M313.63,239.41c0,27.26-21.93,48.44-49.93,48.44H56.15c-28,.15-49.78-21.19-49.78-48.44V54.96C6.37,27.7,28.44,6.22,56.74,6.22h207.7c27.7,0,49.33,21.33,49.33,48.74v184.44h-.15Z" fill="#ffab00"/>
      <path id="f" data-name="path10" d="M256.3,180.89h-26.52l-4.59-28.89-17.04,28.59h-26.81l16.3,17.19-13.33,28.89,29.33-17.48,22.96,17.78-4.3-29.19" fill="#fff"/>
      <path id="g" data-name="path12" d="M274.81,175.11h-40.15l-6.37-40-23.41,39.7h-4.44c-2.67-4.59-3.7-11.26-3.7-15.41,0-6.81.44-13.48.44-22.22,0-11.56-3.41-17.63-12.44-19.85v-.3c19.11-2.67,27.85-15.41,27.85-33.19,0-25.33-16.89-30.81-38.96-30.81h-59.41l-25.19,119.11h31.56l9.19-43.41h21.04c11.26,0,15.85,5.48,15.85,16,0,8-.89,14.37-.89,20.44,0,2.22.44,7.56,2.07,9.63l22.81,24.15-19.7,42.22,42.07-25.04,31.41,24.15-5.78-39.85,36.15-25.33h0ZM160.3,106.52h-25.19l6.07-28.74h23.41c8.3,0,17.04,2.22,17.04,12.3,0,12.89-9.93,16.44-21.33,16.44M213.63,209.19l-29.33,17.48,13.48-28.74-16.3-17.19h26.81l16.89-28.59,4.59,28.89h26.67l-24,16.74,4.3,29.33-23.11-17.93h0Z" fill="#040301"/>
    </g>
  </g>
</svg>