<?xml version="1.0" encoding="UTF-8"?>
<svg id="a" data-name="Layer 1" xmlns="http://www.w3.org/2000/svg" viewBox="0 0 512 512">
  <rect width="512" height="512" fill="#194170"/>
  <path d="M255.77,128c-67.36,0-122.53,51.85-127.77,117.73l68.72,28.37c6-4.11,13.13-6.3,20.42-6.3.68,0,1.36.02,2.02.06l30.57-44.23v-.62c0-26.62,21.69-48.27,48.35-48.27s48.35,21.66,48.35,48.27-21.69,48.28-48.35,48.28c-.37,0-.73,0-1.1-.02l-43.59,31.04c.03.58.05,1.15.05,1.72,0,19.98-16.28,36.24-36.29,36.24-17.57,0-32.26-12.52-35.58-29.1l-49.15-20.29c15.22,53.73,64.67,93.12,123.36,93.12,70.81,0,128.22-57.31,128.22-128s-57.4-128-128.22-128v-.02ZM208.35,322.21l-15.75-6.5c2.78,5.8,7.62,10.66,14.03,13.33,13.86,5.77,29.83-.79,35.61-14.64,2.8-6.66,2.82-14.14.05-20.81-2.77-6.72-8-11.95-14.7-14.75-6.67-2.77-13.81-2.66-20.09-.3l16.27,6.72c10.22,4.26,15.06,15.97,10.79,26.18-4.26,10.2-16,15.03-26.22,10.78h.02ZM330.31,223c0-17.73-14.46-32.17-32.21-32.17s-32.22,14.44-32.22,32.17,14.46,32.16,32.22,32.16,32.21-14.43,32.21-32.16h0ZM273.93,222.95c0-13.34,10.84-24.16,24.2-24.16s24.21,10.82,24.21,24.16-10.84,24.16-24.21,24.16-24.2-10.82-24.2-24.16Z" fill="#fff"/>
</svg>