<?xml version="1.0" encoding="UTF-8"?>
<svg id="d" data-name="Layer 2" xmlns="http://www.w3.org/2000/svg" xmlns:xlink="http://www.w3.org/1999/xlink" viewBox="0 0 319.79 320">
  <defs>
    <linearGradient id="b" x1="7842.86" y1="8347.52" x2="7842.86" y2="8346.52" gradientTransform="translate(-501369.95 -534177) scale(63.93 64)" gradientUnits="userSpaceOnUse">
      <stop offset="0" stop-color="#111d2e"/>
      <stop offset=".21" stop-color="#051839"/>
      <stop offset=".41" stop-color="#0a1b48"/>
      <stop offset=".58" stop-color="#132e62"/>
      <stop offset=".74" stop-color="#144b7e"/>
      <stop offset=".87" stop-color="#136497"/>
      <stop offset="1" stop-color="#1387b8"/>
    </linearGradient>
    <symbol id="a" data-name="B" viewBox="0 0 63.96 64">
      <g>
        <path d="M1.3,22.8C5.26,9.61,17.49,0,31.96,0c17.67,0,32,14.33,32,32s-14.33,32-32,32S1.12,50.81.03,34.13c2.07-3.48,2.88-5.63,1.27-11.33h0Z" fill="url(#b)"/>
        <path d="M30.31,40.01v-.16s-7.83-11.38-7.83-11.38c-1.27.06-2.54-.17-3.75-.66-.53-.21-1.03-.48-1.5-.8L.04,34.11s-.4-6.55,1.26-11.42l12.16-5.02c.6-2.73,2.48-5.12,5.24-6.27,4.52-1.88,9.72.26,11.6,4.78.48,1.16.72,2.4.68,3.66l11.19,8.01h.28c6.71,0,12.15,5.46,12.15,12.17s-5.44,12.16-12.15,12.17c-6.7,0-12.15-5.46-12.15-12.17h0ZM28.43,16.97c-1.45-3.5-5.47-5.15-8.95-3.69-1.55.65-2.8,1.85-3.52,3.36l3.96-1.64c2.57-1.07,5.52.15,6.59,2.72,0,0,0,0,0,0,1.07,2.57-.14,5.53-2.72,6.6l-4.1,1.69c1.58.6,3.37.62,5.05-.08,1.7-.7,3-2.03,3.7-3.72s.69-3.56-.01-5.25M42.47,31.9c-4.47.01-8.09,3.64-8.1,8.11,0,4.47,3.63,8.1,8.1,8.11,4.47-.01,8.1-3.64,8.1-8.11,0-4.47-3.63-8.1-8.1-8.11M36.4,40.03c0,3.36,2.72,6.09,6.08,6.09,3.35,0,6.08-2.73,6.08-6.09,0-3.36-2.72-6.09-6.08-6.09-3.36,0-6.08,2.73-6.08,6.09h0Z" fill="#fff"/>
      </g>
    </symbol>
  </defs>
  <g id="e" data-name="Layer 1">
    <use width="63.96" height="64" transform="translate(0 320) scale(5 -5)" xlink:href="#a"/>
  </g>
</svg>