<?xml version="1.0" encoding="UTF-8"?>
<svg id="a" data-name="Layer 1" xmlns="http://www.w3.org/2000/svg" viewBox="0 0 512 512">
  <rect width="512" height="512"/>
  <path d="M379.18,255.96c-2.43-131.29-176.66-179.91-243.93-57.54,3.24,2.43,7.3,5.67,9.73,7.3-4.86,10.54-8.91,21.88-10.54,32.42-.81,7.3-1.62,14.58-1.62,22.69,0,68.07,55.1,123.17,123.17,123.17s123.17-55.1,123.17-123.17v-4.86h0ZM163.6,277.84c-1.62,12.97-.81,17.83-.81,19.45l-3.24.81c-.81-2.43-4.05-9.73-4.86-20.26-3.24-39.71,23.5-75.37,64.83-81.85,38.09-5.67,73.74,17.83,82.66,51.06l-3.24.81c-.81-.81-2.43-3.24-8.1-9.73-45.38-46.19-117.5-25.12-127.23,39.71h0ZM280.3,299.72c-6.48,8.91-16.21,14.58-27.55,14.58-18.64,0-34.04-15.4-34.04-34.04s13.78-32.42,31.61-33.22h0c10.54-.81,21.07,5.67,25.94,14.58,4.86,10.54,3.24,22.69-4.86,31.61,3.24,2.43,6.48,4.86,8.91,6.48h0ZM350.8,301.34c-17.83,40.52-54.3,61.59-93.19,60.78-75.37-4.05-97.25-89.95-47-121.56l2.43,2.43c-.81.81-4.05,3.24-8.1,12.97-5.67,11.34-7.3,21.88-6.48,29.18,4.05,60.78,88.34,72.94,117.5,12.97,36.46-82.66-61.59-166.13-149.11-102.11l-1.62-2.43c22.69-35.66,67.26-51.86,110.21-41.34,65.64,17.02,101.29,85.09,75.37,149.11h0Z" fill="#fff"/>
</svg>