<?xml version="1.0" encoding="UTF-8"?>
<svg id="b" data-name="Layer 2" xmlns="http://www.w3.org/2000/svg" viewBox="0 0 307.95 320">
  <g id="c" data-name="Layer 1">
    <path d="M307.95,159.95C304.91-4.16,87.12-64.94,3.04,88.03c4.05,3.04,9.12,7.09,12.16,9.12-6.08,13.17-11.14,27.35-13.17,40.52-1.01,9.12-2.03,18.23-2.03,28.36,0,85.09,68.88,153.97,153.97,153.97s153.97-68.88,153.97-153.97v-6.08h0ZM38.49,187.3c-2.03,16.21-1.01,22.29-1.01,24.31l-4.05,1.01c-1.01-3.04-5.06-12.16-6.08-25.32-4.05-49.64,29.38-94.21,81.04-102.31,47.61-7.09,92.18,22.29,103.32,63.82l-4.05,1.01c-1.01-1.01-3.04-4.05-10.13-12.16-56.73-57.74-146.88-31.4-159.04,49.64h0ZM184.36,214.65c-8.1,11.14-20.26,18.23-34.44,18.23-23.3,0-42.55-19.25-42.55-42.55s17.22-40.52,39.51-41.53h0c13.17-1.01,26.34,7.09,32.42,18.23,6.08,13.17,4.05,28.36-6.08,39.51,4.05,3.04,8.1,6.08,11.14,8.1h0ZM272.49,216.68c-22.29,50.65-67.87,76.99-116.49,75.97-94.21-5.06-121.56-112.44-58.75-151.95l3.04,3.04c-1.01,1.01-5.06,4.05-10.13,16.21-7.09,14.18-9.12,27.35-8.1,36.47,5.06,75.97,110.42,91.17,146.88,16.21C274.52,109.3,151.95,4.96,42.55,84.99l-2.03-3.04C68.88,37.38,124.6,17.12,178.29,30.28c82.05,21.27,126.62,106.36,94.21,186.39Z"/>
  </g>
</svg>