<?xml version="1.0" encoding="UTF-8"?>
<svg id="b" data-name="Layer 2" xmlns="http://www.w3.org/2000/svg" viewBox="0 0 319.6 320">
  <g id="c" data-name="Layer 1">
    <path id="d" data-name="path4" d="M159.8,128.32s.4,0,0,0c48.22,36.66,129.91,126.72,105.21,152.23-28.29,24.71-64.96,39.45-105.21,39.45s-77.31-14.74-105.21-39.45c-25.11-25.5,56.99-115.57,104.81-151.83,0-.4.4-.4.4-.4h0ZM243.09,23.51C218.78,8.77,192.08,0,159.8,0s-58.98,8.77-83.29,23.51c-.4,0-.4.4-.4.8s.4.4.8.4c31.08-6.77,78.11,19.93,82.49,22.71h.8c4.38-2.79,51.41-29.49,82.49-22.71.4,0,.8,0,.8-.4s0-.8-.4-.8h0ZM47.82,45.83c-.4,0-.4.4-.8.4C17.93,75.32,0,115.57,0,159.8c0,36.26,12.35,70.14,32.68,96.84,0,.4.4.4.8.4s.4-.4,0-.8c-12.35-37.86,50.21-129.12,82.49-167.37l.4-.4q0-.4-.4-.4C66.95,39.45,50.61,44.63,47.82,45.83ZM203.64,87.67l-.4.4s0,.4.4.4c32.28,38.26,94.45,129.51,82.49,167.37v.8c.4,0,.8,0,.8-.4,20.32-26.7,32.68-60.57,32.68-96.84,0-44.23-17.93-84.48-47.42-113.57q-.4-.4-.8-.4c-2.39-.8-18.73-5.98-67.75,42.24h0Z" fill="#0f7c0f"/>
  </g>
</svg>