<?xml version="1.0" encoding="UTF-8"?>
<svg id="a" data-name="Layer 1" xmlns="http://www.w3.org/2000/svg" viewBox="0 0 512 512">
  <rect width="512" height="512" fill="#0f7c0f"/>
  <path id="b" data-name="&amp;lt;Compound Path&amp;gt;" d="M256,230.66s.32,0,0,0c38.58,29.33,103.93,101.38,84.17,121.78-22.63,19.77-51.97,31.56-84.17,31.56s-61.85-11.79-84.17-31.56c-20.09-20.4,45.59-92.46,83.85-121.46,0-.32.32-.32.32-.32h0ZM322.63,146.81c-19.45-11.79-40.81-18.81-66.63-18.81s-47.18,7.02-66.63,18.81c-.32,0-.32.32-.32.64s.32.32.64.32c24.86-5.42,62.49,15.94,65.99,18.17h.64c3.5-2.23,41.13-23.59,65.99-18.17.32,0,.64,0,.64-.32s0-.64-.32-.64h0ZM166.41,164.66c-.32,0-.32.32-.64.32-23.27,23.27-37.62,55.47-37.62,90.86,0,29.01,9.88,56.11,26.14,77.47,0,.32.32.32.64.32s.32-.32,0-.64c-9.88-30.29,40.17-103.3,65.99-133.9l.32-.32c0-.22-.1-.32-.32-.32-39.22-38.9-52.29-34.75-54.52-33.79h0ZM291.07,198.14l-.32.32s0,.32.32.32c25.82,30.61,75.56,103.61,65.99,133.9v.64c.32,0,.64,0,.64-.32,16.26-21.36,26.14-48.46,26.14-77.47,0-35.38-14.34-67.58-37.94-90.86-.22-.22-.42-.32-.64-.32-1.91-.64-14.98-4.78-54.2,33.79h0Z" fill="#fff"/>
</svg>