<?xml version="1.0" encoding="UTF-8"?>
<svg id="a" data-name="ESRB Logos" xmlns="http://www.w3.org/2000/svg" viewBox="0 0 42.67 64">
  <g id="b" data-name="Mature 17+">
    <path id="c" data-name="Path 254" d="M42.67,0H0v64h42.67V0h0Z" fill="#fff"/>
    <g id="d" data-name="Group 259">
      <path id="e" data-name="Path 255" d="M42.05.69v62.63H.62V.69h41.43" fill="#1a1818"/>
    </g>
    <rect id="f" data-name="Rectangle 184" x="2.7" y="2.91" width="36.96" height="10.39" fill="#fff"/>
    <rect id="g" data-name="Rectangle 185" x="2.69" y="15.56" width="36.98" height="38.18" fill="#fff"/>
    <g id="h" data-name="Group 260">
      <path id="i" data-name="Path 256" d="M2.69,61.06v-5.07h7.42v1.19h-4.44v.72h3.76v1.18h-3.76v.79h4.61v1.18H2.69Z" fill="#fff"/>
      <path id="j" data-name="Path 257" d="M16.6,57.47c-.07-.18-.24-.31-.43-.34-.25-.07-.51-.1-.77-.09-.66,0-.95.11-.95.3,0,.75,5.23.28,5.23,2.12,0,1.17-1.76,1.75-4.26,1.75s-3.97-.78-4.03-1.69h2.86c.1.2.28.35.49.4.27.09.56.13.85.13.75,0,1.24-.13,1.24-.37,0-.77-5.24-.24-5.24-2.17,0-1.08,1.67-1.62,3.95-1.62,2.53,0,3.68.72,3.9,1.6h-2.83Z" fill="#fff"/>
      <path id="k" data-name="Path 258" d="M24.15,58.19h1.17c.92,0,1.42-.13,1.42-.48s-.5-.53-1.2-.53h-1.39v1.01ZM24.15,59.29v1.77h-2.98v-5.07h4.3c3.03,0,4.03.46,4.03,1.45,0,.59-.47,1.07-1.53,1.24.96.19,1.54.31,1.54,1.34,0,.66-.04.89.31.89v.15h-3.02c-.12-.28-.17-.58-.15-.89,0-.67-.2-.88-1.59-.88h-.91Z" fill="#fff"/>
      <path id="l" data-name="Path 259" d="M34.31,57.18v.85h1.24c.59,0,1.03-.15,1.03-.44,0-.4-.59-.41-1.21-.41h-1.05ZM34.31,58.94v.93h1.3c.74,0,1.29-.09,1.29-.46,0-.44-.69-.47-1.65-.47h-.95ZM31.33,61.06v-5.07h4.35c2.05,0,3.68.28,3.68,1.28,0,.52-.61.9-1.19,1.1.99.14,1.51.62,1.51,1.16,0,1.13-1.55,1.53-3.92,1.53h-4.44Z" fill="#fff"/>
    </g>
    <g id="m" data-name="Group 261">
      <path id="n" data-name="Path 260" d="M4.03,25.02l11.34-3.06,6.47,15.23.05-.02-1.95-16.44,11.34-3.05,7.08,26.6-6.91,1.85-5.06-19.01-.05.02,2.14,19.79-7.48,2.02-7.97-18.22h-.06s5.05,19.03,5.05,19.03l-6.91,1.86-7.08-26.6Z" fill="#1a1818"/>
    </g>
    <g id="o" data-name="Group 262">
      <path id="p" data-name="Path 261" d="M3.73,11.04v-5.88h1.67l.78,4h.01l.82-4h1.62v5.88h-1.01v-4.54h-.01l-.95,4.54h-.99l-.91-4.54h-.01v4.54h-1.01Z" fill="#1a1818"/>
      <path id="q" data-name="Path 262" d="M9.1,11.04l1.37-5.88h1.37l1.35,5.88h-1.09l-.27-1.3h-1.42l-.28,1.3h-1.02ZM11.1,6.29h-.02l-.47,2.54h.99l-.5-2.54Z" fill="#1a1818"/>
      <path id="r" data-name="Path 263" d="M16.22,5.15v.98h-1.15v4.9h-1.04v-4.9h-1.15v-.98h3.35Z" fill="#1a1818"/>
      <path id="s" data-name="Path 264" d="M20.05,5.15v4.17c0,.22-.03.44-.09.66-.06.21-.15.4-.28.58-.14.18-.32.32-.52.42-.25.11-.52.17-.8.16-.48.04-.94-.14-1.27-.49-.29-.38-.44-.84-.42-1.32v-4.17h1.04v4.09c-.02.27.04.54.18.78.11.15.28.24.46.23.2.01.4-.09.5-.26.12-.23.18-.49.16-.75v-4.09h1.04Z" fill="#1a1818"/>
      <path id="t" data-name="Path 265" d="M21.91,11.04h-1.04v-5.88h1.92c.33-.01.64.13.85.39.23.34.34.74.31,1.15,0,.33-.06.66-.21.95-.15.26-.41.45-.71.49v.02c.06,0,.13.03.23.05.11.03.21.08.3.15.11.09.2.21.26.34.08.2.12.41.11.62,0,.09,0,.22,0,.39s0,.34.02.52.02.35.04.49c0,.11.03.22.06.32h-1.02c-.07-.18-.11-.37-.11-.56v-1.07c0-.14-.02-.28-.07-.41-.04-.11-.12-.21-.22-.28-.14-.08-.29-.12-.45-.11h-.27v2.44ZM21.91,7.7h.46c.09,0,.18-.03.25-.08.07-.06.12-.13.16-.21.05-.09.08-.18.09-.28.01-.1.02-.2.02-.29.02-.21-.03-.42-.14-.6-.09-.12-.24-.18-.39-.17h-.46v1.64Z" fill="#1a1818"/>
      <path id="u" data-name="Path 266" d="M24.72,11.04v-5.88h2.71v.9h-1.67v1.45h1.54v.9h-1.54v1.72h1.72v.91h-2.76Z" fill="#1a1818"/>
      <path id="v" data-name="Path 267" d="M29.58,6.04c.18-.12.34-.25.5-.4.16-.15.31-.33.42-.52h.92v5.91h-1.04v-4.55c-.12.13-.25.25-.39.36-.14.11-.28.21-.42.3v-1.11Z" fill="#1a1818"/>
      <path id="w" data-name="Path 268" d="M35.09,6.25l-1.17,4.79h-1.08l1.31-5h-1.64v-.92h2.58v1.13Z" fill="#1a1818"/>
      <path id="x" data-name="Path 269" d="M36.69,6.29h.76v1.61h1.16v.9h-1.16v1.6h-.76v-1.6h-1.17v-.9h1.17v-1.61Z" fill="#1a1818"/>
    </g>
  </g>
</svg>