<?xml version="1.0" encoding="UTF-8"?>
<svg id="a"  xmlns="http://www.w3.org/2000/svg" viewBox="0 0 42.67 64">
  <g id="b" >
    <path id="c"  d="M42.67,0H0v64h42.67V0Z" fill="#fff"/>
    <g id="d" >
      <path id="e"  d="M42.05.69v62.63H.62V.69h41.43" fill="#1a1818"/>
    </g>
    <rect id="f"  x="2.7" y="2.91" width="36.96" height="10.39" fill="#fff"/>
    <rect id="g"  x="2.69" y="15.56" width="36.98" height="38.18" fill="#fff"/>
    <g id="h" >
      <path id="i"  d="M2.7,61.06v-5.07h7.42v1.19h-4.44v.72h3.76v1.18h-3.76v.79h4.61v1.18H2.7Z" fill="#fff"/>
      <path id="j"  d="M16.6,57.46c-.07-.18-.24-.31-.43-.34-.25-.07-.51-.1-.77-.09-.65,0-.95.11-.95.3,0,.75,5.23.28,5.23,2.12,0,1.17-1.76,1.75-4.26,1.75s-3.97-.78-4.03-1.69h2.86c.09.2.28.35.49.4.27.09.56.13.85.13.75,0,1.24-.13,1.24-.37,0-.77-5.24-.24-5.24-2.17,0-1.08,1.67-1.62,3.95-1.62,2.53,0,3.68.72,3.9,1.6h-2.84Z" fill="#fff"/>
      <path id="k"  d="M24.15,58.19h1.17c.92,0,1.42-.13,1.42-.48s-.5-.53-1.2-.53h-1.39v1.01ZM24.15,59.29v1.77h-2.98v-5.07h4.3c3.03,0,4.03.46,4.03,1.45,0,.59-.47,1.07-1.53,1.24.96.19,1.54.31,1.54,1.34,0,.66-.04.89.31.89v.15h-3.03c-.12-.28-.17-.58-.15-.89,0-.67-.2-.88-1.59-.88h-.91Z" fill="#fff"/>
      <path id="l"  d="M34.31,57.17v.85h1.24c.59,0,1.03-.15,1.03-.44,0-.4-.59-.41-1.22-.41h-1.05ZM34.31,58.94v.93h1.3c.74,0,1.29-.09,1.29-.46,0-.44-.69-.47-1.65-.47h-.95ZM31.33,61.06v-5.07h4.35c2.05,0,3.68.28,3.68,1.28,0,.52-.61.9-1.19,1.1.99.14,1.51.62,1.51,1.16,0,1.13-1.55,1.53-3.92,1.53h-4.43Z" fill="#fff"/>
    </g>
    <g id="m" >
      <g id="n" >
        <path id="o"  d="M15.31,38.71l-.09-11.09,6.04,9.62-5.96,1.47ZM29.49,34.51c-.47.23-.97.41-1.48.54-3.8.94-6.51-1.12-7.55-4.74-.77-2.66-.31-4.99,1.49-6.43l-4.38-6.18-9.59,2.38-1.94,31.5,9.24-2.29-.03-4.08,9.39-2.34,2.23,3.54,9.39-2.33-6.77-9.56" fill="#1a1818"/>
      </g>
      <g id="p" >
        <path id="q"  d="M22.77,29.74c.72,2.48,2.18,4.36,4.78,3.71.32-.08.64-.2.93-.36l-5.43-7.66c-.81,1.06-.77,2.64-.29,4.31" fill="#1a1818"/>
      </g>
      <g id="r" >
        <path id="s"  d="M24.9,24.31c2.61-.65,4.07,1.23,4.78,3.71.62,2.14.52,4.14-1.2,5.07l1,1.42c2.63-1.3,3.4-3.96,2.5-7.06-1.05-3.61-3.75-5.68-7.56-4.73-.9.21-1.75.6-2.48,1.16l1.1,1.56c.46-.58,1.12-.97,1.84-1.12" fill="#1a1818"/>
      </g>
    </g>
    <g id="t" >
      <path id="u"  d="M3.74,11.05l.96-5.89h.95l.94,5.89h-.76l-.19-1.31h-.99l-.2,1.31h-.71ZM5.13,6.3h-.01l-.33,2.54h.69l-.35-2.54Z" fill="#1a1818"/>
      <path id="v"  d="M6.95,5.16h1.21c.21,0,.42.06.58.2.16.16.28.35.34.57.09.3.15.61.17.92.03.36.04.77.04,1.23v.53c0,.2,0,.42-.02.64-.02.22-.05.44-.09.66-.04.2-.1.39-.19.58-.08.16-.2.3-.34.41-.15.11-.33.17-.51.16h-1.18v-5.89ZM7.67,10.15h.35c.1,0,.2-.04.26-.11.08-.1.14-.22.16-.35.04-.21.07-.42.08-.63.01-.26.02-.57.02-.94,0-.27,0-.53,0-.78,0-.22-.02-.43-.05-.65-.02-.16-.07-.31-.15-.45-.06-.1-.17-.17-.29-.17h-.37v4.08Z" fill="#1a1818"/>
      <path id="w"  d="M12.2,5.16v4.18c0,.22-.02.44-.06.66-.03.2-.1.4-.2.58-.09.16-.21.31-.36.42-.16.11-.36.17-.56.16-.37.02-.71-.17-.89-.49-.21-.41-.31-.86-.29-1.32v-4.18h.72v4.1c-.02.26.02.53.12.78.07.18.27.28.45.21.11-.04.19-.13.22-.24.09-.24.12-.5.11-.75v-4.1h.72Z" fill="#1a1818"/>
      <path id="x"  d="M12.79,11.05v-5.89h.72v4.91h1.08v.98h-1.81Z" fill="#1a1818"/>
      <path id="y"  d="M16.7,5.16v.98h-.8v4.91h-.72v-4.91h-.81v-.98h2.33Z" fill="#1a1818"/>
      <path id="z"  d="M19.18,9.45c.01.31-.03.61-.11.91-.05.19-.15.37-.28.51-.11.11-.24.19-.39.23-.14.03-.28.05-.42.05-.19,0-.38-.04-.54-.15-.14-.11-.25-.25-.32-.42-.08-.2-.13-.4-.15-.61-.02-.24-.03-.49-.02-.73h.72c0,.14,0,.27,0,.4,0,.11.02.22.05.33.02.08.06.16.12.22.06.06.15.09.23.08.12,0,.23-.07.27-.18.07-.15.1-.32.09-.49,0-.16-.03-.32-.11-.46-.07-.13-.16-.26-.27-.37-.11-.12-.22-.23-.35-.35-.13-.12-.25-.26-.35-.41-.11-.17-.21-.35-.27-.54-.08-.24-.11-.5-.11-.75,0-.22.02-.43.05-.64.03-.18.09-.36.19-.53.08-.15.21-.27.35-.35.17-.09.36-.14.55-.13.32-.02.62.15.78.42.2.42.27.89.22,1.35h-.71c0-.11,0-.22-.01-.32,0-.1-.02-.19-.05-.28-.02-.07-.05-.14-.1-.2-.04-.05-.11-.08-.17-.08-.11,0-.22.06-.28.16-.08.14-.11.31-.1.47,0,.16.03.33.11.47.07.13.16.25.27.36.11.11.22.22.35.33.13.12.25.25.35.39.12.17.21.35.27.54.08.25.11.51.1.78Z" fill="#1a1818"/>
      <path id="aa"  d="M21.92,11.15c-.26.02-.51-.08-.69-.26-.18-.19-.3-.43-.36-.68-.08-.32-.12-.65-.13-.98-.01-.36-.02-.74-.02-1.12s0-.77.02-1.13c0-.33.05-.65.13-.97.06-.25.18-.49.36-.68.4-.34.98-.34,1.38,0,.17.19.3.43.35.68.08.32.12.64.13.97.01.36.02.74.02,1.13s0,.76-.02,1.12c0,.33-.05.66-.13.98-.06.25-.18.49-.35.68-.18.18-.43.27-.69.26ZM21.92,10.27c.1,0,.19-.05.24-.13.08-.12.12-.25.14-.39.04-.22.06-.45.06-.67,0-.28.01-.6.01-.98s0-.7-.01-.98c0-.23-.03-.45-.06-.67-.02-.14-.06-.27-.14-.39-.09-.13-.28-.17-.41-.07-.03.02-.05.04-.07.07-.07.12-.12.25-.14.39-.04.22-.06.45-.06.67,0,.27-.01.6-.01.98s0,.7.01.98c0,.22.03.45.06.67.02.14.07.27.14.39.05.08.15.13.24.13Z" fill="#1a1818"/>
      <path id="ab"  d="M23.69,11.05v-5.89h.98l.92,4.08h0v-4.08h.67v5.89h-.95l-.94-4.31h0v4.31h-.68Z" fill="#1a1818"/>
      <path id="ac"  d="M26.89,11.05v-5.89h.72v4.91h1.08v.98h-1.8Z" fill="#1a1818"/>
      <path id="ad"  d="M29.3,9.01l-.91-3.85h.79l.52,2.49.55-2.49h.74l-.97,3.85v2.04h-.72v-2.04Z" fill="#1a1818"/>
      <path id="ae"  d="M32.32,6.05c.13-.13.24-.26.35-.4.12-.16.22-.33.3-.52h.64v5.92h-.72v-4.56c-.08.12-.17.24-.27.35-.1.11-.2.21-.29.31v-1.11Z" fill="#1a1818"/>
      <path id="af"  d="M35.28,11.13c-.29.01-.57-.13-.72-.38-.19-.38-.27-.8-.24-1.22,0-.18,0-.35.02-.52,0-.15.03-.31.07-.45.03-.13.08-.25.15-.37.06-.11.15-.2.26-.26v-.02c-.09-.04-.17-.1-.23-.18-.06-.09-.11-.19-.14-.29-.04-.12-.06-.25-.07-.37-.01-.14-.02-.29-.02-.44-.03-.41.05-.82.24-1.19.26-.39.78-.49,1.17-.24.09.06.18.14.24.24.18.37.26.78.24,1.19,0,.16,0,.31-.02.44-.01.13-.04.25-.07.37-.03.1-.08.2-.14.29-.06.08-.14.15-.23.18v.02c.11.07.19.16.26.26.07.12.12.24.15.37.04.15.06.3.07.45.01.16.02.34.02.52.03.42-.05.84-.24,1.22-.15.25-.43.39-.72.38ZM35.28,8.4c-.08,0-.14.05-.17.12-.04.09-.07.18-.09.28-.02.11-.03.23-.03.34v.31c0,.09,0,.17.01.27,0,.09.02.18.04.26.01.07.04.14.09.2.04.05.09.08.15.08.06,0,.12-.03.16-.08.04-.06.07-.13.09-.2.02-.09.04-.17.04-.26,0-.09.01-.18.01-.27v-.31c0-.12-.01-.23-.03-.34-.01-.1-.04-.19-.09-.28-.03-.07-.1-.12-.18-.12ZM35.28,5.92c-.06,0-.11.03-.14.08-.04.06-.07.13-.08.2-.02.08-.03.17-.04.25,0,.09,0,.17,0,.24s0,.16,0,.25c0,.09.02.17.04.26.01.07.04.14.08.2.03.05.08.08.14.08.06,0,.11-.03.15-.08.04-.06.07-.13.08-.2.02-.09.03-.17.03-.26,0-.09,0-.18,0-.25s0-.15,0-.24c0-.08-.02-.17-.03-.25-.02-.07-.04-.14-.08-.2-.03-.05-.08-.08-.14-.08h0Z" fill="#1a1818"/>
      <path id="ag"  d="M37.28,6.31h.53v1.61h.81v.9h-.81v1.61h-.53v-1.61h-.81v-.9h.81v-1.61Z" fill="#1a1818"/>
    </g>
  </g>
</svg>