<?xml version="1.0" encoding="UTF-8"?>
<svg id="a" data-name="ESRB Logos" xmlns="http://www.w3.org/2000/svg" viewBox="0 0 42.67 64">
  <g id="b" data-name="Teen">
    <path id="c" data-name="Path 243" d="M42.67,0H0v64h42.67V0Z" fill="#fff"/>
    <g id="d" data-name="Group 254">
      <path id="e" data-name="Path 244" d="M42.05.69v62.63H.62V.69h41.43" fill="#1a1818"/>
    </g>
    <rect id="f" data-name="Rectangle 182" x="2.7" y="2.91" width="36.96" height="10.38" fill="#fff"/>
    <rect id="g" data-name="Rectangle 183" x="2.69" y="15.56" width="36.98" height="38.18" fill="#fff"/>
    <g id="h" data-name="Group 255">
      <path id="i" data-name="Path 245" d="M2.7,61.06v-5.07h7.42v1.19h-4.44v.72h3.76v1.18h-3.76v.79h4.61v1.18H2.7Z" fill="#fff"/>
      <path id="j" data-name="Path 246" d="M16.6,57.46c-.07-.18-.24-.31-.43-.34-.25-.07-.51-.1-.77-.09-.66,0-.95.11-.95.3,0,.75,5.24.28,5.24,2.12,0,1.17-1.76,1.75-4.26,1.75s-3.97-.78-4.03-1.69h2.86c.1.2.28.35.49.4.27.09.56.13.85.13.75,0,1.24-.13,1.24-.37,0-.77-5.24-.24-5.24-2.17,0-1.08,1.67-1.62,3.95-1.62,2.53,0,3.68.72,3.9,1.6h-2.83Z" fill="#fff"/>
      <path id="k" data-name="Path 247" d="M24.15,58.19h1.17c.92,0,1.42-.13,1.42-.48s-.51-.53-1.2-.53h-1.39v1.01ZM24.15,59.29v1.77h-2.98v-5.07h4.3c3.03,0,4.03.46,4.03,1.45,0,.59-.47,1.07-1.53,1.24.96.19,1.54.31,1.54,1.34,0,.66-.04.89.31.89v.15h-3.02c-.12-.28-.17-.58-.15-.89,0-.67-.2-.88-1.59-.88h-.91Z" fill="#fff"/>
      <path id="l" data-name="Path 248" d="M34.31,57.17v.85h1.24c.59,0,1.03-.15,1.03-.44,0-.4-.59-.41-1.21-.41h-1.05ZM34.31,58.94v.93h1.3c.74,0,1.29-.09,1.29-.46,0-.44-.69-.47-1.65-.47h-.95ZM31.33,61.06v-5.07h4.35c2.05,0,3.68.28,3.68,1.28,0,.52-.61.9-1.19,1.1.99.14,1.51.62,1.51,1.16,0,1.13-1.55,1.53-3.92,1.53h-4.44Z" fill="#fff"/>
    </g>
    <path id="m" data-name="Path 249" d="M5.77,24.83l28.61-7.13,2.2,7.63-9.19,2.29,6.16,21.42-10.23,2.55-6.17-21.42-9.19,2.29-2.2-7.63Z" fill="#1a1818"/>
    <g id="n" data-name="Group 256">
      <path id="o" data-name="Path 250" d="M30.99,5.16h2.43l2.82,3.21-.1-1.34v-1.87h2.48v5.88h-2.43l-2.82-3.2.05,1.39.05,1.81h-2.48v-5.88Z" fill="#1a1818"/>
      <path id="p" data-name="Path 251" d="M22.23,5.16h6.44v1.37h-3.85v.85h3.26v1.37h-3.26v.92h4.01v1.37h-6.6v-5.88Z" fill="#1a1818"/>
      <path id="q" data-name="Path 252" d="M13.18,5.16h6.44v1.37h-3.85v.85h3.26v1.37h-3.26v.92h4.01v1.37h-6.6v-5.88Z" fill="#1a1818"/>
      <path id="r" data-name="Path 253" d="M3.73,5.16h7.25v1.54h-2.32v4.33h-2.6v-4.33h-2.33v-1.54Z" fill="#1a1818"/>
    </g>
  </g>
</svg>