<?xml version="1.0" encoding="UTF-8"?>
<svg id="a" data-name="ESRB Logos" xmlns="http://www.w3.org/2000/svg" viewBox="0 0 42.67 64">
  <g id="b" data-name="Everyone 10+">
    <path id="c" data-name="Path 224" d="M42.67,0H0v64h42.67V0h0Z" fill="#fff"/>
    <g id="d" data-name="Group 246">
      <path id="e" data-name="Path 225" d="M42.05.69v62.63H.62V.69h41.43" fill="#1a1818"/>
    </g>
    <rect id="f" data-name="Rectangle 180" x="2.7" y="2.91" width="36.96" height="10.39" fill="#fff"/>
    <rect id="g" data-name="Rectangle 181" x="2.69" y="15.56" width="36.98" height="38.18" fill="#fff"/>
    <g id="h" data-name="Group 247">
      <path id="i" data-name="Path 226" d="M2.69,61.06v-5.07h7.42v1.19h-4.44v.72h3.76v1.18h-3.76v.79h4.61v1.18H2.69Z" fill="#fff"/>
      <path id="j" data-name="Path 227" d="M16.6,57.46c-.07-.18-.24-.31-.43-.34-.25-.07-.51-.1-.77-.09-.66,0-.95.11-.95.3,0,.75,5.24.28,5.24,2.12,0,1.17-1.76,1.75-4.26,1.75s-3.97-.78-4.03-1.69h2.86c.09.2.28.35.49.4.27.09.56.13.85.13.75,0,1.24-.13,1.24-.37,0-.77-5.24-.24-5.24-2.17,0-1.08,1.67-1.62,3.95-1.62,2.53,0,3.68.72,3.9,1.6h-2.83Z" fill="#fff"/>
      <path id="k" data-name="Path 228" d="M24.15,58.19h1.17c.92,0,1.42-.13,1.42-.48s-.51-.53-1.2-.53h-1.39v1.01ZM24.15,59.29v1.77h-2.98v-5.07h4.3c3.03,0,4.03.46,4.03,1.45,0,.59-.47,1.07-1.53,1.24.96.19,1.54.31,1.54,1.34,0,.66-.04.89.31.89v.15h-3.02c-.12-.28-.17-.58-.15-.89,0-.67-.2-.88-1.59-.88h-.91Z" fill="#fff"/>
      <path id="l" data-name="Path 229" d="M34.31,57.18v.85h1.24c.59,0,1.03-.15,1.03-.44,0-.4-.59-.41-1.21-.41h-1.05ZM34.31,58.94v.94h1.3c.74,0,1.29-.09,1.29-.46,0-.44-.69-.47-1.65-.47h-.95ZM31.33,61.06v-5.07h4.35c2.05,0,3.68.28,3.68,1.28,0,.52-.61.9-1.19,1.1.99.14,1.51.62,1.51,1.16,0,1.13-1.55,1.53-3.92,1.53h-4.44Z" fill="#fff"/>
    </g>
    <g id="m" data-name="Group 250">
      <g id="n" data-name="Group 248">
        <path id="o" data-name="Path 230" d="M23.52,44.36h-1.59v.88h1.59v1.55h.9v-1.55h1.6v-.88h-1.6v-1.55h-.9v1.55ZM20.99,43.97c0-3.08-1.65-4.9-4.39-4.9-3.7,0-4.61,2.53-4.61,4.9,0,2.9,1.46,4.9,4.5,4.9s4.5-2,4.5-4.9M5.49,24.39l22.4-6.69,2.24,7.09-11.22,3.35.92,2.9,10.37-3.09,2.24,7.09-10.36,3.09.97,3.06,11.59-3.46,2.25,7.09-22.76,6.8L5.49,24.39M6.35,42.32c1.01-.25,1.96-.71,2.78-1.34v7.42h2.1v-9.3h-2.05c-.83.68-1.8,1.17-2.84,1.43v1.8" fill="#1a1818"/>
      </g>
      <g id="p" data-name="Group 249">
        <path id="q" data-name="Path 231" d="M13.92,43.88c.02-3.11,1.25-3.83,2.66-3.83,1.58,0,2.48,1.19,2.47,3.91,0,1.7-.47,3.79-2.49,3.77-1.98,0-2.65-1.59-2.64-3.86" fill="#1a1818"/>
      </g>
    </g>
    <g id="r" data-name="Group 251">
      <path id="s" data-name="Path 232" d="M3.75,11.05v-5.89h2.31v.91h-1.43v1.45h1.31v.91h-1.31v1.72h1.47v.9h-2.35Z" fill="#1a1818"/>
      <path id="t" data-name="Path 233" d="M6.34,5.16h.92l.66,4.28h.01l.74-4.28h.87l-1.12,5.89h-1.04l-1.04-5.89Z" fill="#1a1818"/>
      <path id="u" data-name="Path 234" d="M9.93,11.05v-5.89h2.31v.91h-1.42v1.45h1.31v.91h-1.31v1.72h1.47v.9h-2.36Z" fill="#1a1818"/>
      <path id="v" data-name="Path 235" d="M13.73,11.05h-.88v-5.89h1.63c.29,0,.57.14.72.39.2.35.29.75.27,1.15,0,.33-.05.65-.18.95-.11.25-.34.44-.61.49h0s.11.04.2.07c.1.03.19.08.26.15.1.1.17.21.22.34.07.2.1.41.09.62,0,.09,0,.22,0,.39s0,.34.01.52.02.35.03.49c0,.11.02.21.05.32h-.87c-.06-.18-.09-.37-.09-.56v-1.07c0-.14-.02-.28-.06-.41-.03-.11-.1-.21-.19-.28-.11-.08-.25-.12-.38-.11h-.23v2.44ZM13.73,7.71h.39c.08,0,.16-.03.22-.08.06-.06.11-.13.14-.21.04-.09.06-.19.07-.28.01-.1.02-.2.02-.29.02-.21-.02-.42-.12-.6-.07-.11-.2-.18-.33-.17h-.39v1.64Z" fill="#1a1818"/>
      <path id="w" data-name="Path 236" d="M16.81,9.01l-1.11-3.85h.97l.63,2.49.68-2.49h.9l-1.18,3.85v2.04h-.88v-2.04Z" fill="#1a1818"/>
      <path id="x" data-name="Path 237" d="M20.7,11.15c-.3.02-.6-.07-.84-.26-.21-.18-.36-.42-.44-.68-.09-.32-.15-.64-.16-.98-.01-.36-.02-.74-.02-1.13s0-.77.02-1.13c.01-.33.06-.66.16-.97.08-.26.23-.5.44-.68.51-.34,1.18-.34,1.69,0,.21.18.36.42.43.68.1.32.15.64.16.97.02.36.02.74.02,1.13s0,.76-.02,1.13c0,.33-.06.66-.16.98-.08.26-.23.5-.43.68-.24.19-.54.28-.84.26ZM20.7,10.27c.11,0,.22-.04.3-.13.09-.11.15-.25.17-.39.04-.22.07-.45.08-.67.01-.27.02-.6.02-.98,0-.38,0-.7-.02-.97,0-.23-.03-.45-.08-.67-.02-.14-.08-.27-.17-.39-.16-.17-.42-.17-.58-.02,0,0-.01.01-.02.02-.09.11-.15.25-.17.39-.05.22-.07.45-.08.67-.01.28-.02.6-.02.97s0,.7.02.98c0,.23.03.45.08.67.02.14.08.28.17.39.08.08.19.13.3.13Z" fill="#1a1818"/>
      <path id="y" data-name="Path 238" d="M22.87,11.05v-5.89h1.19l1.12,4.08h.01v-4.08h.83v5.89h-1.17l-1.15-4.31h-.01v4.31h-.82Z" fill="#1a1818"/>
      <path id="z" data-name="Path 239" d="M26.77,11.05v-5.89h2.31v.91h-1.42v1.45h1.31v.91h-1.31v1.72h1.47v.9h-2.35Z" fill="#1a1818"/>
      <path id="aa" data-name="Path 240" d="M30.92,6.09c.15-.12.29-.25.42-.39.14-.16.27-.33.37-.51h.78v5.87h-.88v-4.51c-.1.13-.21.24-.33.35-.12.11-.24.21-.36.3v-1.1Z" fill="#1a1818"/>
      <path id="ab" data-name="Path 241" d="M34.53,5.11c.21,0,.43.04.61.15.17.12.3.3.36.5.1.3.15.61.17.93.03.38.05.85.05,1.41,0,.46-.01.88-.03,1.25-.01.32-.06.64-.15.95-.06.23-.19.44-.36.61-.38.29-.91.29-1.29,0-.17-.17-.3-.38-.36-.61-.09-.31-.14-.63-.15-.95-.02-.37-.03-.79-.03-1.25,0-.56.01-1.03.04-1.41.02-.32.07-.63.17-.93.06-.2.19-.38.36-.5.18-.11.4-.16.61-.15ZM34.53,5.97c-.08,0-.15.03-.2.08-.06.1-.1.2-.11.32-.03.22-.04.43-.04.65,0,.28,0,.65,0,1.1s0,.8,0,1.08c0,.22.02.44.05.66,0,.11.05.23.11.32.05.06.12.09.19.09.07,0,.15-.03.19-.09.06-.1.1-.21.11-.32.03-.22.05-.44.05-.66,0-.28,0-.64,0-1.08s0-.82,0-1.1c0-.22-.01-.44-.04-.65,0-.11-.05-.22-.11-.32-.05-.06-.13-.09-.2-.08h0Z" fill="#1a1818"/>
      <path id="ac" data-name="Path 242" d="M36.98,6.31h.65v1.61h.99v.91h-.99v1.61h-.65v-1.61h-1v-.91h1v-1.61Z" fill="#1a1818"/>
    </g>
  </g>
</svg>