<?xml version="1.0" encoding="UTF-8"?>
<svg id="a" data-name="ESRB Logos" xmlns="http://www.w3.org/2000/svg" viewBox="0 0 42.67 64">
  <g id="b" data-name="Everyone">
    <path id="c" data-name="Path 209" d="M42.67,0H0v64h42.67s0-64,0-64Z" fill="#fff"/>
    <path id="d" data-name="Path 210" d="M42.05.69v62.63H.62V.69h41.43" fill="#1a1818"/>
    <rect id="e" data-name="Rectangle 178" x="2.7" y="2.91" width="36.96" height="10.39" fill="#fff"/>
    <rect id="f" data-name="Rectangle 179" x="2.69" y="15.56" width="36.98" height="38.18" fill="#fff"/>
    <g id="g" data-name="Group 241">
      <path id="h" data-name="Path 211" d="M2.69,61.06v-5.07h7.42v1.19h-4.44v.72h3.76v1.18h-3.76v.79h4.61v1.18H2.69Z" fill="#fff"/>
      <path id="i" data-name="Path 212" d="M16.6,57.46c-.07-.18-.24-.31-.43-.34-.25-.07-.51-.1-.77-.09-.66,0-.95.11-.95.3,0,.75,5.24.28,5.24,2.12,0,1.17-1.76,1.75-4.26,1.75s-3.97-.78-4.03-1.69h2.86c.09.2.28.35.49.4.27.09.56.13.85.13.75,0,1.24-.13,1.24-.37,0-.77-5.24-.24-5.24-2.17,0-1.08,1.67-1.62,3.95-1.62,2.53,0,3.68.72,3.9,1.6h-2.83Z" fill="#fff"/>
      <path id="j" data-name="Path 213" d="M24.15,58.19h1.17c.92,0,1.42-.13,1.42-.48s-.51-.53-1.2-.53h-1.39v1.01ZM24.15,59.29v1.77h-2.98v-5.07h4.3c3.03,0,4.03.46,4.03,1.45,0,.59-.47,1.07-1.53,1.24.96.19,1.54.31,1.54,1.34,0,.66-.04.89.31.89v.15h-3.02c-.12-.28-.17-.58-.15-.89,0-.67-.2-.88-1.59-.88h-.91Z" fill="#fff"/>
      <path id="k" data-name="Path 214" d="M34.31,57.17v.85h1.24c.59,0,1.03-.15,1.03-.44,0-.4-.59-.41-1.21-.41h-1.05ZM34.31,58.94v.93h1.3c.74,0,1.29-.09,1.29-.46,0-.44-.69-.47-1.65-.47h-.95ZM31.33,61.06v-5.07h4.35c2.05,0,3.68.28,3.68,1.28,0,.52-.61.9-1.19,1.1.99.14,1.51.62,1.51,1.16,0,1.13-1.55,1.53-3.92,1.53h-4.44Z" fill="#fff"/>
    </g>
    <g id="l" data-name="Group 242">
      <path id="m" data-name="Path 215" d="M5.45,24.39l22.38-6.69,2.24,7.09-11.21,3.35.92,2.9,10.36-3.09,2.24,7.09-10.35,3.09.97,3.05,11.58-3.46,2.24,7.09-22.74,6.79L5.45,24.39" fill="#1a1818"/>
    </g>
    <g id="n" data-name="Group 243">
      <path id="o" data-name="Path 216" d="M3.73,11.05v-5.88h3.17v.91h-1.96v1.45h1.8v.91h-1.8v1.72h2.02v.91h-3.24Z" fill="#1a1818"/>
      <path id="p" data-name="Path 217" d="M7.29,5.16h1.27l.9,4.28h.02l1.01-4.28h1.2l-1.54,5.88h-1.42l-1.43-5.88Z" fill="#1a1818"/>
      <path id="q" data-name="Path 218" d="M12.23,11.05v-5.88h3.17v.91h-1.96v1.45h1.8v.91h-1.8v1.72h2.02v.91h-3.24Z" fill="#1a1818"/>
      <path id="r" data-name="Path 219" d="M17.45,11.05h-1.21v-5.88h2.24c.37-.02.74.12,1,.39.26.32.4.73.37,1.15.01.33-.07.67-.24.95-.19.28-.5.46-.83.49h0s.27.06.27.06c.13.02.24.07.35.15.13.09.23.2.3.34.1.19.14.41.13.62,0,.09,0,.22,0,.39s0,.34.02.52.03.34.05.49c0,.11.03.22.07.32h-1.19c-.08-.18-.12-.37-.13-.56v-.58c0-.17,0-.34,0-.49,0-.14-.03-.28-.08-.41-.05-.12-.14-.22-.26-.28-.16-.08-.35-.12-.53-.11h-.31v2.44ZM17.45,7.71h.54c.11,0,.21-.03.3-.08.08-.05.15-.12.19-.21.05-.09.09-.18.1-.28.02-.1.03-.2.03-.29.02-.21-.04-.43-.16-.6-.12-.12-.29-.18-.45-.17h-.54v1.64Z" fill="#1a1818"/>
      <path id="s" data-name="Path 220" d="M21.69,9.01l-1.52-3.84h1.33l.87,2.48.93-2.48h1.24l-1.62,3.84v2.04h-1.22v-2.04Z" fill="#1a1818"/>
      <path id="t" data-name="Path 221" d="M27.04,11.15c-.4.02-.8-.07-1.16-.26-.26-.16-.47-.4-.6-.68-.13-.31-.2-.64-.21-.97-.02-.36-.03-.74-.03-1.12s.01-.77.03-1.13c.01-.33.08-.66.21-.97.12-.28.33-.52.6-.68.73-.34,1.58-.34,2.32,0,.26.16.47.4.6.68.13.31.2.63.22.97.02.36.03.74.03,1.13s-.01.76-.03,1.12c-.02.33-.09.66-.22.97-.12.28-.33.52-.6.68-.36.19-.76.28-1.16.26ZM27.04,10.27c.15,0,.29-.04.41-.13.11-.1.19-.24.23-.39.06-.22.1-.44.1-.67.02-.28.03-.6.03-.97s0-.7-.03-.97c0-.23-.04-.45-.1-.67-.04-.15-.12-.28-.23-.39-.25-.17-.57-.17-.82,0-.11.1-.2.24-.23.39-.06.22-.1.44-.11.67-.02.27-.02.6-.02.97,0,.37,0,.7.02.97,0,.23.04.45.11.67.04.15.12.28.23.39.12.09.26.13.41.12h0Z" fill="#1a1818"/>
      <path id="u" data-name="Path 222" d="M30.02,11.05v-5.88h1.64l1.54,4.07h.02v-4.07h1.14v5.88h-1.6l-1.59-4.3h-.02v4.3h-1.14Z" fill="#1a1818"/>
      <path id="v" data-name="Path 223" d="M35.38,11.05v-5.88h3.18v.91h-1.96v1.45h1.8v.91h-1.8v1.72h2.02v.91h-3.24Z" fill="#1a1818"/>
    </g>
  </g>
</svg>