<?xml version="1.0" encoding="UTF-8"?>
<svg id="a" data-name="PEGI Logos" xmlns="http://www.w3.org/2000/svg" viewBox="0 0 52.46 64">
  <g id="b" data-name="16">
    <rect width="52.46" height="52.46" fill="#f5a200"/>
    <path d="M18.47,45.01h-8.18v-28.43h-5.35v-4.83c3.67.05,6.09-1.47,7.4-5.04h6.14v38.3Z" fill="#fff"/>
    <path d="M34.52,23.29c1.57-1.47,2.73-2.52,5.35-2.52,4.88,0,7.45,4.14,7.45,11.86,0,7.24-1.89,13.01-10.54,13.01-6.09,0-9.18-3.1-10.28-8.97-.47-2.57-.53-5.72-.53-10.02.05-5.25.11-8.39.58-10.97,1.1-5.88,4.2-8.97,10.28-8.97,5.51,0,9.97,3.41,9.97,9.18v1.94h-7.66v-.89c0-2.62-1-3.3-2.31-3.3-1.57.21-2.26,1.68-2.31,3.78v5.88h0ZM36.88,28.33c-1.63,0-2.36,1.63-2.36,5.09s.73,5.09,2.36,5.09c1.73,0,2.47-1.57,2.47-5.09,0-3.46-.73-5.09-2.47-5.09" fill="#fff"/>
    <path d="M0,64h52.46V0H0M51.41,51.41H1.05V1.05h50.36v50.36Z"/>
    <path d="M46.98,2.1v.39h-.83v2.63h-.49v-2.63h-.83v-.39h2.15ZM50.36,5.12h-.49v-2.38h-.01l-.84,2.38h-.4l-.8-2.38h-.01v2.38h-.49v-3.02h.77l.75,2.25h.01l.73-2.25h.76v3.02h0Z"/>
    <g>
      <polygon points="3.33 60.07 4.22 60.07 5.04 56.09 5.06 56.09 5.91 60.07 6.75 60.07 7.9 55.2 7.1 55.2 6.35 59.18 6.33 59.18 5.52 55.2 4.62 55.2 3.79 59.18 3.78 59.18 3 55.2 2.2 55.2 3.33 60.07" fill="#fff"/>
      <polygon points="9.22 60.07 10.11 60.07 10.93 56.09 10.95 56.09 11.8 60.07 12.64 60.07 13.79 55.2 12.99 55.2 12.24 59.18 12.22 59.18 11.41 55.2 10.51 55.2 9.68 59.18 9.67 59.18 8.89 55.2 8.09 55.2 9.22 60.07" fill="#fff"/>
      <polygon points="15.11 60.07 16 60.07 16.82 56.09 16.84 56.09 17.69 60.07 18.53 60.07 19.68 55.2 18.88 55.2 18.13 59.18 18.11 59.18 17.3 55.2 16.4 55.2 15.57 59.18 15.56 59.18 14.77 55.2 13.97 55.2 15.11 60.07" fill="#fff"/>
      <rect x="20.11" y="59.1" width=".83" height=".96" fill="#fff"/>
      <path d="M22.84,57.63c0-1.11.14-1.91.98-1.91.71,0,.89.75.89,1.82,0,1.25-.18,2-.89,2-.82,0-.98-.96-.98-1.91M22.12,61.67h.76v-2.15h.02c.17.42.58.68,1.02.68,1.26,0,1.59-1.55,1.59-2.65,0-1.44-.44-2.47-1.59-2.47-.53,0-.95.36-1.05.73h-.02v-.6h-.73v6.47Z" fill="#fff" fill-rule="evenodd"/>
      <path d="M26.99,57.12v-.18c0-.29.09-1.27.89-1.27.67,0,.84.64.84,1.19v.26h-1.73ZM29.52,57.72v-.31c0-1.05-.14-2.34-1.63-2.34s-1.74,1.41-1.74,2.63c0,1.67.5,2.5,1.69,2.5,1.32,0,1.63-1.21,1.63-1.73h-.76c0,.36-.1,1.13-.83,1.13-.93,0-.93-1.13-.93-1.87h2.56Z" fill="#fff" fill-rule="evenodd"/>
      <path d="M31.87,55.72c.82,0,.98.96.98,1.91,0,1-.16,1.78-.99,1.78-.76,0-.88-.99-.88-1.78,0-1.16.18-1.91.89-1.91M33.57,55.2h-.73v.62h-.02c-.1-.38-.53-.75-1.05-.75-1.23,0-1.59,1.25-1.59,2.56,0,.64.09,2.43,1.51,2.43.48,0,.94-.25,1.1-.65h.02v.64c0,.34.03,1.09-.95,1.09-.4,0-.75-.17-.78-.62h-.76c.13,1.22,1.3,1.22,1.6,1.22.98,0,1.66-.53,1.66-1.98v-4.56Z" fill="#fff" fill-rule="evenodd"/>
      <path d="M34.62,60.07h.76v-4.87h-.76v4.87ZM34.62,54.45h.76v-.87h-.76v.87Z" fill="#fff" fill-rule="evenodd"/>
      <rect x="36.6" y="59.1" width=".84" height=".96" fill="#fff"/>
      <path d="M38.65,60.07h.77v-4.87h-.77v4.87ZM38.65,54.45h.77v-.87h-.77v.87Z" fill="#fff" fill-rule="evenodd"/>
      <path d="M40.46,60.07h.76v-3.36c0-.71.56-.98.97-.98.69,0,.72.61.72.98v3.36h.76v-3.45c0-.57,0-1.54-1.28-1.54-.47,0-.98.26-1.18.7h-.02v-.58h-.73v4.87h0Z" fill="#fff"/>
      <path d="M44.89,60.07h.77v-4.27h.83v-.6h-.83v-.57c0-.34.16-.46.49-.46h.35v-.65h-.55c-.74,0-1.05.38-1.05,1.12v.57h-.71v.6h.71v4.27Z" fill="#fff"/>
      <path d="M46.78,57.63c0,1.37.35,2.56,1.75,2.56s1.75-1.19,1.75-2.56-.34-2.56-1.75-2.56c-1.4,0-1.75,1.19-1.75,2.56M48.52,59.6c-.78,0-.93-.91-.93-1.96s.16-1.96.93-1.96c.82,0,.97.91.97,1.96,0,1.05-.17,1.96-.97,1.96" fill="#fff" fill-rule="evenodd"/>
    </g>
  </g>
</svg>